<svg id="Layer_1" enable-background="new 0 0 50 50" height="512" viewBox="0 0 50 50" width="512" xmlns="http://www.w3.org/2000/svg"><g><g><g><g><g enable-background="new"><g fill="#b4bed7"><path d="m25.0541 6.7187-3.9301 2.284c.5914-.3438 1.3637-.3762 2.2277-.0452l3.9301-2.284c-.864-.3308-1.6363-.2984-2.2277.0452z"/><path d="m44.9067 17.1844c-.2139-.1234-.4255-.2248-.6349-.3062.0141-.1439.0213-.2967.0218-.4536.0074-2.6065-1.8272-5.7816-4.0933-7.09-.719-.415-1.393-.5895-1.9834-.5559-1.0619-2.4696-2.8899-4.7505-4.9671-5.9497-1.6561-.9563-3.1567-1.0447-4.2404-.4148l-3.9301 2.284c1.0838-.6299 2.5843-.5415 4.2405.4146 2.0772 1.1994 3.9053 3.4802 4.9671 5.9499.5903-.0338 1.2644.1408 1.9833.5559 2.2661 1.3083 4.1007 4.4833 4.0933 7.0898-.0004.1569-.0077.3099-.0218.4536.2094.0816.4211.1829.6349.3064 2.2684 1.3095 4.1007 4.4859 4.0933 7.0924-.0037 1.2933-.4604 2.2035-1.1973 2.6317l3.9301-2.284c.7368-.4282 1.1936-1.3384 1.1973-2.6316.0074-2.6064-1.825-5.7828-4.0933-7.0925z"/></g><g><path d="m29.3196 5.1128c2.0772 1.1993 3.9053 3.4802 4.9671 5.9498.5903-.0337 1.2644.1408 1.9833.5559 2.2661 1.3083 4.1007 4.4834 4.0933 7.0899-.0004.1569-.0077.3098-.0218.4535.2094.0816.4211.1829.635.3064 2.2683 1.3096 4.1007 4.4859 4.0933 7.0925-.0074 2.6039-1.8517 3.6549-4.1201 2.3452-1.0147-.5859-1.9441-1.5492-2.661-2.6675-.8356.544-2.0274.5001-3.347-.2618-.3276-.1892-.646-.4149-.9552-.6667-.9389.8144-2.3884.8521-4.0129-.0858-2.0272-1.1704-3.7752-3.5387-4.5978-5.9828-.4259-.0757-.8812-.2443-1.3568-.5188-2.2684-1.3096-4.0984-4.4821-4.091-7.0886.0066-2.332 1.4841-3.4193 3.4237-2.6767-.0087-.1464-.0129-.2901-.0124-.434.0107-3.7828 2.6881-5.3112 5.9803-3.4105z" fill="#e3e7f0"/></g></g></g></g><g><g><g><g enable-background="new"><g><path d="m1.0023 31.3657.0084 1.4498c0 .1574.0786.2986.2358.3931l25.1718 14.6378c1.2263.7071 5.9746-1.3366 10.1253-3.7264 3.5847-2.0751 6.7136-4.402 6.7136-5.4561l-.0157-1.3941c0 1.0533-3.1288 3.381-6.6978 5.4561-4.1508 2.3899-8.9147 4.4335-10.1253 3.7257l-25.172-14.6371c-.1729-.0944-.2441-.2922-.2441-.4488z" fill="#373f51"/></g></g></g><g><path d="m1.2464 31.8145 25.1718 14.637c1.2107.7078 5.9746-1.3358 10.1253-3.7257 4.135-2.3899 7.6726-5.1413 6.4462-5.8491l-25.1717-14.6378c-1.2106-.7071-5.9746 1.3366-10.1096 3.7264-4.1507 2.3899-7.6883 5.1414-6.462 5.8492z" fill="#4c5671"/></g><g><g><path d="m7.7976 27.8836c-.1104.0638-.1109.1681-.0016.2316.1098.0638.29.0639.4004.0001l3.2123-1.8546c.1104-.0638.1109-.1681.0011-.2319-.1093-.0635-.2895-.0636-.3999.0002z" fill="#373f51"/></g><g><path d="m33.718 41.0862c-.5119.2956-.5145.7709-.0059 1.0665s1.3287.2953 1.8406-.0002c.512-.2956.5251-.7764.0164-1.072s-1.3391-.2899-1.8511.0057z" fill="#373f51"/></g><g><path d="m13.5386 25.9889-5.7986 3.3481-.8975-.5216-5.0122 2.8932 23.1487 13.4528 15.8038-9.1238-23.1488-13.4528-4.993 2.8821z" fill="#ffdd94"/></g></g></g><g><g><path d="m4.0874 34.0424c.1492.0862.2682.2834.2677.455-.0005.1628-.1202.2311-.2694.1449l-.94-.5427c-.1417-.0818-.2607-.2879-.2602-.4507.0005-.1716.1202-.2311.2619-.1492z" fill="#4c5671"/></g><g><path d="m8.2279 36.4329c.1492.0861.2607.2791.2602.4507-.0005.1628-.1127.2354-.2619.1492l-2.1785-1.2577c-.1492-.0861-.2682-.2923-.2677-.455.0005-.1716.1202-.2311.2694-.1449z" fill="#4c5671"/></g><g enable-background="new"><g fill="#9da9c1"><path d="m3.3121 33.4041c-.0722-.0416-.1387-.0468-.1867-.0188l-.1647.0959c.0479-.028.1145-.0234.1867.0183l.94.5432c.1493.0862.2682.283.2677.4547-.0002.0799-.0291.1369-.0761.1643l.1647-.0959c.047-.0268.076-.0844.0762-.1637.0005-.1717-.1185-.3691-.2677-.4553z"/><path d="m6.2142 35.0792c-.077-.0439-.1461-.0496-.195-.0217l-.1647.0959c.049-.0285.1181-.0228.1951.0217l2.1784 1.2581c.1492.0862.2607.279.2602.4507-.0002.0816-.0287.1409-.0761.1683l.1647-.0959c.0474-.0274.0759-.0867.0762-.1683.0004-.1717-.111-.3646-.2602-.4507z"/><path d="m11.7349 38.2669-2.1859-1.2621c-.0722-.0416-.1388-.0468-.1867-.0188l-.1647.0959c.0479-.028.1145-.0228.1867.0188l2.1859 1.2621c.1417.0816.2607.279.2602.4507-.0002.0804-.0299.1381-.0771.1655l.1647-.0959c.0471-.0274.0768-.0844.077-.1655.0006-.1717-.1184-.3691-.2601-.4507z"/></g><g><path d="m11.5702 38.3626c.1417.0818.2608.2791.2603.4507-.0005.1628-.1202.2311-.262.1492l-2.1859-1.262c-.1417-.0818-.2607-.288-.2603-.4507.0005-.1716.1202-.2311.262-.1492z" fill="#4c5671"/></g></g></g></g><g><g enable-background="new"><g><path d="m28.7693 26.3989-8.1304 4.7249-2.7007-1.5592-3.5282 2.0503c.2468.2455.2041.5641-.159.7752-.4375.2543-1.1515.2543-1.5916.0002-.4402-.2541-.4349-.6634.0026-.9176.3631-.211.9057-.2411 1.3377-.0946l3.9432-2.2915 2.6932 1.5549 7.7154-4.4837z" fill="#4c5671"/></g><g><path d="m30.3285 27.2991-9.5463 5.5477-2.2381-1.2922-2.1123 1.2276c.2468.2455.2041.5641-.159.7752-.4375.2542-1.1515.2543-1.5917.0002s-.4424-.6677-.0049-.922c.3631-.211.9131-.2368 1.3377-.0946l2.5201-1.4645 2.2381 1.2922 9.1385-5.3107z" fill="#4c5671"/></g><g><path d="m31.7833 28.1391-11.6586 6.7752c.2468.2455.2041.5641-.159.7752-.4375.2542-1.1515.2543-1.5917.0002-.4401-.2541-.4349-.6634.0026-.9176.3631-.211.9057-.2411 1.3377-.0946l11.6586-6.7752z" fill="#4c5671"/></g><g><path d="m33.2455 28.9833-9.1385 5.3107 2.2381 1.2922-2.5201 1.4645c.2469.2455.2041.5641-.159.7752-.4375.2542-1.1515.2543-1.5917.0002-.4401-.2541-.4423-.6677-.0048-.9219.3631-.211.9131-.2368 1.3377-.0946l2.1123-1.2276-2.2381-1.2922 9.5463-5.5477z" fill="#4c5671"/></g><g><path d="m34.7973 29.8792-7.7154 4.4837 2.7007 1.5592-3.9432 2.2915c.2469.2455.2041.5641-.159.7752-.4375.2543-1.1515.2543-1.5916.0002-.4327-.2498-.435-.6634.0026-.9177.3631-.211.9132-.2368 1.3377-.0946l3.5282-2.0504-2.7007-1.5592 8.1304-4.7249z" fill="#4c5671"/></g></g></g><g><g><path d="m37.3189 17.8609c.4401.2541.7971.872.7956 1.378-.0012.42-.2558.6163-.5918.5257l-.0129 4.5602-2.7007-1.5592-.0119 7.1136-.4103-.2369.0132-7.5935 2.7007 1.5592.0116-4.0802c-.3429-.3014-.5881-.7863-.5869-1.2063.0014-.506.3533-.7147.7934-.4606z" fill="#272e3a"/></g><g><path d="m35.3046 16.6979c.4402.2541.7971.872.7957 1.378-.0012.42-.2558.6163-.5918.5257l-.0083 2.9231-2.2381-1.2922-.0165 8.7507-.4178-.2412.0179-9.2306 2.2381 1.2922.0069-2.4431c-.3354-.2971-.5881-.7863-.5869-1.2063.0014-.506.3607-.7104.8008-.4563z" fill="#272e3a"/></g><g><path d="m25.8896 11.2622c.4402.2541.7971.872.7956 1.378-.0012.42-.2558.6163-.5918.5257l-.0116 4.0802 2.7007 1.5592-.0132 7.5935-.4178-.2412.0119-7.1135-2.6932-1.5549.0129-4.5602c-.3429-.3014-.5881-.7863-.5869-1.2063.0014-.506.3532-.7147.7934-.4605z" fill="#272e3a"/></g><g><path d="m27.9114 12.4294c.4402.2541.7971.872.7957 1.378-.0012.42-.2558.6163-.5918.5257l-.0069 2.4431 2.2306 1.2879-.0179 9.2306-.4103-.2369.0165-8.7507-2.2381-1.2922.0083-2.9231c-.3354-.2971-.5881-.7863-.5869-1.2063.0013-.5058.3606-.7102.8008-.4561z" fill="#272e3a"/></g><g><path d="m31.6042 14.5615c.4402.2541.7971.872.7957 1.378-.0012.42-.2558.6163-.5918.5257l-.0248 11.6738-.4103-.2369.0248-11.6738c-.3429-.3014-.5881-.7863-.5869-1.2063.0014-.5059.3532-.7146.7933-.4605z" fill="#272e3a"/></g></g></g></g></svg>