<svg id="icons" enable-background="new 0 0 64 64" height="512" viewBox="0 0 64 64" width="512" xmlns="http://www.w3.org/2000/svg"><path d="m45.994 23.004h-18.996c-.553 0-1-.447-1-1s.447-1 1-1h18.996c.553 0 1 .447 1 1s-.447 1-1 1z" fill="#f6bb42"/><path d="m45.994 26c-.553 0-1-.447-1-1v-2.996c0-.553.447-1 1-1s1 .447 1 1v2.996c0 .553-.447 1-1 1z" fill="#f6bb42"/><path d="m14.995 5.005v7.99c0 .55-.45 1-1 1h-4-4-3.99c-.55 0-1-.45-1-1v-7.99c0-.55.45-1 1-1h11.99c.55 0 1 .45 1 1z" fill="#5d9cec"/><path d="m62.995 5.005v7.99c0 .55-.45 1-1 1h-4-4-3.99c-.55 0-1-.45-1-1v-7.99c0-.55.45-1 1-1h11.99c.55 0 1 .45 1 1z" fill="#5d9cec"/><path d="m45.995 22.005v2.99h-16l-3-2.99z" fill="#f6bb42"/><path d="m25.995 21.005 1 1 3 2.99h16v18h-27.99v-18-3.99z" fill="#ffce54"/><path d="m57.995 57.005h-4-3.99c-.55 0-1-.45-1-1v-8c0-.55.45-1 1-1h11.99c.55 0 1 .45 1 1v8c0 .55-.45 1-1 1z" fill="#5d9cec"/><path d="m10.5 13.995 1 3h-7.001l1-3z" fill="#ccd1d9"/><path d="m58.5 13.995 1 3h-7.001l1-3z" fill="#ccd1d9"/><path d="m58.5 57.005 1 2.99h-7.001l1-2.99z" fill="#ccd1d9"/><path d="m10.5 57.005 1 2.99h-7.001l1-2.99z" fill="#ccd1d9"/><path d="m9.995 57.005h-4-3.99c-.55 0-1-.45-1-1v-8c0-.55.45-1 1-1h11.99c.55 0 1 .45 1 1v8c0 .55-.45 1-1 1z" fill="#5d9cec"/><path d="m12 17.992h-8c-.553 0-1-.447-1-1s.447-1 1-1h8c.553 0 1 .447 1 1s-.447 1-1 1z" fill="#e6e9ed"/><path d="m60 17.992h-8c-.553 0-1-.447-1-1s.447-1 1-1h8c.553 0 1 .447 1 1s-.447 1-1 1z" fill="#e6e9ed"/><path d="m60 60.997h-8c-.553 0-1-.447-1-1s.447-1 1-1h8c.553 0 1 .447 1 1s-.447 1-1 1z" fill="#e6e9ed"/><path d="m13.997 3.003h-11.994c-1.103 0-2 .897-2 2v7.996c0 1.103.897 2 2 2h11.994c1.103 0 2-.897 2-2v-7.996c0-1.103-.897-2-2-2zm-.004 9.996h-11.99v-7.996h11.994z" fill="#e6e9ed"/><path d="m61.997 3.003h-11.994c-1.103 0-2 .897-2 2v7.996c0 1.103.897 2 2 2h11.994c1.103 0 2-.897 2-2v-7.996c0-1.103-.897-2-2-2zm-.004 9.996h-11.99v-7.996h11.994z" fill="#e6e9ed"/><path d="m61.997 46.008h-11.994c-1.103 0-2 .897-2 2v7.996c0 1.103.897 2 2 2h11.994c1.103 0 2-.897 2-2v-7.996c0-1.103-.897-2-2-2zm-.004 9.996h-11.99v-7.996h11.994z" fill="#e6e9ed"/><path d="m13.997 46.008h-11.994c-1.103 0-2 .897-2 2v7.996c0 1.103.897 2 2 2h11.994c1.103 0 2-.897 2-2v-7.996c0-1.103-.897-2-2-2zm-.004 9.996h-11.99v-7.996h11.994z" fill="#e6e9ed"/><path d="m12 60.997h-8c-.553 0-1-.447-1-1s.447-1 1-1h8c.553 0 1 .447 1 1s-.447 1-1 1z" fill="#e6e9ed"/><path d="m45.994 43.995h-27.988c-.553 0-1-.447-1-1v-17.995c0-.553.447-1 1-1s1 .447 1 1v16.995h25.988v-16.995c0-.553.447-1 1-1s1 .447 1 1v17.995c0 .553-.447 1-1 1z" fill="#ffce54"/><path d="m18.006 26c-.553 0-1-.447-1-1v-3.995c0-.553.447-1 1-1s1 .447 1 1v3.995c0 .553-.447 1-1 1z" fill="#ffce54"/><path d="m25.998 22.005h-7.992c-.553 0-1-.447-1-1s.447-1 1-1h7.992c.553 0 1 .447 1 1s-.447 1-1 1z" fill="#ffce54"/><path d="m29.996 26c-.256 0-.512-.098-.707-.293l-3.998-3.995c-.391-.39-.391-1.023 0-1.414s1.023-.391 1.414 0l3.998 3.995c.391.39.391 1.023 0 1.414-.195.195-.451.293-.707.293z" fill="#ffce54"/><path d="m45.994 26h-15.998c-.553 0-1-.447-1-1s.447-1 1-1h15.998c.553 0 1 .447 1 1s-.447 1-1 1z" fill="#ffce54"/><g fill="#656d78"><path d="m8 28.997c-.553 0-1-.447-1-1v-6.994c0-.553.447-1 1-1s1 .447 1 1v6.994c0 .553-.447 1-1 1z"/><path d="m14 28.997h-6c-.553 0-1-.447-1-1s.447-1 1-1h6c.553 0 1 .447 1 1s-.447 1-1 1z"/><path d="m13 29.997c-.256 0-.512-.098-.707-.293-.391-.391-.391-1.023 0-1.414l1-1c.391-.391 1.023-.391 1.414 0s.391 1.023 0 1.414l-1 1c-.195.195-.451.293-.707.293z"/><path d="m14 28.997c-.256 0-.512-.098-.707-.293l-1-1c-.391-.391-.391-1.023 0-1.414s1.023-.391 1.414 0l1 1c.391.391.391 1.023 0 1.414-.195.195-.451.293-.707.293z"/><path d="m8 43.995c-.553 0-1-.447-1-1v-6.994c0-.553.447-1 1-1s1 .447 1 1v6.994c0 .553-.447 1-1 1z"/><path d="m14 37.001h-6c-.553 0-1-.447-1-1s.447-1 1-1h6c.553 0 1 .447 1 1s-.447 1-1 1z"/><path d="m14 37.001c-.256 0-.512-.098-.707-.293l-1-1c-.391-.391-.391-1.023 0-1.414s1.023-.391 1.414 0l1 1c.391.391.391 1.023 0 1.414-.195.195-.451.293-.707.293z"/><path d="m13 38.001c-.256 0-.512-.098-.707-.293-.391-.391-.391-1.023 0-1.414l1-1c.391-.391 1.023-.391 1.414 0s.391 1.023 0 1.414l-1 1c-.195.195-.451.293-.707.293z"/><path d="m55.994 28.997c-.553 0-1-.447-1-1v-6.994c0-.553.447-1 1-1s1 .447 1 1v6.994c0 .553-.447 1-1 1z"/><path d="m55.994 28.997h-6c-.553 0-1-.447-1-1s.447-1 1-1h6c.553 0 1 .447 1 1s-.447 1-1 1z"/><path d="m50.994 29.997c-.256 0-.512-.098-.707-.293l-1-1c-.391-.391-.391-1.023 0-1.414s1.023-.391 1.414 0l1 1c.391.391.391 1.023 0 1.414-.195.195-.451.293-.707.293z"/><path d="m49.994 28.997c-.256 0-.512-.098-.707-.293-.391-.391-.391-1.023 0-1.414l1-1c.391-.391 1.023-.391 1.414 0s.391 1.023 0 1.414l-1 1c-.195.195-.451.293-.707.293z"/><path d="m55.994 43.995c-.553 0-1-.447-1-1v-6.994c0-.553.447-1 1-1s1 .447 1 1v6.994c0 .553-.447 1-1 1z"/><path d="m55.994 37.001h-6c-.553 0-1-.447-1-1s.447-1 1-1h6c.553 0 1 .447 1 1s-.447 1-1 1z"/><path d="m49.994 37.001c-.256 0-.512-.098-.707-.293-.391-.391-.391-1.023 0-1.414l1-1c.391-.391 1.023-.391 1.414 0s.391 1.023 0 1.414l-1 1c-.195.195-.451.293-.707.293z"/><path d="m50.994 38.001c-.256 0-.512-.098-.707-.293l-1-1c-.391-.391-.391-1.023 0-1.414s1.023-.391 1.414 0l1 1c.391.391.391 1.023 0 1.414-.195.195-.451.293-.707.293z"/></g></svg>