<svg id="Layer_1" enable-background="new 0 0 131 131" height="512" viewBox="0 0 131 131" width="512" xmlns="http://www.w3.org/2000/svg"><g><g><path d="m125.2158 39.6119-.02-6.92c0-.16-.1-.32-.3-.44l-.03-.02.04-.02c.21-.1201.3101-.27.3101-.44l-.02-6.9301c0-.16-.1-.31-.3-.43l-14.52-8.44c-.4199-.25-1.0898-.24-1.5 0l-7.96 4.59v-2.16c0-.16-.1-.32-.3099-.44l-.02-.01.0399-.03c.2001-.12.3101-.27.3101-.44l-.02-6.93c0-.15-.1-.31-.3099-.43l-14.52-8.44c-.42-.25-1.08-.24-1.49 0l-14.62 8.44c-.22.12-.3201.29-.3101.45l.02 6.93c0 .15.1001.3.3.42l.03.02-.04.02c-.22.1299-.3201.29-.3101.46l.02 6.92c0 .16.1001.3101.3.4301l-.01.0099c-.22.13-.3201.3-.3101.46l.02 6.92c0 .16.1001.31.3.43l.03.02-.04.02c-.22.13-.3201.29-.3101.45l.02 6.93c0 .15.1001.31.3.42l8.52 4.96-23.04 13.31-.02-4.67c.86-.99 1.46-2.35 1.46-3.54l-.01-2.96-.03-31.12c0-.81-.2899-1.39-.7599-1.66l-.01-.01-3.14-1.82c-.47-.28-1.12-.23-1.85.19l-42.7201 24.65c-1.4199.84-2.5999 2.86-2.5999 4.51l.0699 31.12.0199 2.96c0 .82.28 1.4.77 1.7l2.3501 1.34.77.45c-.1501-.09-.28-.2-.3701-.35.4601.6 1.29.7 2.24.15l4.75-2.75v6.35c0 .11.0601.22.1501.27l29.1899 16.96v.76l-17.63 10.18c-.03.02-.0699.05-.09.08l-.0901.12c-.08.11-.08.26 0 .37l.0801.11c.03.04.0599.07.1.09l17.1999 9.99c.02.02.05.03.08.04l.2001.05c.03 0 .0499.01.08.01.02 0 .05-.01.0701-.01l.2-.05c.03-.01.0601-.02.0801-.03l9.2-5.31 20.21 11.63 40.7-23.66.01-2.04-27.9399-16.07.0701-22.1 11.5599-6.68 8.9701 5.21c.4099.2401 1.0798.2401 1.5 0l14.6199-8.44c.21-.12.3101-.27.3101-.44l-.02-6.93c0-.15-.1-.31-.3-.43l-.03-.02.04-.02c.21-.12.3101-.28.3101-.45l-.02-6.92c0-.16-.1-.32-.3-.44l.01-.01c.2096-.1199.3097-.2799.3097-.4499zm-116.22 39.57v-.44l.01.41c0 .11.01.21.03.31-.0099-.09-.0299-.18-.04-.28zm16.86 1.54c.46.35 1.0599.59 1.72.72-.66-.12-1.27-.35-1.73-.7l-4.0599-4.42zm19.88 41.89-.0801.03-16.98-9.84 17.05-9.85-.03 9.45 8.88 5.11zm30.49-58.87-30.4399 17.69-.05 19.33-28.73-16.7v-6.53l2.74-1.58 6.1 6.62c1.39 1.02 4.0199 1.13 5.63.21l16.75-9.67c.73-.44 1.09-.98 1.09-1.57v-1.82c0 .19-.0399.37-.14.56.37-.81-.08-1.71-1.3-2.27l-8.7799-2.74v-.4901l11.62-6.71.03 9.68c0 .11.0599.21.1499.26.1001.06.22.06.3201 0l25.01-14.43v10.1601zm12.0301 1.17.02-6.11-1.78-1.02-9.65 5.6v-10.34c0-.11-.0599-.22-.16-.27-.09-.06-.21-.06-.3101 0l-25.01 14.44-.0299-9.4901 2.96-1.72c.1801-.1.36-.22.53-.36l.02 4.59c0 .11.0599.22.16.27.0399.03.1.04.1499.04.05 0 .1101-.01.16-.04l23.8099-13.75 5.3801 3.13c.4099.23 1.0699.23 1.5 0l7.96-4.6v2.17c0 .15.1.31.3101.43l.0299.01-.0399.03c-.23.13-.3301.29-.3201.45l.02 6.93c0 .15.1.3.3101.42l4.9199 2.87z" fill="#5b5e71"/><g><g><g><g><g><path d="m55.1572 60.5446c-.0534 0-.1068-.0134-.1542-.0413-.0971-.0546-.1566-.1566-.1566-.2683l-.0376-7.2271c-.0012-.1711.1372-.3107.3095-.312h.0012c.1711 0 .3095.1384.3107.3095l.0352 6.6918 25.6906-14.8376c.1432-.0838.3362-.0364.4248.1141.085.1481.034.3387-.1141.4248l-26.1542 15.1048c-.0485.0279-.1019.0413-.1553.0413z" fill="#5b5e71"/></g></g></g><g><g><g><path d="m76.535 72.3477c-.1068 0-.2112-.0558-.2695-.1554-.085-.1481-.034-.3387.1141-.4248l25.2559-14.5853c.1432-.0838.3362-.0364.4248.1141.085.1481.034.3387-.1141.4248l-25.2559 14.5854c-.0485.0279-.1019.0412-.1553.0412z" fill="#5b5e71"/></g></g></g></g><g><g><g><g><path d="m76.535 72.2919c-.1712 0-.3107-.1396-.3107-.3107v-18.404l-25.0133 14.4384c-.0971.0558-.2136.0558-.3107 0-.0959-.0558-.1554-.1578-.1554-.2683l-.0376-11.2388c0-.1724.1384-.312.3095-.312h.0012c.1712 0 .3107.1384.3107.3095l.0364 10.7035 25.0145-14.4395c.0971-.0558.2136-.0558.3107 0 .0959.0558.1554.159.1554.2695v18.9417c0 .1711-.1396.3107-.3107.3107z" fill="#5b5e71"/></g></g></g></g><g><g><g><g><path d="m45.6521 123.2683c-.0255 0-.0498-.0024-.074-.0085l-.2015-.0498c-.0291-.0073-.0571-.0182-.0825-.034l-17.1986-9.9946c-.0364-.0206-.0692-.051-.0947-.085l-.085-.1165c-.0801-.1105-.0789-.2585.0012-.3678l.0862-.1165c.0255-.034.0583-.0631.0947-.085l18.285-10.5566-29.843-17.3418c-.0947-.0546-.1542-.1578-.1542-.2683v-7.0996c0-.1712.1396-.3107.3107-.3107s.3107.1396.3107.3107v6.9212l30.1525 17.5215c.0959.0558.1542.1578.1542.2682 0 .1117-.0595.2136-.1554.2695l-18.4864 10.6732 16.9801 9.8392.0825-.0206 18.9125-10.9195c.1432-.085.3362-.0364.4248.1141.085.1481.034.3387-.1141.4248l-18.9501 10.9414c-.0255.0146-.0522.0255-.0801.0316l-.2003.0498c-.0254.006-.0497.0096-.0752.0096z" fill="#5b5e71"/></g></g></g></g><g><g><g><g><g><g><path d="m49.3186 69.7187v1.8267c0 .5839-.3649 1.1314-1.0949 1.5694l-16.7526 9.6718c-1.6059.9124-4.2336.8031-5.6206-.219l-10.0003-10.8397v-1.8633l10.0004 10.8763c1.3504 1.022 3.9784 1.0949 5.584.1824l16.7526-9.6718c.7665-.4379 1.1314-.9855 1.1314-1.5328z" fill="#525566"/></g></g></g><g><g><g><path d="m15.8345 69.8792 10.0195 10.8439c1.3646 1.0359 3.9886 1.1301 5.5965.2018l16.7546-9.6733c1.5846-.9149 1.4306-2.4351-.3301-3.2423l-18.7113-5.8256z" fill="#5b5e71"/></g></g></g></g><g><g><g><g><g><g><path d="m30.1944 66.6351-3.5473-2.0614 8.8864-5.1305 3.5472 2.0614z" fill="#4e5161"/></g></g></g></g></g><g><g><g><g><g><path d="m30.2299 77.2968-2.6495-1.5397-.0356-10.6617 2.6496 1.5397z" fill="#bac1ce"/></g></g></g></g></g><g><g><g><g><g><path d="m39.0807 61.5046.0355 10.6617-8.8863 5.1305-.0355-10.6617z" fill="#cad0dd"/></g></g></g></g></g><g><g><g><g><g><path d="m22.1618 71.1388 15.2717-8.8749 2.7304 1.7957-15.2717 8.875z" fill="#eaf0f6"/></g></g></g></g></g><g><g><g><g><g><path d="m56.1137 15.7523c-.4489-.2432-1.2167-.2214-1.9275.2088l-42.6607 24.6284c-1.4402.823-2.6186 2.8619-2.6186 4.5079l.0935 31.1061v2.9741c.0187.823.2992 1.4029.7668 1.6648l-.7668-.4489-2.3559-1.343c-.4863-.2992-.7668-.8791-.7668-1.7021l-.0187-2.9554-.0748-31.1249c0-1.646 1.1784-3.6661 2.5999-4.5078l42.722-24.653c.7295-.4116 1.3841-.4676 1.8518-.1871z" fill="#5b5e71"/></g></g></g></g></g><g><g><g><g><g><path d="m56.8941 48.5273-47.8937 27.6763-.0935-31.1061c0-1.646 1.1784-3.6662 2.6186-4.5079l42.722-24.653c1.4403-.8417 2.6186-.1684 2.6186 1.4776z" fill="#3f434f"/></g></g></g></g></g><g><g><g><g><g><path d="m55.1804 47.0973-44.48 25.6985-.0856-27.7018c0-1.0272.856-2.4996 1.7805-3.0303l42.7509-24.6713z" fill="#e4e8f4"/></g></g></g></g></g><g><g><g><g><g><path d="m56.8941 48.5273.0084 2.9673c.0047 1.6595-1.161 3.6785-2.6052 4.5123l-42.6657 24.633c-1.452.8383-2.6253.1698-2.63-1.4897l-.0084-2.9673z" fill="#e4e8f4"/></g></g></g></g></g><g><g><g><g><g><path d="m33.9852 64.5826c0 .7227-.5059 1.5718-1.1202 1.9332s-1.1202.0723-1.1202-.6323c0-.7227.4877-1.5899 1.1202-1.9513.6143-.3433 1.1202-.0542 1.1202.6504z" fill="#bac1ce"/></g></g></g></g></g></g></g></g><g><g><g><g><g><path d="m47.6346 42.7996c.1237.0455.2401.0952.3638.1491.1216-.1414.2584-.2537.3991-.3349.404-.2332.8406-.211 1.0464.1099.073.0998.2039.1328.3567.2366-.1525.0463-.2613.1174-.3267.0968-.1336-.0379-.2485-.1009-.3914-.0185-.0749.0433-.1576.1265-.2547.2746-.0158.0251-.054.0581-.1017.0857-.1269.0732-.3219.1084-.349-.1428-.0148-.1-.1892-.1079-.3055-.0992-.2179.0256-.4719.1305-.437-.3573z" fill="#cad0dd"/></g></g></g></g><g><g><g><g><path d="m46.1184 43.7167c.1379-.0462.2468-.0841.3557-.1302.0004.1334.0008.2835.0013.4669l-.1889.0088-.0864.2754-.0799.0294c-.0005-.2168-.0012-.4335-.0018-.6503z" fill="#cad0dd"/></g></g></g></g><g><g><g><g><path d="m45.7827 43.2174c.4074.1573.0963.6625-.0334 1.038-.0519.1472-.1181.2247-.1887.2654-.1256.0725-.2651.0286-.3627.0529-.1525.0296-.2404-.2036-.357-.32l.094-.1545c.1043-.0079.1987-.0386.2847-.0882.2433-.1403.4192-.4328.5631-.7936z" fill="#cad0dd"/></g></g></g></g><g><g><g><g><path d="m49.1166 47.789c.1814-.0797.2976-.1301.4863-.2139-.0866.2253-.1442.3922-.2596.701-.0951-.2123-.1535-.3289-.2267-.4871z" fill="#cad0dd"/></g></g></g></g><g><g><g><g><path d="m48.8649 43.584c.1457.1329.3203.1825.3571.3533.1103.4707.503.553.7436.8399.2625.3077.2928.7495.0256 1.3463-.0794.1878-.1951.4049-.2163.5842-.0306.3222-.2533.5538-.4064.6422-.0232.0134-.0449.0235-.064.0302-.2613.0924-.6454.4812-.7846.0772-.0513-.1374-.1895-.1996-.2915-.291l-.1665.2297c-.1556-.2495-.3444-.2583-.5614-.133-.2209.1275-.471.3939-.745.687-.2681.2883-.5288.5975-.8042.8567-.0046.0046-.0098.0085-.0155.0118-.0669.0386-.2048-.0095-.2318-.0862-.0878-.1999-.1176-.4665-.1981-.6706-.2342-.5912-.1407-.9374.3957-1.3975.3914-.3429.499-.8475.7959-1.2277.1448-.1838.3043-.326.4857-.4307.1053-.3731.2731-.5516.4671-.6636.1639-.0946.3465-.1418.526-.2187-.0431.1669-.0718.292-.115.4505.1962.0037.3779.0156.6105.0233.0714-.3669.1287-.6589.1931-1.0133z" fill="#cad0dd"/></g></g></g></g><g><g><g><g><path d="m36.6162 49.8291c-.0139.2335.0012.4085-.0347.5879-.0644.3545-.1579.709-.2223 1.0552-.0407.1996-.1052.4184-.2367.4943-.0306.0177-.0649.0276-.1034.0278-.109-.0039-.1461-.258-.1684-.4372-.0222-.1458.0281-.3419.0566-.5254.0143-.0918.0212-.2126.0718-.292.1811-.2716.3838-.5473.6371-.9106z" fill="#cad0dd"/></g></g></g></g><g><g><g><g><path d="m47.4172 35.3348c.109.0038.2399.0201.4506.032-.2246.2215-.3913.3846-.4638.4598-.0571.3753-.0925.7047-.1569 1.0425l-.1519.2631c-.2754.2675-.5581.5142-.8262.7859-.0725.0752-.1083.2379-.1877.4257-.1244-.2873-.0379-.5543.2665-.8386.4784-.4348.9132-.8612.824-1.5695-.0221-.1208.1516-.3881.2454-.6009z" fill="#cad0dd"/></g></g></g></g><g><g><g><g><path d="m44.4587 42.6876c.0727.0165.1527.0371.2836.0784-.3766.4596-.6807.8356-.9921 1.2158l-.0729-.0915c.2532-.3883.5064-.7851.7814-1.2027z" fill="#cad0dd"/></g></g></g></g><g><g><g><g><path d="m43.2939 44.5041c.581-.135.8583.2894 1.3018.3506-.0713.4754.016.5335.4079.349.1814-.088.3484-.126.5155-.1473-.0932.0845-.1916.1559-.2924.214-.4477.2585-.9417.2552-1.2331-.0264-.2259-.2202-.4374-.4655-.6997-.7399z" fill="#cad0dd"/></g></g></g></g><g><g><g><g><path d="m38.7284 33.596.0439.0916c-.1522.1547-.3043.3177-.4638.4515-.3407.2969-.6377.6354-.8834 1.1029-.1735.334-.2963.5886-.027.7171l-.0868.1253c-.1816.013-.356.0218-.5376.0432.3816-1.2142 1.0989-1.9623 1.9547-2.5316z" fill="#cad0dd"/></g></g></g></g><g><g><g><g><path d="m29.8645 43.6907c.0302-.0174.0633-.034.0996-.0495.0503.4845-.0078.6229-.3987.8486-.0159.0092-.0323.0185-.0493.028.0324-.3105.0035-.6279.3484-.8271z" fill="#cad0dd"/></g></g></g></g><g><g><g><g><path d="m30.1798 42.8486c.2332.2494.4737.478.678.7609.0292.0333-.0792.2545-.1442.3922l-.1305.0921c-.1523.1129-.3045.2343-.5003.3807.0719-.2836.1365-.5464.2084-.8301-.3495-.1991-.3717-.3366-.1114-.7958z" fill="#cad0dd"/></g></g></g></g><g enable-background="new"><g><g><g><g><path d="m33.1257 36.1711-.0073-.0042.0019-.0009z" fill="#cad0dd"/></g></g></g></g><g><g><g><g><path d="m33.1184 36.1669.0073.0042-.0091-.0002z" fill="#cad0dd"/></g></g></g></g><g><g><g><g><path d="m31.9283 36.7205c.1713-.1216.3351-.2337.4925-.3246.2457-.1418.4759-.2317.6958-.2249-.1511.3284-.3022.657-.482 1.0519-.2403-.1702-.4588-.3197-.7063-.5024z" fill="#cad0dd"/></g></g></g></g></g><g><g><g><g><path d="m28.0401 42.4469c.0759.0366.1588.013.2469-.0379.0683-.0394.1397-.0951.2125-.1518.0702-.054.1419-.1089.2135-.1502.1502-.0867.2996-.1137.433.0525-.2561.2515-.4789.5448-.6944.6692-.0101.0058-.0202.0113-.0303.0164-.1959.0964-.3779-.0239-.6179-.0608.1182-.1724.2163-.3256.2367-.3374z" fill="#cad0dd"/></g></g></g></g><g><g><g><g><path d="m52.5192 45.8162.0947.0789c-.1589.3423-.296.6969-.4912 1.0268-.026.042-.0672.0745-.1156.1024-.0861.0497-.1952.0853-.2834.1363.2529-.4884.4769-.96.7955-1.3444z" fill="#cad0dd"/></g></g></g></g><g><g><g><g><path d="m33.2562 35.7095c.1747-.1008.393-.1854.5943-.2074-.1518.2943-.3366.448-.5329.5613-.0648.0374-.1308.0704-.1973.1026-.057-.0562-.1207-.1088-.1913-.1652.0352-.0854.1615-.1956.3272-.2913z" fill="#cad0dd"/></g></g></g></g><g><g><g><g><path d="m45.6112 41.6549c-.0646.2711-.1005.4254-.1508.6382-.1455-.058-.2473-.091-.3782-.1323.1594-.1507.2971-.2802.529-.5059z" fill="#cad0dd"/></g></g></g></g><g><g><g><g><path d="m45.02 40.7436c.0005.1584.0009.3168.0014.5085.0654.004.1454.0246.2326.0327-.1232.1212-.2319.2257-.3696.3554-.008-.2542-.0233-.5126-.0385-.771z" fill="#cad0dd"/></g></g></g></g><g><g><g><g><path d="m51.1904 28.2464c.6385-.3435.8207-.1565.6486.636-.0288.1168-.1301.2421-.2096.3882.0293.0749.0876.1582.1096.2123-.3115.3468-.5939.702-.8983.9946-.2101.2132-.4495.3514-.6816.5355-.261.2008-.4131.4055-.3322.7179.0294.1249-.028.3836-.1293.5422-.1807.3298-.4052.6264-.5933.902-.2337-.3912-.1909-.6997.2577-1.3763.2315-.3675.4411-.7474.6581-1.1231l-.0946-.0372-.1591.2839-.1882.2756c-.1169-.0526-.2206-.053-.32.0044-.1357.0783-.2633.2644-.405.5728-.065.1378-.2026.3257-.3041.3844-.312.1801-.6241.2852-.9434.4695-.1088.0628-.2318.2424-.3259.3802-.2243.3466-.4413.689-.7234 1.1441.3413-.0969.6317-.181 1.002-.2862-.0208.3627-.0341.7795-.0475 1.1964l-.1378.0796-.0026-.917-.0871.0336c-.043.2002-.0424.4169-.1218.6047-.1732.409-.3973.8306-.5996 1.2313l-.0796.1128c-.0393.0143-.0758.0314-.1099.0511-.3367.1944-.4328.6343-.643.9681.2845.4035.2703.5119-.143.8257-.0417-.5051-.1372-.6647-.3733-.5284-.062.0358-.1335.0919-.2164.1675-.0002-.075-.0077-.1376-.0153-.25-.152.213-.275.3842-.4705.6557.2178-.0506.3703-.0886.5446-.1308-.1013.167-.2026.3174-.2966.4718.0804.1707.2044.3162.2267.5204.0665.3791-.309 1.2388-.6713 1.59-.2826.2717-.6091.4769-.6513.9605l-.0652.0711-.0653.0294-.0011-.4002c-.1376.1546-.268.305-.3549.4136.1462.2997.3285.5118.3584.8285.0149.1417-.2602.4842-.3904.718-.211-.1037-.4075-.1823-.6112-.2733-.1875.5007-.107.713.1405.8457.1383.0788.2043.2995.2992.4452l-.0868.1336c-.0872-.0248-.2253.0049-.2473-.0827-.1099-.3206-.4373-.4322-.3443-.9786.0357-.221-.081-.3874-.1325-.6082-.1087.1045-.2174.2007-.2464.2341-.1532-.2288-.2919-.4243-.4305-.6282-.5875.3976-.8688 1.1279-1.2887 1.6959-.0507.0793-.0139.2168-.0499.3377-.0718.2837-.1582.5757-.2373.8719l-.1597.0671c-.1903-.4747-.3661-.9577-.5271-1.3824-.1454-.0413-.2836-.0617-.4-.1197-.1769-.1008-.3301-.1747-.5916-.0237-.029.0168-.0594.0363-.0913.0589-.2851.1674-.5207.1703-.7623.2481l-.2177.109c-.1599.0004-.3125-.0117-.4652-.0404-.08-.0123-.16-.0496-.32-.0991.1013.5271.3345.6899.5927.5408.0989-.0571.2015-.16.3018-.3058.16.0579.3128.1283.4874.1862-.4476 1.0516-1.1141 1.7621-1.8609 2.3687-.1125.2675-.0784.3626.0883.2663.0258-.0149.0547-.0344.0867-.0584.2103-.1548.4133-.3221.6743-.5396-.0999.6422-.3236 1.2056-.6853 1.7651-.1375.213-.2604.4259-.3834.6222-.3544.5804-.4476 1.0266-.2067 1.4136.168.2954.031.7002-.2947 1.1388-.2172.2924-.4489.5848-.2809.8719l-.0211.2293c-.3262.3053-.2598.6511-.3969.9724-.3248.772-.7885 1.2652-1.3544 1.6003-.0871.0503-.218.0006-.2618-.0826-.1168-.1747-.1973-.3871-.2851-.5953-.0512-.1207-.0806-.254-.1319-.3747-.066-.2041-.0958-.4541-.2197-.5913-.1822-.1954-.1613-.4997-.0387-.846.2452-.6509.0626-.9714-.1851-1.2208-.153-.1455-.2624-.266-.1689-.6207.0661-.2843.0155-.4304-.2253-.2913-.0206.0119-.0426.0259-.0661.0421l-.2034.0089c-.1068.0079-.2137-.0122-.3147.0461-.382.2726-.73.5654-1.078.8248-.0328.0251-.0641.0461-.0942.0635-.2962.171-.4701-.009-.6616-.103-.131-.0663-.2258-.1869-.3278-.2867l-.1092-.0789c-.0229-.3959-.1185-.7916-.0252-1.2129s.3899-.8932.6066-1.3439c.0578-.1252.1446-.2505.2024-.3757.1083-.2545.202-.5091.3103-.7553s.2674-.5051-.0594-.45c-.0944.0294-.182-.1037-.1895-.2163-.0006-.2167.0495-.4711.0778-.7463.0954-.0551.1931-.106.2905-.1623.073-.0422.1459-.0873.2174-.1393.1233-.0879.3262-.2802.3333-.3511.0141-.1584-.0589-.2832-.1319-.3748l-.189-.0328c.4923-.6433.9774-1.2825 1.5059-1.9717.0575-.2002-.2192-.3995.2303-.7926-.0212.196-.0425.3753-.0709.6255.1452-.0504.334-.0843.5082-.1848.2176-.134.4278-.3221.638-.5103l.1446-.2672c-.0104-.2194.0488-.3573.1756-.4305.0611-.0353.1378-.0555.2299-.0625-.044-.1416-.0733-.2249-.11-.3456.203-.159.406-.3346.5945-.4935l-.0221-.0958c-.1287.0977-.2637.2282-.3992.3064-.1447.0744-.3407.1375-.3773.0667-.0512-.1207-.0373-.3459.0348-.5295.0793-.2128.2386-.4133.3541-.7054-.0739.0427-.1625.0702-.234.1115-.0408.0236-.0761.0516-.0997.0895-.188.3257-.3832.6722-.5203 1.0102-.0577.1419.0444.3.0741.5083-.222.3443-.2227.9755-.6575 1.2265-.1099-.2074-.1469-.4281-.1984-.6656-.1014.1086-.1449.1588-.1811.1881-.1123.0778-.2419.2056-.3453.2653-.0301.0174-.058.029-.0826.0319-.1308.017-.089-.6167.005-.7878.4195-.6848.8172-1.3903 1.2586-2.071.3716-.572.8026-1.0497 1.2871-1.3295.0249-.0144.05-.0283.0752-.0416.1379-.0713.2689.0118.407.0072.2979-.03.6029-.0976.9008-.1109.0872-.0002.1383.0955.2039.1495-.0941.1211-.1954.2965-.2897.3509-.2157.1269-.3782.155-.588.2309.1168.1664.2261.2953.3282.42l.1087-.1212c-.0147-.0583-.0439-.0999-.0732-.1832.1162-.017.2128-.049.2178-.0506.2389-.3133.4272-.5556.6154-.7979.0287-.1168.0646-.2795.1077-.4547l.1306-.0587c.0003.1001-.0139.2168-.0278.4503.5208-.8351 1.1231-1.1411 1.7035-1.4929.068-.2136.1022-.321.214-.3855.1131-.0653.3056-.0867.6929-.1298-.0079-.2042-.0811-.4291-.0164-.6668.0636-.2149.1781-.4683.3675-.5776.068-.0392.1456-.0599.2339-.0536-.2382.5801.344.8535-.2425 1.6096l.0801.0373c.123-.1879.3113-.4052.3399-.5637.023-.2233.0798-.3232.1547-.3664-.0613-.0382-.1776-.0462-.207-.1378-.0658-.1457.0496-.4628.078-.688l.0943-.0461c.0221.0875.0442.1916.0883.4.0935-.3379.2093-.4925.3399-.5679s.2759-.0717.4285-.0929c-.1094-.1206-.1822-.1954-.3134-.3284.3264-.2218.5802-.3934.7253-.4939.1374-.263.2021-.4925.3108-.5886.29-.2592.6091-.4602.9063-.7153.1885-.159.3841-.3554.5434-.581.1149-.1458.2122-.2983.3256-.3638.0653-.0377.1359-.0465.2183-.0087.0946.0539.2905-.0675.4357-.1096.1089-.0295.2323-.1007.334-.1093.2035.0078.2112.162.023.4042-.1882.2423-.3838.4721-.5793.7186.3119-.1968.602-.406.8849-.5693.1451-.0755.2905-.0592.4356-.1346.1814-.1047.3771-.2678.573-.3893.058-.0363.1153-.0702.1752-.1048.1198-.0692.2505-.1409.4197-.2387-.0939.1962-.1373.2714-.1951.3882.131.058.2691.1035.4001.1615l.007-.0959c.2321-.1591.4715-.2973.7108-.4855.1233-.0963.2391-.2466.3623-.3762.0767-.0925.1601-.2431.2245-.2803.334-.1089.6608-.1807.9875-.2691.1888-.0589.3631-.0761.5518-.1683.0686-.0359.0992-.0573.1234-.0712.2246-.1297.4051-.2264.5086-.0181l.2034-.0423c.3265-.1635.6458-.3311 1.0086-.5072.0011-.0048.0215-.0959.0357-.2127.1445-.0584.2896-.1255.442-.2052zm-16.8043 16.7662c.0241-.0114.0473-.0236.0698-.0366.3568-.206.5084-.6005.3707-.9608-.1585.1258-.2877.2199-.3967.2827-.3147.1817-.4597.1031-.6496-.2215l-.1963-.0203c-.0505.1294-.101.2587-.1442.3922-.0287.1251-.0429.2502-.0571.367l-.1016.0503c-.1314-.2164-.2122-.5038-.4015-.6366-.1675-.1371-.4363-.1155-.6618-.1691l-.0939.1962c.2328.0994.4584.2113.6912.3023-.2783.5274-.3686.6984-.4562.749-.042.0243-.0835.0207-.1448.0155.1231-.1546.2317-.2925.3404-.4137-.0874-.0665-.182-.1287-.2839-.1701-.0801-.0456-.2035-.0244-.2764-.0826-.0813-.0649-.1346-.183-.258-.1117-.0424.0245-.0932.0713-.1561.1504-.1448.1922-.3698.2803-.4783.4682-.188.3173-.3033.6761-.4768 1.0018-.0795.1628-.2245.2966-.3476.4428l-.1738.2089c.0935-.0028.1814-.0338.2655-.0824.0532-.0307.1048-.0684.1554-.1105.3553-.2719.696-.5772 1.0514-.8241.0774-.0539.1413-.0963.1935-.1265.2318-.1338.2346-.0263.1706.3923.3415-.0218.683-.0353 1.0245-.0571l-.0149-.1251c.1236-.1426.2535-.3564.378-.4282.0068-.0039.0136-.0075.0204-.0106.3412-.18.6898-.2727 1.0381-.4321m1.502 1.7548v-.0083c-.3064-.4326-.5984-.8903-.9049-1.323-.0584-.0832-.1529-.0955-.2329-.1494l-.094.1545c.241.412.4603.8699.7375 1.2526.0656.0874.2182.0744.3635.0657zm-1.7762-3.6506c-.0504.1627-.0645.3211-.0931.488.1451-.0755.2831-.1217.4282-.1972.1959-.1047.3773-.2011.5732-.3142.1814-.0964.37-.2053.5732-.3226-.081-.3874-.6178-.0358-.4164-.7533-.1737.2339-.2752.3426-.3547.472l-.0358.2044-.1962.0131c-.0727-.0165-.1165-.0831-.1966-.1537-.1084.2129-.2169.3841-.2818.5635m2.6304-.2783c.0755-.0436.1733-.1218.2966-.2343-.0224-.2125-.0376-.4292-.0528-.6792-.0874-.0665-.2185-.1578-.3641-.2575.1375-.1963.2316-.3257.3691-.522-.0971-.0088-.1843.0154-.2625.0606-.1735.1001-.3026.3035-.3972.479-.0651.121.03.325.074.475.0294.1166.1531.1788.1389.2956-.0463.372-.0016.4981.198.3828" fill="#cad0dd"/></g></g></g></g><g><g><g><g><path d="m21.2 43.5574.0072.0041-.001.0004z" fill="#cad0dd"/></g></g></g></g><g><g><g><g><path d="m19.0511 46.8772c.233.1744.4588.353.7428.5648-.1087.1045-.2463.2591-.3914.3762-.1327.1011-.2732.1977-.413.2784-.0512.0296-.1022.057-.1528.0817-.312.1551-.6242.2685-.9363.3986l-.0004-.1667c.1595-.1171.3191-.226.4787-.3432l-.0074-.0458c-.1669.0963-.3337.1927-.4933.2848-.0585-.1166-.1023-.2082-.1535-.3206.0629-.1008.1326-.221.209-.3382.0526-.035.1048-.0674.1564-.0972.3083-.178.5989-.2673.8897-.3143-.0001-.0417-.0149-.1334-.0225-.2292z" fill="#cad0dd"/></g></g></g></g><g><g><g><g><path d="m20.168 46.0821.0728.0331c-.13.2672.3059.2576-.0492.5879-.0177.0161-.0363.0295-.0557.0407-.1478.0853-.345.0455-.5761.0903.2678-.33.4416-.5389.6082-.752z" fill="#cad0dd"/></g></g></g></g><g enable-background="new"><g><g><g><g><path d="m21.5512 47.316c.2304-.0087.4608-.0094.684-.0059l-.0288.1001c-.2249.1298-.4571.2639-.682.3937.0135-.1836.0203-.3328.0268-.4879z" fill="#cad0dd"/></g></g></g></g><g><g><g><g><path d="m21.5521 47.2954c-.0001.0018-.0002.0036-.0002.0054-.0002.0051-.0004.0102-.0007.0153-.0021.0001-.0042.0001-.0063.0002z" fill="#cad0dd"/></g></g></g></g><g><g><g><g><path d="m20.9732 45.5838.073.1165c-.152.213-.3113.4302-.5356.7435-.0151-.1834-.0665-.3708-.0302-.4084.152-.1796.3261-.3052.4928-.4516z" fill="#cad0dd"/></g></g></g></g><g><g><g><g><path d="m20.8189 45.0049.2106-.0631c.0999.1282.2231.1042.3576.0266.1012-.0584.2087-.1471.3177-.2243.043-.0325.0863-.0612.13-.0864.1479-.0854.2992-.1302.4507-.1403-.2013.2871-.419.4572-.6391.5843-.1993.1151-.4007.1949-.5938.2945-.1161.0586-.2184-.1328-.3203-.2159z" fill="#cad0dd"/></g></g></g></g><g><g><g><g><path d="m21.2072 43.5615-.0072-.0041.001-.0015z" fill="#cad0dd"/></g></g></g></g><g><g><g><g><path d="m28.1894 40.5491c.3419.1199.3501.4575-.0045.9795-.1085.1629-.239.305-.3548.4554-.0724.1002-.1883.234-.1953.3132-.0352.3878-.2888.6427-.506.9435-.1231.1629-.2096.4049-.2526.6051-.0789.3462-.1071.688-.1788 1.03l-.2316.3091c-.5591.1725-1.1037.3115-1.3017-.3173-.0366-.0958-.1747-.1162-.1895-.2162-.0152-.225-.0958-.4541.2013-.7509l.1227-.288c-.1596.0922-.2902.1675-.428.2471l.0139-.2252c.0942-.1128.2102-.2048.4059-.3846-.1888.0422-.3195.0759-.3994.097-.0879-.2499-.1396-.5456-.2782-.7245-.0875-.1081-.3055-.0908-.4797-.032-.2105.0714-.4932.3348-.3203-.2075.0216-.0626-.0585-.1165-.1023-.1998.2247-.2049.4204-.3847.6596-.5979-.0659-.1665-.1604-.1726-.2647-.1124s-.2184.1867-.3235.2849c.0581-.0251.1234-.0462.2178-.084l-.094.1545c-.3115.3552-.6157.7145-.9344 1.0739-.0869.0919-.1886.1339-.1227.288.0147.0416-.1519.263-.2241.4049-.0723.1419-.1373.288-.2095.4299l.0801.0623c-.4281.2471-.8488.4901-1.3422.7749.1084-.2296.1733-.3756.2528-.5551.109-.0128.2252-.0382.3341-.051l.0289-.0584c-.0946-.0373-.1891-.0745-.3347-.1408.1668-.1297.2828-.2218.4278-.3388-.1091-.0456-.211-.0953-.3056-.1409.29-.2342.5655-.4518.8338-.6734l-.0147-.0666c-.1459.0898-.3307.2547-.474.3374-.0705.0407-.1309.0615-.1717.0437-.0979-.0348-.1777-.0254-.2497.0162-.0988.057-.1828.1746-.2788.3214-.0712-.0644-.15-.1262-.2633-.2312.2248-.1632.4134-.2888.6019-.4393.581-.4757 1.1579-.9587 1.7503-1.3007.1837-.1061.3688-.1985.5562-.2731l.0726-.0336c.1288.0202.2538-.0172.3764-.088.2996-.173.5851-.5449.8784-.7617.1668-.1213.3114-.3635.4708-.5474.2422-.2835.3787-.4372.5011-.5079.1338-.0773.2509-.0553.4712.005.1377-.2088.2102-.3211.2597-.3497.0623-.036.0881.0609.1616.2652.0873.2405.126.5794.5121.3565.0349-.0202.0727-.0449.1137-.0748-.094.1712-.1446.2672-.1952.3632.3775-.1428.5013-.0222.5389.407.0072.1044.1019.1666.1819.2039z" fill="#cad0dd"/></g></g></g></g><g><g><g><g><path d="m21.2062 43.5619c.1072.0777.2157.1639.3943.282-.2365.2102-.4503.4592-.637.567-.025.0144-.0495.0264-.0735.0353-.1887.0755-.349-.0657-.5381-.1152l.1445-.3005c.0673-.1948.1404-.3412.2386-.3979.0596-.0344.1284-.0359.2108.0048.0653.0205.1734-.05.2604-.0755z" fill="#cad0dd"/></g></g></g></g></g><g><g><g><g><path d="m17.927 47.6515c.0003-.0006.0007-.0014.0007-.0014.0049-.0056.0094-.0104.0138-.0153z" fill="#cad0dd"/></g></g></g></g><g><g><g><g><path d="m17.927 47.6515.0144-.0167-.008.0126z" fill="#cad0dd"/></g></g></g></g><g><g><g><g><path d="m18.0249 46.3091c-.0552.2777-.2284.5251-.4497.6528-.0944.0545-.1975.0872-.304.0913.2392-.2383.4783-.4683.7537-.7441z" fill="#cad0dd"/></g></g></g></g><g><g><g><g><path d="m18.7584 46.1444c.1889-.0005.3416.0032.5232-.0014l-.0938.2295c-.2537.2216-.5147.4225-.7758.6149-.0161.0097-.0379-.0819-.0731-.1582-.1016.0586-.2539.1466-.4208.2429.0875-.2905.1867-.4219.2909-.4821.0844-.0487.1721-.0508.2598-.0529.0833-.0002.1714-.0089.2603-.0603.0197-.0114.0394-.0248.0591-.0407-.0147-.0833-.0222-.1708-.0298-.2917z" fill="#cad0dd"/></g></g></g></g><g><g><g><g><path d="m17.8826 47.3932c.2024-.0753.1316.09.0454.2562-.1069.116-.2429.2292-.3053.3614-.1151.2394-.2304.4012-.3525.4717-.1078.0622-.2209.0533-.3439-.0363.0503-.2043.1006-.4255.1724-.7175.2468-.1089.5226-.243.7839-.3355z" fill="#cad0dd"/></g></g></g></g><g><g><g><g><path d="m19.3437 44.9715c.2689-.0049.4869-.0055.7121-.002l-.0722.1669c-.1815.0547-.3703.1219-.5663.185-.0148-.0916-.0368-.1791-.0736-.3499z" fill="#cad0dd"/></g></g></g></g><g><g><g><g><path d="m22.0832 54.3317c.2923-.1688.529-.0608.7966-.104l-.0287.1251c-.3341.0676-.6682.1269-1.0241.1904.0908-.0975.1756-.165.2562-.2115z" fill="#cad0dd"/></g></g></g></g><g><g><g><g><path d="m20.0323 45.4781c.039-.0225.0707-.0323.0903-.021.1617.0921.1058.3099-.1164.4383-.0178.0103-.0367.0201-.0566.0291-.0943.0461-.1745-.0329-.2618-.0493l-.0366-.0958c.1165-.0857.2755-.2404.3811-.3013z" fill="#cad0dd"/></g></g></g></g><g><g><g><g><path d="m21.5611 45.3446c-.0068.1709-.0136.3251-.0206.4127.1592-.2339.2893-.4677.456-.6224.0643-.039.1887.0992.313.17.0922-.1475.1773-.2331.2586-.2801.2569-.1483.4749.0898.7506-.0187.0799-.0294.1525-.0379.218-.0173.1527.0287.4069-.0262.132.4165.2834.0034.5377-.0015.8866-.0025-.1447.2088-.2533.3633-.3691.5304-.1236-.0289-.2472-.0494-.3636-.0823l-.0724.1086c.1312.1413.2551.2785.3791.4241l-.0723.1252c-.1017.0253-.2034.0423-.3268.0718.0655.054.1165.0997.2404.2036-.2179.0506-.3413.0968-.4503.0929-.2354-.0186-.4324-.1737-.7194-.0079-.0852.0492-.1783.1266-.2827.2442l-.0004-.1501.2028-.2256c.0941-.1212.1955-.2298.2751-.3592.3038-.4844.0641-.4629-.1324-.5499-.1887-.0842-.3878-.027-.5949.0925-.0883.051-.1781.1133-.2691.1809.0368.1708.1244.3123.1032.5082-.024.2292-.142.3319-.2766.4096-.0638.0368-.1313.068-.1942.1044l-.0797.1765c-.2457.3954-.5062.7963-.7303 1.2097-.1229.2296-.2745.5926-.2233.705.0586.1499.2911.1492.4728.1446.2761-.0008.5811-.0767.8645-.0983l.1022.1747c.0365.0708.0441.1916.0951.229.051.0457.1526.012.2326.016.0142-.1001.0502-.221.05-.3127.007-.0959-.0295-.1583-.0516-.2458.2243-.3299.4924-.6266.172-.8508-.1092-.0789.0131-.5169.0337-.9213.2978-.0383.5594-.0641.8282-.094l.1164.058c.0958.2116.1613.3054.2488.2549.0795-.0459.177-.2109.3319-.5149l.1383.0788c.1898.2996.3868.5783.7575.5981l.1018.0331c-.064.4963.2488.5996.4386.8991-.2904.1092-.5081.1932-.7767.2981.0792-.2545.1512-.4881.2088-.6884-.4133.3221-.8194.6317-1.2182.9371l.0148.1083c.1015-.0753.2031-.1423.3046-.2093.025.3867.0713.5224.2177.4379.0761-.0439.1792-.1474.3204-.306l.0438.0666c-.21.2631-.4272.5305-.659.823-.0365-.0708-.0585-.1249-.095-.1873-.1955.2465-.4641.3598-.5137.7976-.0142.1334-.413.4388-.4702.7641-.093.513-.3243.9721-.6645 1.4274-.0652.0877-.05.3044-.0351.4461.015.175.0591.3333.0959.4958l-.1087.1046c-.0729-.0665-.1602-.1163-.2041-.2162-.1105-.2107-.2614-.2573-.4589-.1433-.1028.0594-.2183.1623-.3472.3082-.0337.0389-.0737.0687-.1157.093-.0482.0278-.0989.0482-.1455.0661-.0575.02-.1133.0455-.1667.0764-.2162.1248-.3929.3364-.4854.6175-.1873.5674-.0695 1.1256.2138 1.0706.0272-.0048.0568-.0171.0878-.035.1345-.0776.2974-.2616.4269-.4042.1377-.1463.2461-.3425.3619-.5095l.0873.0497c-.0287.1335-.0574.2753-.086.4171-.0214.1293-.0429.2586-.0642.4045.0812-.0397.1516-.0608.2205-.1006.0534-.0339.0725-.0455.0907-.056.2128-.1229.3018-.0792.2559.2551-.0645.3991.0537.4748.3442.3071.0313-.0181.0645-.0389.0998-.0625.1094-.0652.1836-.0895.2323-.0757.2907.0789.5974.0224.9535-.1832.0538-.031.1086-.0655.1647-.1033.1651-.0955.3372.0577.5089.0736.1526.0121.3125.0283.4868-.0306.2759-.0758.4578.0112.5312.2695.0293.0916-.0574.2753-.0789.3712.0181-.0063.0399-.0168.0626-.0299s.0462-.0288.068-.0455c.1016-.0586.2104-.1215.3048-.1426.414-.072.8281-.119 1.235-.1451.2616-.0091.3277.245.118.5999-.2314.4174-.3538.7888-.389 1.2015-.0496.4628-.1499.9466-.6576 1.3149-.2175.1674-.4275.4305-.4482.8349-.0211.2543-.2889.626-.4042.9515-.1085.3007-.2399.5308-.4414.6472-.053.0306-.1108.0533-.1742.0674.0958.4541.0669.5208-.3753.8931l-.1882.2423c-.0868.142-.1736.2839-.2749.451.117.2664-.18.5966-.3462.9347.0728.0498.1456.0913.2111.137-.4844.8892-.4913 1.0101-.0325 1.3632-.8781.4151-.9962-.2265-1.0347-.9809.2534-.3216.2236-.58.1647-.8716-.0515-.2375.0057-.5628.0411-.8671.0921-.8464.2204-1.7054.298-2.5435.0141-.1501-.1244-.3039-.2406-.2952-.3342.026-.4874-.1945-.6335-.4526-.0949-.1623-.2116-.2954-.3282-.4284-.1312-.158-.0893-.7417.1204-1.1216.1808-.3215.2164-.5675.2373-.8802.021-.2877.2742-.6843.433-1.0683-.1264.0658-.2126.1323-.2945.1795-.2149.1241-.4003.1159-.548-.0105-.1238-.0955-.2839-.1618-.4509-.1405-.4867.0556-.9878.1695-1.4817.2459-.2034.0256-.3561-.0115-.4005-.3032-.0369-.1958-.2623-.2411-.4007-.3615-.2039-.1661-.4006-.3365-.5973-.4985l-.0797.0961c.2115.262.423.524.6272.7902l-.0724.1086c-.1676-.1621-.3207-.3492-.51-.4738-.233-.1661-.285-.5453-.6194-.6194-.3926-.0822-.619-.4776-.5337-1.1364.0641-.4629.0412-.8338-.3222-.8744l-.0946-.0539c-.2123-.5455-.4602-.8365-.8603-.998.0076.1292.0151.2167.0302.3917-.3432-.5701-1.0029-.0305-1.4462-.0501-.1665.2214-.3186.4177-.5068.66-.0004-.15-.0006-.2251-.0008-.2918-.311.5136-.6221 1.0188-.9258 1.5199l-.0946-.0539c.1157-.2088.2241-.4133.3687-.6804-.4862.2389-.835.2566-1.0975-.0845.2245-.2882.4344-.5514.6951-.8856-.1089.0212-.225.0882-.3338.151-.2104.1215-.4063.2346-.5016-.0695.2393-.1632.4714-.3223.7615-.5232-.2399-.0285-.4362-.0571-.6325-.0857.1809-.2631.3328-.5261.5139-.7392.2185-.2614.453-.4777.7005-.6206.0888-.0512.1792-.0931.2712-.1241.2831-.0967.5662-.2183.8566-.3192.3267-.1135.6462-.1894.9801-.3154.0199-.0077.0401-.0177.0606-.0295.114-.0658.236-.1886.3528-.2843.2683-.205.5438-.4142.8919-.6819.6898-.1978 1.4667-.4127 2.2582-.6358.0803-.1968.1793-.3013.2859-.3628.0946-.0546.1952-.0755.2941-.0973.0978-.019.1955-.0354.288-.0888.0725-.0418.1417-.1063.2053-.2127.0504-.1794.0935-.3379.1367-.4881.0802.104.1605.2163.248.3328.0867-.1836.4055-.5097-.0232-.4876-.0509.0043-.0949-.1373-.0733-.2332.0142-.1001.1083-.2629.1808-.3215l.2108.0369c.0874.0665.1314.1997.226.262.0656.054.1818.037.3341-.0509.0221.1124.0442.2166.0736.3166l.0944-.0128c.0649-.1877.1733-.4006.1729-.5424-.0075-.0875-.1963-.0453-.2692-.1201-.102-.0914-.2403-.1785-.2408-.3536-.016-.2921.2014-.4928.419-.6351z" fill="#cad0dd"/></g></g></g></g></g><g><g enable-background="new"><g><g><g><g><path d="m23.9648 46.5131c.0802.0784.1149.2226.1155.4323.0006.2098-.0332.3934-.1127.5641-.0795.1706-.1934.2955-.3531.3877-.154.0889-.274.0991-.3485.0174-.0802-.0784-.1206-.2192-.1212-.429-.0006-.2097.0388-.3967.1184-.5674.0738-.1673.1934-.2955.3475-.3844.1597-.0922.2739-.0991.3541-.0207zm-.1401.9411c.0454-.1181.0679-.2493.0674-.4-.0004-.1507-.0236-.2556-.0695-.321-.0402-.0622-.1145-.0652-.2114-.0092-.097.056-.1653.1414-.2107.2595-.0454.1116-.0679.2493-.0675.3935.0004.1508.0236.2556.0695.3145.0459.0654.1145.0718.2115.0158.0969-.0562.171-.1448.2107-.2531" fill="#4c7891"/></g></g></g></g><g><g><g><g><path d="m23.3468 43.9727c-.0257.0817-.0401.1638-.0399.2415.0003.1075.0285.1919.0761.2498-1.0574.809-1.8925 2.2556-2.0611 3.5708-.0737-.0126-.1611.0053-.2553.0597-.0676.0391-.1317.0929-.1897.1561.1871-1.5759 1.1951-3.3219 2.4699-4.2779z" fill="#4562ef"/></g></g></g></g></g><g><g><g><g><path d="m23.0004 46.919.0005.1967-.4817 1.4008-.2111.1219.4703-1.3943-.4107.2371.0005.1836-.1711.0988-.0011-.3802z" fill="#4c7891"/></g></g></g></g><g><g><g><g><path d="m18.3582 62.6712c-.0741.0428-.1313.043-.1771.0103-.0515-.0294-.0745-.0818-.0747-.167s.0224-.1705.0735-.2591c.0455-.0854.1024-.1445.1766-.1873.0685-.0395.1256-.0462.1771-.0169.0458.0326.0688.0916.0691.1768.0002.0786-.0224.1639-.0679.2493-.0512.0887-.1082.1544-.1766.1939zm-.0696-.3538-.0282.1082.0288.0819.0686-.0002.0627-.0756.0282-.1148-.0288-.0753-.0686.0002z"/></g></g></g></g><g><g><g><g><path d="m16.6566 63.0824-.4085 1.0237.2738-.1581-.0007-.2425.1826-.1054.0007.2425.1369-.079.0005.1967-.1369.079.001.3343-.1826.1054-.0009-.3343-.4963.2865-.0006-.1966.4199-1.0304z"/></g></g></g></g><g enable-background="new"><g><g><g><g><path d="m19.1861 62.4427c.0458.0326.0745.0883.0747.167.0002.0852-.0281.1738-.0735.2591-.0455.0854-.1082.1478-.1766.1873-.0742.0428-.1313.0495-.1771.0169s-.0745-.0883-.0748-.167c-.0002-.0852.0281-.1738.0736-.2591s.1081-.1543.1766-.1938c.0741-.0429.1312-.043.1771-.0104zm-.1076.3772.0282-.1148-.0288-.0753-.0685.0002-.0627.0756-.0282.1082.0288.0819.0686-.0002z"/></g></g></g></g><g><g><g><g><path d="m18.9898 61.7353.211-.1218-.8348 1.8017-.2168.1251z"/></g></g></g></g><g><g><g><g><path d="m17.8208 62.5613c.0802.0784.1206.2192.1212.429s-.0389.3967-.1184.5674c-.0795.1706-.1934.2955-.3532.3878-.154.0889-.274.0991-.3485.0174-.0802-.0785-.1206-.2193-.1212-.429s.0389-.3967.1184-.5673c.0738-.1674.1934-.2955.3475-.3845.1597-.0924.2739-.0993.3542-.0208zm-.1402.941c.0454-.1182.0679-.2493.0674-.4001-.0004-.1508-.0236-.2556-.0695-.321-.0402-.0622-.1144-.0652-.2114-.0092-.0912.0527-.1653.1414-.2107.2595-.0454.1116-.0679.2493-.0675.3935.0004.1508.0236.2556.0695.3144.0459.0654.1202.0685.2114.0158.0971-.0559.1711-.1447.2108-.2529"/></g></g></g></g><g><g><g><g><path d="m17.6348 59.4449c1.7684-1.021 3.2106-.1991 3.2164 1.8264.0058 2.032-1.4271 4.5138-3.1955 5.5348-1.7627 1.0177-3.2049.1958-3.2107-1.8362-.0006-.2238.1152-.4857.2822-.6679.058-.0633.1221-.1171.1897-.1561.0936-.054.1811-.0724.2555-.0608.1342.0209.2247.1408.2253.3348.0041 1.429 1.0113 2.0095 2.2549 1.2916 1.2436-.718 2.25-2.4612 2.246-3.8902-.0041-1.429-1.017-1.9997-2.2606-1.2817-.1691.0976-.3168.079-.401-.027-.0464-.0585-.0738-.1431-.0741-.2503-.0002-.0781.0139-.1603.0393-.242.0725-.2339.2381-.4631.4326-.5754z" fill="#3f424f"/></g></g></g></g><g><g><g><g><path d="m17.2021 60.0203c-.0253.0817-.0395.1639-.0393.242.0003.1072.0276.1918.0741.2503-1.0589.8082-1.8954 2.256-2.0646 3.5725-.0744-.0116-.1619.0068-.2555.0608-.0676.039-.1317.0929-.1897.1561.1874-1.578 1.1978-3.3265 2.475-4.2817z" fill="#3f424f"/></g></g></g></g></g><g enable-background="new"><g><g><g><g><path d="m25.3301 46.3946c.0458.0326.0688.0916.069.1702.0002.0852-.0224.1705-.0678.2558-.0455.0853-.1081.1478-.1766.1873-.0742.0428-.1313.0495-.1771.0169-.0458-.0327-.0745-.0883-.0748-.1735-.0002-.0787.0281-.1672.0736-.2526s.1081-.1543.1766-.1939c.0685-.0394.1313-.0428.1771-.0102zm-.1075.3772.0282-.1148-.0288-.0753-.0686.0002-.0683.0789-.0226.1049.0288.0819.0686-.0002z" fill="#4c7891"/></g></g></g></g><g><g><g><g><path d="m25.1338 45.6872.2111-.1218-.8405 1.805-.2111.1218z" fill="#4c7891"/></g></g></g></g><g><g><g><g><path d="m24.4966 46.6264c-.0685.0395-.1256.0397-.1771.0103-.0458-.0326-.0688-.085-.069-.1702s.0224-.1705.0736-.2591c.0455-.0853.1024-.1445.1766-.1873.0685-.0395.1256-.0462.1771-.0169.0458.0326.0688.0916.0691.1768.0002.0786-.0224.1639-.0679.2493-.0513.0885-.1083.1543-.1824.1971zm-.0696-.3538-.0226.105.0288.0818.0686-.0002.0627-.0756.0282-.1147-.0288-.0753-.0686.0002z" fill="#4c7891"/></g></g></g></g><g><g><g><g><path d="m23.7846 43.3935c1.7627-1.0177 3.2049-.1959 3.2107 1.8296.0058 2.0321-1.4271 4.5073-3.1898 5.525-1.7684 1.021-3.2049.2024-3.2107-1.8297-.0006-.2238.1152-.4857.2822-.6678.058-.0633.1221-.1171.1897-.1561.0942-.0544.1816-.0723.2553-.0597.1317.0225.2192.1436.2197.3369.0041 1.429 1.017 2.0063 2.2606 1.2883s2.25-2.4611 2.246-3.8901c-.0041-1.429-1.017-1.9997-2.2606-1.2817-.1689.0975-.3187.0804-.4047-.0242-.0476-.0579-.0758-.1423-.0761-.2498-.0002-.0777.0142-.1598.0399-.2415.074-.2352.243-.4667.4378-.5792z" fill="#576cfb"/></g></g></g></g></g><g><g><g><g><path d="m37.0374 50.84c.0802.0784.1149.2226.1155.4323.0006.2033-.0332.3934-.1127.5641s-.1934.2955-.3532.3877c-.154.0889-.274.0991-.3485.0173-.0802-.0784-.1206-.2258-.1212-.429-.0006-.2097.0389-.3967.1184-.5673.0738-.1674.1934-.3021.3474-.391.1598-.0922.2741-.0925.3543-.0141zm-.1401.9345c.0454-.1116.0679-.2493.0675-.3935-.0004-.1507-.0236-.2555-.0695-.321-.0402-.0687-.1145-.0652-.2114-.0092-.0913.0527-.1653.1349-.2107.2529-.0454.1182-.0679.2493-.0674.4.0004.1442.0235.2491.0695.3145.0459.0654.1202.0685.2114.0158.0968-.0559.1709-.1447.2106-.2595" fill="#416e84"/></g></g></g></g><g><g><g><g><path d="m38.4027 50.7215c.0458.0261.0688.085.069.1702s-.0224.1639-.0679.2493-.1081.1544-.1766.1939c-.0742.0428-.1313.0495-.1771.0169-.0458-.0327-.0745-.0883-.0748-.1735-.0002-.0787.0281-.1672.0736-.2526s.1081-.1544.1766-.1939c.0743-.0428.1314-.043.1772-.0103zm-.1075.3772.0282-.1148-.0288-.0753-.0686.0002-.0683.0789-.0226.1049.0288.0819.0685-.0002z" fill="#4c7891"/></g></g></g></g><g><g><g><g><path d="m38.2064 50.0075.2111-.1218-.8405 1.8115-.2111.1219z" fill="#416e84"/></g></g></g></g><g><g><g><g><path d="m37.5748 50.9434c-.0741.0428-.1313.0496-.1771.0169-.0515-.0294-.0745-.0883-.0748-.167-.0002-.0852.0224-.1705.0736-.2591.0455-.0853.1024-.151.1766-.1938.0685-.0395.1256-.0397.1771-.0104.0458.0326.0688.0916.069.1702.0002.0852-.0224.1705-.0678.2559-.0511.0886-.1081.1477-.1766.1873zm-.0695-.3538-.0282.1148.0288.0753.0686-.0002.0626-.0756.0282-.1082-.0288-.0819-.0686.0002z" fill="#416e84"/></g></g></g></g><g><g><g><g><path d="m36.4131 48.3024c-.0253.0817-.0395.1639-.0393.242.0003.1079.028.1922.075.2496-1.0593.8081-1.8963 2.2564-2.0655 3.5732-.0744-.0116-.1619.0068-.2555.0608-.0676.0391-.1317.0929-.1897.1561.1873-1.5781 1.1978-3.3265 2.475-4.2817z" fill="#6eba6e"/></g></g></g></g><g><g><g><g><path d="m36.8458 47.7269c1.7684-1.021 3.2106-.2057 3.2164 1.8264.0057 2.0255-1.4271 4.5073-3.1955 5.5282-1.7627 1.0177-3.2049.1959-3.2107-1.8296-.0006-.2238.1152-.4857.2822-.6679.058-.0633.1221-.1171.1897-.1561.0935-.054.1811-.0724.2555-.0608.1342.0209.2247.1408.2253.3348.004 1.4224 1.0113 2.0095 2.2549 1.2915s2.25-2.4677 2.2459-3.8901c-.0041-1.429-1.017-2.0063-2.2606-1.2883-.1685.0973-.3157.0818-.4-.0211-.047-.0574-.0747-.1417-.075-.2496-.0002-.0781.0139-.1603.0393-.242.0724-.2338.2381-.4631.4326-.5754z" fill="#75ca75"/></g></g></g></g><g enable-background="new"><g><g><g><g><path d="m39.7027 34.8526c.0458.0326.0688.0916.069.1702.0002.0852-.0224.1704-.0735.2591-.0455.0853-.1025.1445-.1766.1873-.0685.0395-.1256.0462-.1771.0169-.0458-.0327-.0688-.0916-.0691-.1768-.0002-.0787.0224-.1639.0679-.2493.0512-.0887.1081-.1543.1823-.1972.0684-.0394.1256-.0396.1771-.0102zm-.1075.3772.0226-.1115-.0231-.0786-.0686.0002-.0683.0789-.0282.1082.0288.0819.0686-.0002z" fill="#4c7891"/></g></g></g></g><g><g><g><g><path d="m39.5007 34.1485.2111-.1218-.8349 1.8017-.211.1218z" fill="#4c7891"/></g></g></g></g><g><g><g><g><path d="m38.3317 34.9744c.0802.0785.1206.2193.1212.429.0006.2098-.0389.3967-.1184.5674-.0738.1673-.1934.2955-.3475.3845-.1597.0922-.274.0991-.3542.0207-.0745-.0818-.1149-.2225-.1155-.4323-.0006-.2097.0389-.3967.1127-.5641.0795-.1706.1934-.2955.3532-.3877.154-.089.274-.0992.3485-.0175zm-.1345.9378c.0454-.1181.0621-.246.0617-.3967s-.0179-.2589-.0638-.3243c-.0459-.0589-.1145-.0652-.2114-.0092-.097.056-.171.1447-.2107.2595-.0454.1116-.0679.2493-.0675.3935.0004.1508.0236.2556.0695.3145.0402.0687.1145.0718.2115.0158.097-.0562.1653-.1416.2107-.2531" fill="#4c7891"/></g></g></g></g><g><g><g><g><path d="m37.1578 36.0921c.1143.0194.166.1012.1664.2454.0003.118-.0393.2328-.1133.3543-.0797.1182-.1822.2168-.3134.2926-.1255.0724-.2283.0924-.3084.0664-.0801-.0326-.1203-.1013-.1206-.2192-.0004-.1442.0563-.2886.1645-.4364-.0801-.0325-.1259-.0914-.1262-.1963-.0003-.0983.0394-.2065.1134-.3149s.1652-.1938.2735-.2564c.1141-.0659.2055-.0858.2798-.063.0686.0261.1088.0881.1091.1865.0002.1047-.0395.213-.1248.341zm-.1013.5509c.0512-.0624.0796-.1313.0794-.2034-.0002-.0655-.0289-.108-.0746-.1145-.0514-.0097-.1028.0003-.1656.0365-.0627.0362-.114.0856-.1653.1545-.0455.0591-.0682.1313-.068.1968.0002.0721.0232.1114.0746.1145l.1599-.0332zm-.3048-.7038-.0624.1739.0632.108.1428-.0233.1481-.1446.0567-.1772-.0575-.1047-.1485.0266z" fill="#4c7891"/></g></g></g></g><g><g><g><g><path d="m38.0944 31.8877c1.7684-1.021 3.2106-.1992 3.2164 1.8263.0058 2.0321-1.4271 4.5073-3.1955 5.5283-1.7627 1.0177-3.2049.2024-3.2107-1.8297-.0006-.2265.1179-.4921.2882-.6745.0564-.0604.1185-.1118.1838-.1495.0935-.054.1811-.0724.2555-.0608.1342.0209.2247.1408.2253.3348.0041 1.429 1.017 2.0063 2.2549 1.2916 1.2436-.718 2.25-2.4611 2.246-3.8901-.0041-1.429-1.017-1.9997-2.2606-1.2817-.1691.0976-.3168.0789-.401-.027-.0464-.0585-.0738-.1431-.0741-.2503-.0002-.078.014-.1602.0393-.2419.0723-.234.238-.4632.4325-.5755z" fill="#f9bb4a"/></g></g></g></g><g><g><g><g><path d="m37.6617 32.4632c-.0253.0817-.0395.1639-.0393.2419.0003.1072.0276.1918.0741.2503-1.0589.8081-1.8954 2.256-2.0646 3.5725-.0743-.0116-.1619.0068-.2555.0608-.0653.0377-.1273.089-.1838.1495.1877-1.5766 1.1937-3.321 2.4691-4.275z" fill="#efac41"/></g></g></g></g></g><g><g><g><g><path d="m38.8691 35.0844c-.0685.0395-.1313.043-.1771.0103-.0458-.0326-.0688-.085-.069-.1702s.0224-.1705.0678-.2558.1081-.1478.1766-.1873c.0742-.0428.1313-.0495.1771-.0169s.0745.0883.0747.1735c.0002.0786-.0281.1672-.0735.2525-.0455.0853-.1081.1544-.1766.1939zm-.0696-.3538-.0283.1083.0288.0818.0686-.0002.0683-.0789.0226-.1115-.0231-.0786-.0686.0002z" fill="#4c7891"/></g></g></g></g><g><g><g><g><path d="m35.9703 51.2986.0006.2032-.4849.2799.0009.3212c.0456-.0526.1026-.0986.1596-.1315.1084-.0626.1998-.0825.2798-.05.0801.026.1146.1046.1149.2357.0004.1246-.0393.2525-.1189.3838s-.1822.2299-.2963.2958c-.154.0889-.2797.1024-.3713.0371l.1022-.2231.0343.0196.0914-.0003.1541-.0561.1482-.1381c.0455-.0657.0682-.1313.068-.2034s-.0232-.1179-.0746-.1276c-.0457-.013-.1085.0036-.177.0431-.0742.0428-.1426.102-.2109.1809l-.0801-.0522-.0018-.6358z" fill="#416e84"/></g></g></g></g><g><g><g><g><path d="m49.5076 34.8533c-.0253.0817-.0395.1639-.0392.2419.0003.1072.0277.1918.0741.2503-1.0589.8081-1.8954 2.256-2.0646 3.5724-.0744-.0116-.1619.0068-.2555.0609-.0653.0377-.1273.089-.1838.1495.1876-1.5766 1.1936-3.3209 2.469-4.275z" fill="#f34858"/></g></g></g></g><g><g><g><g><path d="m50.6979 37.4844c-.0685.0395-.1256.0396-.1771.0103-.0458-.0326-.0688-.085-.069-.1702s.0224-.1705.0735-.2591c.0455-.0854.1025-.1445.1766-.1873.0685-.0395.1256-.0462.1771-.0169.0458.0326.0688.0916.0691.1768.0002.0786-.0224.1639-.0736.2526-.0455.0852-.1025.151-.1766.1938zm-.0696-.3538-.0226.105.0288.0818.0686-.0002.0626-.0756.0282-.1147-.0288-.0753-.0686.0002z" fill="#4c7891"/></g></g></g></g><g><g><g><g><path d="m50.1662 37.3711c.0802.0785.1149.2226.1155.4323.0006.2098-.0332.3934-.1127.5641-.0795.1706-.1934.2955-.3532.3878-.154.0889-.274.099-.3485.0173-.0802-.0785-.1206-.2192-.1212-.429-.0006-.2097.0389-.3967.1184-.5674.0738-.1673.1934-.2955.3474-.3844.1598-.0922.274-.0991.3543-.0207zm-.1402.9411c.0454-.1181.0679-.2493.0674-.4-.0004-.1507-.0236-.2556-.0695-.321-.0459-.0589-.1144-.0652-.2114-.0092s-.1653.1414-.2107.2595c-.0454.1116-.0679.2493-.0675.3935.0004.1508.0236.2556.0695.3145.0459.0654.1145.0718.2114.0158.0971-.0562.1654-.1415.2108-.2531" fill="#4c7891"/></g></g></g></g><g enable-background="new"><g><g><g><g><path d="m51.5314 37.2526c.0458.0326.0688.0916.069.1702.0002.0852-.0224.1704-.0678.2558-.0455.0853-.1081.1478-.1766.1873-.0742.0428-.1313.0495-.1771.0169-.0515-.0294-.0745-.0883-.0748-.1735-.0002-.0787.0281-.1672.0736-.2526s.1081-.1544.1766-.1939c.0685-.0394.1313-.0428.1771-.0102zm-.1074.3772.0282-.1148-.0288-.0753-.0686.0002-.0683.0789-.0226.1049.0288.0819.0686-.0002z" fill="#4c7891"/></g></g></g></g><g><g><g><g><path d="m51.3352 36.5452.211-.1218-.8405 1.805-.2111.1218z" fill="#4c7891"/></g></g></g></g><g><g><g><g><path d="m49.9403 34.2779c1.7684-1.021 3.2106-.1992 3.2164 1.8263.0058 2.0321-1.4271 4.5073-3.1955 5.5283-1.7627 1.0177-3.2049.2024-3.2107-1.8297-.0006-.2265.1179-.4921.2881-.6745.0564-.0604.1185-.1118.1838-.1495.0936-.054.1811-.0724.2555-.0609.1342.0209.2247.1408.2253.3348.0041 1.429 1.017 2.0063 2.2549 1.2916 1.2436-.718 2.25-2.4611 2.246-3.8901-.0041-1.429-1.017-1.9997-2.2606-1.2817-.1691.0976-.3168.0789-.401-.027-.0464-.0585-.0738-.1431-.0741-.2503-.0002-.078.0139-.1602.0392-.2419.0725-.2339.2382-.4631.4327-.5754z" fill="#f9607f"/></g></g></g></g></g><g><g><g><g><path d="m49.094 38.0952c.0402.0883.0577.1965.0581.3341.0004.1377-.0107.2557-.0333.3606-.0282.1082-.0623.2001-.1078.2789-.0853.1478-.1878.2595-.3133.3319s-.234.0891-.3369.0632l.0965-.2198.1029.0063.1142-.0331c.097-.056.1767-.1414.2221-.2464s.0736-.233.0732-.364l-.1195.1675c-.0513.0559-.1083.1085-.171.1447-.1027.0593-.1884.0694-.257.0302-.0687-.0391-.1032-.1242-.1036-.2553s.0336-.2557.1075-.3772.1708-.2168.2849-.2826c.1826-.1056.314-.0895.383.061zm-.2216.4497c.0455-.0657.0625-.1346.0623-.2001-.0002-.0656-.0175-.1147-.0632-.1342-.0401-.0294-.0972-.0161-.1599.0201s-.114.0855-.1595.1577c-.0398.0624-.0625.1346-.0623.2001s.0232.1113.0575.1375c.0401.0228.0915.0194.1599-.0201.0628-.0362.1197-.0888.1652-.161" fill="#4c7891"/></g></g></g></g></g><g><g><g><g><g><path d="m69.6675 34.0668.0169 6.9439c0 .1531.1021.3063.3063.4255l14.5176 8.4416c.4084.2383 1.0722.2383 1.4977 0l14.6196-8.4416c.2043-.1191.3064-.2724.3064-.4425l-.017-6.9269c0 .1531-.1021.3063-.3063.4255l-14.6197 8.4417c-.4255.2382-1.0893.2382-1.4977 0l-14.5175-8.4417c-.2042-.1191-.3063-.2724-.3063-.4255z" fill="#325566"/></g></g></g><g><g><g><path d="m69.9799 33.6315c-.4238.2447-.4259.6211-.0048.8658l14.5202 8.4382c.4102.2384 1.0708.2447 1.4946 0l14.6152-8.4381c.4129-.2384.4151-.6273.0048-.8658l-14.5202-8.4382c-.421-.2447-1.0817-.2384-1.4946 0z" fill="#4c7891"/></g></g></g><g><g><g><path d="m71.1671 36.8457c-.1364-.0787-.2549-.0216-.2553.135-.0005.1671.1173.3607.2537.4394l12.6619 7.3104c.1364.0787.2549.0216.2554-.1455.0004-.1566-.1174-.3502-.2537-.4289z" fill="#f9607f"/></g></g></g><g><g><g><path d="m71.1598 39.6917c-.1364-.0787-.2549-.0112-.2554.1455-.0004.1566.1173.3607.2537.4394l12.6619 7.3104c.1364.0787.2549.0112.2554-.1455s-.1173-.3607-.2537-.4394z" fill="#f9607f"/></g></g></g><g><g><g><path d="m71.1634 38.2635c-.1364-.0787-.2549-.0112-.2553.1455-.0005.1567.1173.3607.2537.4394l12.6619 7.3104c.1364.0787.2549.0112.2554-.1455.0004-.1567-.1173-.3607-.2537-.4394z" fill="#f9607f"/></g></g></g><g><g><g><g><g><g><path d="m90.1603 42.8489c.5246-.3029.9552-.0575.9569.5453s-.4261 1.3438-.9507 1.6467-1.0031.0851-1.0048-.5177.4739-1.3714.9986-1.6743z" fill="#fa5168"/></g></g></g></g><g><g><g><g><path d="m93.785 40.7562c.5722-.3303.9552-.0575.9569.5453s-.3785 1.3164-.9507 1.6467c-.5246.3029-1.0031.0851-1.0048-.5177s.474-1.3714.9986-1.6743z" fill="#fa5168"/></g></g></g></g><g><g><g><g><path d="m97.4573 38.636c.5246-.3029.9552-.0575.9569.5453s-.4261 1.3438-.9507 1.6467-1.0031.0851-1.0048-.5177.474-1.3714.9986-1.6743z" fill="#fa5168"/></g></g></g></g></g></g><g><g><g><g><path d="m69.6675 26.2214.0169 6.9439c0 .1531.1021.3063.3063.4255l14.5176 8.4416c.4084.2383 1.0722.2383 1.4977 0l14.6196-8.4416c.2043-.1191.3064-.2724.3064-.4425l-.017-6.9269c0 .1531-.1021.3063-.3063.4255l-14.6197 8.4416c-.4255.2382-1.0893.2382-1.4977 0l-14.5175-8.4417c-.2042-.1191-.3063-.2723-.3063-.4254z" fill="#325566"/></g></g></g><g><g><g><path d="m69.9799 25.7861c-.4238.2447-.4259.6211-.0048.8658l14.5201 8.4381c.4102.2384 1.0708.2447 1.4946 0l14.6152-8.4381c.4129-.2384.4151-.6273.0048-.8658l-14.52-8.4381c-.421-.2447-1.0817-.2384-1.4946 0z" fill="#4c7891"/></g></g></g><g><g><g><path d="m71.1671 29.0003c-.1364-.0787-.2549-.0216-.2553.135-.0005.1671.1173.3607.2537.4394l12.6619 7.3104c.1364.0787.2549.0216.2554-.1455.0004-.1566-.1174-.3502-.2537-.4289z" fill="#9ad898"/></g></g></g><g><g><g><path d="m71.1598 31.8463c-.1364-.0787-.2549-.0112-.2554.1455-.0004.1566.1173.3607.2537.4394l12.6619 7.3104c.1364.0787.2549.0112.2554-.1455s-.1173-.3607-.2537-.4394z" fill="#9ad898"/></g></g></g><g><g><g><path d="m71.1634 30.418c-.1364-.0787-.2549-.0112-.2553.1455-.0005.1566.1173.3607.2537.4394l12.6619 7.3104c.1364.0787.2549.0112.2554-.1455.0004-.1567-.1173-.3607-.2537-.4394z" fill="#9ad898"/></g></g></g></g><g><g><g><g><path d="m69.6675 18.3999.0169 6.9439c0 .1531.1021.3063.3063.4255l14.5176 8.4416c.4084.2383 1.0722.2383 1.4977 0l14.6196-8.4416c.2043-.1191.3064-.2724.3064-.4425l-.017-6.9269c0 .1531-.1021.3063-.3063.4255l-14.6197 8.4416c-.4255.2382-1.0893.2382-1.4977 0l-14.5175-8.4417c-.2042-.1191-.3063-.2723-.3063-.4254z" fill="#325566"/></g></g></g><g><g><g><path d="m69.9799 17.9646c-.4238.2447-.4259.6211-.0048.8658l14.5202 8.4382c.4102.2384 1.0708.2447 1.4946 0l14.6152-8.4381c.4129-.2384.4151-.6273.0048-.8658l-14.5201-8.4382c-.421-.2447-1.0817-.2384-1.4946 0z" fill="#4c7891"/></g></g></g><g><g><g><path d="m71.1671 21.1788c-.1364-.0787-.2549-.0216-.2553.135-.0005.1671.1173.3607.2537.4394l12.6619 7.3104c.1364.0787.2549.0216.2554-.1455.0004-.1566-.1174-.3502-.2537-.4289z" fill="#748bfd"/></g></g></g><g><g><g><path d="m71.1598 24.0248c-.1364-.0787-.2549-.0112-.2554.1455-.0004.1566.1173.3607.2537.4394l12.662 7.3103c.1364.0787.2549.0112.2554-.1455s-.1173-.3607-.2537-.4394z" fill="#748bfd"/></g></g></g><g><g><g><path d="m71.1634 22.5965c-.1364-.0787-.2549-.0112-.2553.1455-.0005.1566.1173.3607.2537.4394l12.6619 7.3104c.1364.0787.2549.0112.2554-.1455.0004-.1567-.1173-.3607-.2537-.4394z" fill="#748bfd"/></g></g></g></g><g><g><g><g><path d="m69.6675 10.5545.0169 6.9439c0 .1531.1021.3063.3063.4255l14.5176 8.4416c.4084.2383 1.0722.2383 1.4977 0l14.6196-8.4416c.2043-.1191.3064-.2724.3064-.4425l-.017-6.9269c0 .1531-.1021.3063-.3063.4255l-14.6197 8.4416c-.4255.2382-1.0893.2382-1.4977 0l-14.5175-8.4417c-.2042-.1191-.3063-.2723-.3063-.4254z" fill="#325566"/></g></g></g><g><g><g><path d="m69.9799 10.1191c-.4238.2447-.4259.6211-.0048.8658l14.5202 8.4382c.4102.2384 1.0708.2447 1.4946 0l14.6152-8.4381c.4129-.2384.4151-.6273.0048-.8658l-14.5201-8.4382c-.421-.2447-1.0817-.2384-1.4946 0z" fill="#4c7891"/></g></g></g><g><g><g><path d="m71.1671 13.3333c-.1364-.0787-.2549-.0216-.2553.135-.0005.1671.1173.3607.2537.4394l12.6619 7.3104c.1364.0787.2549.0216.2554-.1455.0004-.1566-.1174-.3502-.2537-.4289z" fill="#fed57a"/></g></g></g><g><g><g><path d="m71.1598 16.1793c-.1364-.0787-.2549-.0112-.2554.1455-.0004.1566.1173.3607.2537.4394l12.6619 7.3104c.1364.0787.2549.0112.2554-.1455s-.1173-.3607-.2537-.4394z" fill="#fed57a"/></g></g></g><g><g><g><path d="m71.1634 14.7511c-.1364-.0787-.2549-.0112-.2553.1455-.0005.1566.1173.3607.2537.4394l12.6619 7.3104c.1364.0787.2549.0112.2554-.1455.0004-.1567-.1173-.3607-.2537-.4394z" fill="#fed57a"/></g></g></g></g><g><g><g><g><path d="m75.8716 9.3523.0107.9337c0 .0966.0644.1933.1933.2685l9.1601 5.3263c.2577.1504.6765.1504.945 0l9.2244-5.3263c.1289-.0752.1934-.1719.1934-.2792l-.0107-.9229c0 .0966-.0644.1933-.1933.2685l-9.2245 5.3264c-.2685.1503-.6873.1503-.945 0l-9.16-5.3264c-.129-.0753-.1934-.172-.1934-.2686z" fill="#37617b"/></g></g></g><g><g><g><path d="m76.0687 9.0776c-.2674.1544-.2687.3919-.0031.5463l9.1617 5.3242c.2589.1504.6757.1544.9431 0l9.2217-5.3241c.2605-.1504.2619-.3958.0031-.5463l-9.1617-5.3242c-.2657-.1544-.6825-.1504-.9431 0z" fill="#416e84"/></g></g></g></g><g><g><g><g><g><g><path d="m90.1603 35.3972c.5246-.3029.9552-.0575.9569.5453s-.4261 1.3438-.9507 1.6467-1.0031.0851-1.0048-.5177.4739-1.3715.9986-1.6743z" fill="#9ad898"/></g></g></g></g><g><g><g><g><path d="m93.785 33.3044c.5722-.3303.9552-.0575.9569.5453s-.3785 1.3164-.9507 1.6467c-.5246.3029-1.0031.0851-1.0048-.5177s.474-1.3714.9986-1.6743z" fill="#9ad898"/></g></g></g></g><g><g><g><g><path d="m97.4573 31.1842c.5246-.3029.9552-.0575.9569.5453s-.4261 1.3438-.9507 1.6467-1.0031.0851-1.0048-.5177.474-1.3714.9986-1.6743z" fill="#9ad898"/></g></g></g></g></g></g><g><g><g><g><g><g><path d="m90.1603 27.6548c.5246-.3029.9552-.0575.9569.5453s-.4261 1.3438-.9507 1.6467-1.0031.0851-1.0048-.5177.4739-1.3714.9986-1.6743z" fill="#748bfd"/></g></g></g></g><g><g><g><g><path d="m93.785 25.562c.5722-.3303.9552-.0575.9569.5453s-.3785 1.3164-.9507 1.6467c-.5246.3029-1.0031.0851-1.0048-.5177s.474-1.3714.9986-1.6743z" fill="#748bfd"/></g></g></g></g><g><g><g><g><path d="m97.4573 23.4418c.5246-.3029.9552-.0575.9569.5453s-.4261 1.3438-.9507 1.6467-1.0031.0851-1.0048-.5177.474-1.3714.9986-1.6743z" fill="#748bfd"/></g></g></g></g></g></g><g><g><g><g><g><g><path d="m90.1603 20.0825c.5246-.3029.9552-.0575.9569.5453s-.4261 1.3438-.9507 1.6467-1.0031.0851-1.0048-.5177.4739-1.3714.9986-1.6743z" fill="#fed57a"/></g></g></g></g><g><g><g><g><path d="m93.785 17.9897c.5722-.3303.9552-.0575.9569.5453s-.3785 1.3164-.9507 1.6467c-.5246.3029-1.0031.0851-1.0048-.5177s.474-1.3714.9986-1.6743z" fill="#fed57a"/></g></g></g></g><g><g><g><g><path d="m97.4573 15.8695c.5246-.3029.9552-.0575.9569.5453s-.4261 1.3438-.9507 1.6467-1.0031.0851-1.0048-.5177.474-1.3714.9986-1.6743z" fill="#fed57a"/></g></g></g></g></g></g></g><g><g><g><g><path d="m93.9495 48.3547.0169 6.944c0 .1531.1021.3063.3063.4255l14.5176 8.4416c.4085.2383 1.0722.2383 1.4977 0l14.6196-8.4416c.2043-.1191.3064-.2724.3064-.4425l-.017-6.9269c0 .1531-.1021.3063-.3063.4255l-14.6197 8.4417c-.4255.2382-1.0893.2382-1.4977 0l-14.5175-8.4417c-.2042-.1192-.3063-.2725-.3063-.4256z" fill="#325566"/></g></g></g><g><g><g><path d="m94.2619 47.9194c-.4238.2447-.4259.6211-.0048.8658l14.5202 8.4382c.4102.2384 1.0708.2447 1.4946 0l14.6152-8.4381c.4129-.2384.4151-.6273.0048-.8658l-14.5202-8.4382c-.4211-.2447-1.0817-.2384-1.4946 0z" fill="#4c7891"/></g></g></g><g><g><g><path d="m95.4491 51.1336c-.1364-.0787-.2549-.0216-.2553.135-.0005.1671.1173.3607.2537.4394l12.6619 7.3104c.1364.0787.2549.0216.2554-.1455.0004-.1566-.1174-.3502-.2537-.4289z" fill="#f9607f"/></g></g></g><g><g><g><path d="m95.4418 53.9796c-.1364-.0787-.2549-.0112-.2554.1455-.0004.1566.1173.3607.2537.4394l12.6619 7.3104c.1364.0787.2549.0112.2554-.1455.0004-.1567-.1173-.3607-.2537-.4394z" fill="#f9607f"/></g></g></g><g><g><g><path d="m95.4455 52.5514c-.1364-.0787-.2549-.0112-.2554.1455-.0004.1566.1173.3607.2537.4394l12.6619 7.3104c.1364.0787.2549.0112.2553-.1455.0005-.1567-.1173-.3607-.2537-.4394z" fill="#f9607f"/></g></g></g><g><g><g><g><g><g><path d="m114.4423 57.1368c.5246-.3029.9552-.0575.9569.5453s-.4261 1.3438-.9507 1.6467-1.0031.0851-1.0048-.5177c-.0017-.6027.474-1.3714.9986-1.6743z" fill="#fa5168"/></g></g></g></g><g><g><g><g><path d="m118.0671 55.0441c.5722-.3303.9552-.0575.9569.5453s-.3785 1.3164-.9507 1.6467c-.5246.3029-1.0031.0851-1.0048-.5177s.4739-1.3714.9986-1.6743z" fill="#fa5168"/></g></g></g></g><g><g><g><g><path d="m121.7394 52.9239c.5246-.3029.9552-.0575.9569.5453s-.4261 1.3438-.9507 1.6467-1.0031.0851-1.0048-.5177.474-1.3714.9986-1.6743z" fill="#fa5168"/></g></g></g></g></g></g><g><g><g><g><path d="m93.9495 40.5093.0169 6.944c0 .1531.1021.3063.3063.4255l14.5176 8.4416c.4085.2383 1.0722.2383 1.4977 0l14.6196-8.4416c.2043-.1191.3064-.2724.3064-.4425l-.017-6.9269c0 .1531-.1021.3063-.3063.4255l-14.6197 8.4417c-.4255.2382-1.0893.2382-1.4977 0l-14.5175-8.4417c-.2042-.1193-.3063-.2725-.3063-.4256z" fill="#325566"/></g></g></g><g><g><g><path d="m94.2619 40.074c-.4238.2447-.4259.6211-.0048.8658l14.5202 8.4382c.4102.2384 1.0708.2447 1.4946 0l14.6152-8.4381c.4129-.2384.4151-.6273.0048-.8658l-14.5202-8.4382c-.4211-.2447-1.0817-.2384-1.4946 0z" fill="#4c7891"/></g></g></g><g><g><g><path d="m95.4491 43.2882c-.1364-.0787-.2549-.0216-.2553.135-.0005.1671.1173.3607.2537.4394l12.6619 7.3104c.1364.0787.2549.0216.2554-.1455.0004-.1567-.1174-.3502-.2537-.4289z" fill="#9ad898"/></g></g></g><g><g><g><path d="m95.4418 46.1342c-.1364-.0787-.2549-.0112-.2554.1455-.0004.1567.1173.3607.2537.4394l12.6619 7.3104c.1364.0787.2549.0112.2554-.1455.0004-.1567-.1173-.3607-.2537-.4394z" fill="#9ad898"/></g></g></g><g><g><g><path d="m95.4455 44.7059c-.1364-.0787-.2549-.0112-.2554.1455-.0004.1566.1173.3607.2537.4394l12.6619 7.3104c.1364.0787.2549.0112.2553-.1455.0005-.1567-.1173-.3607-.2537-.4394z" fill="#9ad898"/></g></g></g></g><g><g><g><g><path d="m93.9495 32.6878.0169 6.9439c0 .1531.1021.3063.3063.4255l14.5176 8.4416c.4085.2383 1.0722.2383 1.4977 0l14.6196-8.4416c.2043-.1191.3064-.2724.3064-.4425l-.017-6.9269c0 .1531-.1021.3063-.3063.4255l-14.6197 8.4417c-.4255.2382-1.0893.2382-1.4977 0l-14.5175-8.4417c-.2042-.1192-.3063-.2724-.3063-.4255z" fill="#325566"/></g></g></g><g><g><g><path d="m94.2619 32.2525c-.4238.2447-.4259.6211-.0048.8658l14.5202 8.4382c.4102.2384 1.0708.2447 1.4946 0l14.6152-8.4381c.4129-.2384.4151-.6273.0048-.8658l-14.5202-8.4382c-.4211-.2447-1.0817-.2384-1.4946 0z" fill="#4c7891"/></g></g></g><g><g><g><path d="m95.4491 35.4667c-.1364-.0787-.2549-.0216-.2553.135-.0005.1671.1173.3607.2537.4394l12.6619 7.3104c.1364.0787.2549.0216.2554-.1455.0004-.1566-.1174-.3502-.2537-.4289z" fill="#748bfd"/></g></g></g><g><g><g><path d="m95.4418 38.3127c-.1364-.0787-.2549-.0112-.2554.1455-.0004.1566.1173.3607.2537.4394l12.6619 7.3104c.1364.0787.2549.0112.2554-.1455.0004-.1567-.1173-.3607-.2537-.4394z" fill="#748bfd"/></g></g></g><g><g><g><path d="m95.4455 36.8844c-.1364-.0787-.2549-.0112-.2554.1455-.0004.1567.1173.3607.2537.4394l12.6619 7.3104c.1364.0787.2549.0112.2553-.1455.0005-.1567-.1173-.3607-.2537-.4394z" fill="#748bfd"/></g></g></g></g><g><g><g><g><path d="m93.9495 24.8424.0169 6.9439c0 .1531.1021.3063.3063.4255l14.5176 8.4416c.4085.2383 1.0722.2383 1.4977 0l14.6196-8.4416c.2043-.1191.3064-.2724.3064-.4425l-.017-6.9269c0 .1531-.1021.3063-.3063.4255l-14.6197 8.4417c-.4255.2382-1.0893.2382-1.4977 0l-14.5175-8.4417c-.2042-.1192-.3063-.2724-.3063-.4255z" fill="#325566"/></g></g></g><g><g><g><path d="m94.2619 24.407c-.4238.2447-.4259.6211-.0048.8658l14.5202 8.4382c.4102.2384 1.0708.2447 1.4946 0l14.6152-8.4381c.4129-.2384.4151-.6273.0048-.8658l-14.5202-8.4382c-.4211-.2447-1.0817-.2384-1.4946 0z" fill="#4c7891"/></g></g></g><g><g><g><path d="m95.4491 27.6212c-.1364-.0787-.2549-.0216-.2553.135-.0005.1671.1173.3607.2537.4394l12.6619 7.3104c.1364.0787.2549.0216.2554-.1455.0004-.1566-.1174-.3502-.2537-.4289z" fill="#fed57a"/></g></g></g><g><g><g><path d="m95.4418 30.4672c-.1364-.0787-.2549-.0112-.2554.1455-.0004.1566.1173.3607.2537.4394l12.6619 7.3104c.1364.0787.2549.0112.2554-.1455.0004-.1567-.1173-.3607-.2537-.4394z" fill="#fed57a"/></g></g></g><g><g><g><path d="m95.4455 29.039c-.1364-.0787-.2549-.0112-.2554.1455-.0004.1566.1173.3607.2537.4394l12.6619 7.3104c.1364.0787.2549.0112.2553-.1455.0005-.1567-.1173-.3607-.2537-.4394z" fill="#fed57a"/></g></g></g></g><g><g><g><g><path d="m100.1536 23.6402.0107.9337c0 .0966.0644.1933.1933.2685l9.1601 5.3263c.2577.1504.6765.1504.945 0l9.2245-5.3263c.1289-.0752.1934-.1719.1934-.2792l-.0107-.9229c0 .0966-.0644.1933-.1933.2685l-9.2245 5.3264c-.2685.1503-.6873.1503-.945 0l-9.16-5.3264c-.1291-.0753-.1935-.172-.1935-.2686z" fill="#37617b"/></g></g></g><g><g><g><path d="m100.3507 23.3656c-.2674.1544-.2687.3919-.0031.5463l9.1617 5.3242c.2589.1504.6757.1544.9431 0l9.2217-5.3241c.2605-.1504.2619-.3958.0031-.5463l-9.1617-5.3242c-.2657-.1544-.6825-.1504-.9431 0z" fill="#416e84"/></g></g></g></g><g><g><g><g><g><g><path d="m114.4423 49.6851c.5246-.3029.9552-.0575.9569.5453s-.4261 1.3438-.9507 1.6467-1.0031.0851-1.0048-.5177.474-1.3715.9986-1.6743z" fill="#9ad898"/></g></g></g></g><g><g><g><g><path d="m118.0671 47.5923c.5722-.3303.9552-.0575.9569.5453s-.3785 1.3164-.9507 1.6467c-.5246.3029-1.0031.0851-1.0048-.5177s.4739-1.3714.9986-1.6743z" fill="#9ad898"/></g></g></g></g><g><g><g><g><path d="m121.7394 45.4721c.5246-.3029.9552-.0575.9569.5453s-.4261 1.3438-.9507 1.6467-1.0031.0851-1.0048-.5177.474-1.3714.9986-1.6743z" fill="#9ad898"/></g></g></g></g></g></g><g><g><g><g><g><g><path d="m114.4423 41.9427c.5246-.3029.9552-.0575.9569.5453s-.4261 1.3438-.9507 1.6467-1.0031.0851-1.0048-.5177.474-1.3714.9986-1.6743z" fill="#748bfd"/></g></g></g></g><g><g><g><g><path d="m118.0671 39.85c.5722-.3303.9552-.0575.9569.5453s-.3785 1.3164-.9507 1.6467c-.5246.3029-1.0031.0851-1.0048-.5177s.4739-1.3715.9986-1.6743z" fill="#748bfd"/></g></g></g></g><g><g><g><g><path d="m121.7394 37.7297c.5246-.3029.9552-.0575.9569.5453s-.4261 1.3438-.9507 1.6467-1.0031.0851-1.0048-.5177.474-1.3714.9986-1.6743z" fill="#748bfd"/></g></g></g></g></g></g><g><g><g><g><g><g><path d="m114.4423 34.3704c.5246-.3029.9552-.0575.9569.5453s-.4261 1.3438-.9507 1.6467-1.0031.0851-1.0048-.5177.474-1.3714.9986-1.6743z" fill="#fed57a"/></g></g></g></g><g><g><g><g><path d="m118.0671 32.2776c.5722-.3303.9552-.0575.9569.5453s-.3785 1.3164-.9507 1.6467c-.5246.3029-1.0031.0851-1.0048-.5177s.4739-1.3714.9986-1.6743z" fill="#fed57a"/></g></g></g></g><g><g><g><g><path d="m121.7394 30.1574c.5246-.3029.9552-.0575.9569.5453s-.4261 1.3438-.9507 1.6467-1.0031.0851-1.0048-.5177.474-1.3714.9986-1.6743z" fill="#fed57a"/></g></g></g></g></g></g></g></g><g><g><path d="m47.5671 82.4594 40.704-23.6546-.082 28.9223-40.704 23.6545z" fill="#5b5e71"/><path d="m49.3218 83.4725 37.183-21.6083-.0699 24.85-37.183 21.6083z" fill="#f9607f"/></g><g><path d="m45.7875 81.432 40.704-23.6546 1.7796 1.0274-40.704 23.6546z" fill="#e4e8f4"/></g><g><path d="m75.4187 127.455 40.704-23.6546-.0058 2.0449-40.704 23.6546z" fill="#cad0dd"/></g><path d="m47.4851 111.3816 40.704-23.6545 27.9336 16.0733-40.704 23.6546z" fill="#e4e8f4"/><path d="m50.9917 111.3766 37.2002-21.6181 14.5134 8.3613-37.2002 21.6181z" fill="#cad0dd"/><g><path d="m47.5671 82.4594-.082 28.9222 27.9336 16.0734-.0058 2.0449-29.7131-17.1008.0877-30.9671z" fill="#d4dae8"/></g><g><g><path d="m66.2646 111.4395 2.3029 1.3383 2.3079-1.3325-2.3028-1.3383z" fill="#5b5e71"/></g><g><path d="m62.9593 109.5186 2.3028 1.3383 2.3079-1.3325-2.3028-1.3383z" fill="#5b5e71"/></g><g><path d="m59.6539 107.5977 2.3028 1.3383 2.3079-1.3325-2.3028-1.3382z" fill="#5b5e71"/></g><g><path d="m66.253 115.2755 2.3029 1.3383 2.3179-1.3383-2.3029-1.3383z" fill="#5b5e71"/></g><g><path d="m62.946 117.1848 2.3028 1.3383 2.308-1.3325-2.3029-1.3383z" fill="#5b5e71"/></g><g><path d="m59.6406 115.2639 2.3028 1.3383 5.625-3.2476-2.3029-1.3383z" fill="#5b5e71"/></g><g><path d="m59.6422 111.4337 2.3028 1.3383 2.318-1.3383-2.3028-1.3382z" fill="#5b5e71"/></g><g><path d="m56.3368 109.5128 2.3028 1.3383 2.318-1.3383-2.3028-1.3382z" fill="#5b5e71"/></g><g><path d="m53.0298 111.4221 2.3028 1.3383 2.3079-1.3325-2.3028-1.3382z" fill="#5b5e71"/></g><g><path d="m69.5717 109.5302 2.3028 1.3383 2.308-1.3325-2.3029-1.3383z" fill="#5b5e71"/></g><g><path d="m96.0564 98.0685 2.3028 1.3383 2.308-1.3325-2.3029-1.3383z" fill="#5b5e71"/></g><g><path d="m92.7509 96.1476 2.3029 1.3383 2.308-1.3325-2.3029-1.3383z" fill="#5b5e71"/></g><g><path d="m89.4456 94.2268 2.3028 1.3382 2.308-1.3325-2.3029-1.3382z" fill="#5b5e71"/></g><g enable-background="new"><g><path d="m79.5161 96.1303 2.3028 1.3382 2.308-1.3325-2.3028-1.3382z" fill="#5b5e71"/></g><g><path d="m76.2091 98.0396 2.3028 1.3383 2.3079-1.3325-2.3028-1.3383z" fill="#5b5e71"/></g><g><path d="m82.8215 98.0512 2.3028 1.3382 5.615-3.2418-2.3028-1.3382z" fill="#5b5e71"/></g><g><path d="m72.892 99.9547 2.3029 1.3382 2.3079-1.3325-2.3028-1.3382z" fill="#5b5e71"/></g><g><path d="m79.5145 99.9605 2.3028 1.3382 2.3079-1.3324-2.3028-1.3383z" fill="#5b5e71"/></g><g><path d="m86.1269 99.972 2.3028 1.3383 2.308-1.3325-2.3029-1.3383z" fill="#5b5e71"/></g><g><path d="m69.585 101.864 2.3028 1.3382 2.3079-1.3324-2.3028-1.3383z" fill="#5b5e71"/></g><g><path d="m76.1975 101.8756 2.3028 1.3382 2.3079-1.3325-2.3028-1.3382z" fill="#5b5e71"/></g><g><path d="m82.8198 101.8814 2.3029 1.3382 2.3079-1.3325-2.3028-1.3382z" fill="#5b5e71"/></g><g><path d="m89.424 98.057 3.3153 1.9266-3.307 1.9093 2.3028 1.3383 5.615-3.2418-5.6181-3.2649z" fill="#5b5e71"/></g><g><path d="m72.8904 103.7849 2.3028 1.3382 2.3079-1.3324-2.3028-1.3383z" fill="#5b5e71"/></g><g><path d="m79.5028 103.7964 2.3029 1.3383 2.3079-1.3325-2.3029-1.3382z" fill="#5b5e71"/></g><g><path d="m86.1252 103.8023 2.3029 1.3382 2.3079-1.3325-2.3028-1.3382z" fill="#5b5e71"/></g><g><path d="m69.5834 105.6942 2.3028 1.3383 2.3079-1.3325-2.3028-1.3383z" fill="#5b5e71"/></g><g><path d="m76.1958 105.7058 2.3028 1.3382 2.3079-1.3324-2.3028-1.3383z" fill="#5b5e71"/></g><g><path d="m66.2663 107.6093 2.3028 1.3383 2.308-1.3325-2.3028-1.3383z" fill="#5b5e71"/></g><g><path d="m72.8887 107.6151 2.3029 1.3383 2.3079-1.3325-2.3028-1.3383z" fill="#5b5e71"/></g><g><path d="m69.57 113.3604 2.3029 1.3383 15.5461-8.9756-2.3029-1.3383z" fill="#5b5e71"/></g></g><g><path d="m62.9609 105.6884 2.3028 1.3383 2.308-1.3325-2.3028-1.3383z" fill="#5b5e71"/></g><g><path d="m66.278 103.7733 2.3028 1.3383 2.3079-1.3325-2.3028-1.3383z" fill="#5b5e71"/></g><g><path d="m86.1402 92.3059 2.3028 1.3382 2.3079-1.3325-2.3028-1.3382z" fill="#5b5e71"/></g><g><path d="m82.8232 94.221 2.3028 1.3382 2.3079-1.3325-2.3028-1.3382z" fill="#5b5e71"/></g><g><path d="m56.3352 113.343 2.3028 1.3383 2.3079-1.3325-2.3028-1.3382z" fill="#5b5e71"/></g></g><g><path d="m77.104 114.8643c-.339.1957-.3409.5283-.0042.724l6.179 3.5908c.3367.1957.911.1957 1.25 0l8.9646-5.1757c.3389-.1957.3408-.5284.0041-.724l-6.179-3.5908c-.3367-.1957-.911-.1956-1.2499.0001z" fill="#cad0dd"/></g><g><g><g><g><g><g><path d="m81.0836 71.2976.0012.424-3.4177 1.9732-.0012-.4241z" fill="#fff"/></g></g></g></g></g><g><g><g><g><g><path d="m83.31 82.0422.0012.4241-2.8641 1.6536-.0012-.4241z" fill="#fff"/></g></g></g></g></g><g enable-background="new"><g><g><g><g><g><path d="m83.3197 85.4774.0012.4241-2.8419 1.6408-.0012-.4242z" fill="#fff"/></g></g></g></g></g><g><g><g><g><g><path d="m83.3148 83.7555.0012.4241-5.883 3.3966-.0012-.4241z" fill="#fff"/></g></g></g></g></g><g><g><g><g><g><path d="m79.7618 87.5315.0012.4241-5.1154 2.9534-.0012-.4241z" fill="#fff"/></g></g></g></g></g><g><g><g><g><g><path d="m80.003 83.9515.0012.4241-4.8718 2.8127-.0012-.4241z" fill="#fff"/></g></g></g></g></g><g><g><g><g><g><path d="m83.2905 75.1803.0012.4241-2.805 1.6195-.0012-.4241z" fill="#fff"/></g></g></g></g></g><g><g><g><g><g><path d="m83.2954 76.8937.0012.4241-4.7021 2.7147-.0012-.4241z" fill="#fff"/></g></g></g></g></g><g><g><g><g><g><path d="m76.5312 87.6721.0012.4241-6.5105 3.7588-.0012-.4241z" fill="#fff"/></g></g></g></g></g><g><g><g><g><g><path d="m81.2408 79.7961.0012.4325-6.8279 3.9421-.0012-.4325z" fill="#fff"/></g></g></g></g></g><g><g><g><g><g><path d="m74.0854 90.8088.0012.4241-6.2595 3.6139-.0012-.4241z" fill="#fff"/></g></g></g></g></g><g><g><g><g><g><path d="m83.2857 73.467.0011.4241-5.7944 3.3454-.0012-.4241z" fill="#fff"/></g></g></g></g></g><g><g><g><g><g><path d="m77.5844 83.6317.0012.4241-7.256 4.1892-.0012-.424z" fill="#fff"/></g></g></g></g></g><g><g><g><g><g><path d="m74.6071 87.0668.0013.4241-7.1675 4.1381-.0012-.4241z" fill="#fff"/></g></g></g></g></g><g><g><g><g><g><path d="m77.8699 80.026.0012.4241-6.0749 3.5074-.0012-.4241z" fill="#fff"/></g></g></g></g></g><g><g><g><g><g><path d="m83.2808 71.7452.0012.4241-8.474 4.8924-.0012-.4241z" fill="#fff"/></g></g></g></g></g><g><g><g><g><g><path d="m73.1211 84.4839.0012.4326-5.1375 2.9662-.0012-.4326z" fill="#fff"/></g></g></g></g></g><g><g><g><g><g><path d="m76.694 77.2727.0012.4241-4.6504 2.6849-.0012-.4241z" fill="#fff"/></g></g></g></g></g><g><g><g><g><g><path d="m73.5764 80.7888.0012.4241-4.7241 2.7275-.0012-.4242z" fill="#fff"/></g></g></g></g></g><g><g><g><g><g><path d="m68.9555 88.6136.0012.4241-4.6135 2.6636-.0012-.4241z" fill="#fff"/></g></g></g></g></g><g><g><g><g><g><path d="m77.0754 73.6117.0012.4241-5.1744 2.9874-.0012-.4241z" fill="#fff"/></g></g></g></g></g><g><g><g><g><g><path d="m66.7878 88.1405.0012.4326-2.4506 1.4148-.0013-.4325z" fill="#fff"/></g></g></g></g></g><g><g><g><g><g><path d="m70.4811 84.292.0012.4241-6.1488 3.55-.0012-.4241z" fill="#fff"/></g></g></g></g></g><g><g><g><g><g><path d="m73.6036 77.3323.0012.4241-5.728 3.3071-.0013-.4241z" fill="#fff"/></g></g></g></g></g><g><g><g><g><g><path d="m68.1806 83.9041.0012.4241-3.8532 2.2246-.0012-.4241z" fill="#fff"/></g></g></g></g></g><g><g><g><g><g><path d="m79.2285 68.9278.0012.4326-7.5291 4.3469-.0013-.4326z" fill="#fff"/></g></g></g></g></g><g><g><g><g><g><path d="m75.24 72.9552.0012.4241-5.5436 3.2006-.0012-.4241z" fill="#fff"/></g></g></g></g></g><g><g><g><g><g><path d="m71.6524 80.1835.0012.4241-7.3298 4.2318-.0012-.4241z" fill="#fff"/></g></g></g></g></g><g><g><g><g><g><path d="m71.0276 73.6626.0012.4326-6.7245 3.8824-.0012-.4326z" fill="#fff"/></g></g></g></g></g></g><g><g><g><g><g><path d="m83.2759 70.0318.0012.4241-1.2844.7415-.0012-.424z" fill="#fff"/></g></g></g></g></g><g><g><g><g><g><path d="m83.2711 68.3185.0012.4241-7.3299 4.2318-.0012-.4241z" fill="#fff"/></g></g></g></g></g><g><g><g><g><g><path d="m83.2662 66.5966.0012.4326-3.0855 1.7814-.0012-.4326z" fill="#fff"/></g></g></g></g></g><g><g><g><g><g><path d="m66.975 81.1593.0012.4241-2.6573 1.5342-.0012-.4241z" fill="#fff"/></g></g></g></g></g><g><g><g><g><g><path d="m70.7716 77.2512.0012.424-6.4588 3.7291-.0012-.4241z" fill="#fff"/></g></g></g></g></g><g><g><g><g><g><path d="m68.8107 76.6672.0012.4241-4.5027 2.5996-.0012-.4241z" fill="#fff"/></g></g></g></g></g><g><g><g><g><g><path d="m83.3051 80.3289.0012.424-4.5692 2.6381-.0012-.4241z" fill="#fff"/></g></g></g></g></g><g><g><g><g><g><path d="m79.6588 77.2771.0012.4241-5.5287 3.192-.0012-.4241z" fill="#fff"/></g></g></g></g></g><g><g><g><g><g><path d="m83.3002 78.607.0012.4326-1.491.8609-.0013-.4326z" fill="#fff"/></g></g></g></g></g><g><g><g><g><g><path d="m66.7828 91.5842.0012.4241-2.4359 1.4064-.0012-.4242z" fill="#fff"/></g></g></g></g></g><g><g><g><g><g><path d="m66.9254 94.9426.0012.4242-2.5688 1.483-.0012-.4241z" fill="#fff"/></g></g></g></g></g><g><g><g><g><g><path d="m69.0759 91.9764.0012.4241-4.7242 2.7275-.0012-.4241z" fill="#fff"/></g></g></g></g></g><g><g><g><g><g><path d="m61.5719 79.1218.0012.4326-3.0854 1.7814-.0012-.4326z" fill="#fff"/></g></g></g></g></g><g enable-background="new"><g><g><g><g><g><path d="m61.5914 85.9922.0012.4241-5.8019 3.3497-.0012-.4241z" fill="#fff"/></g></g></g></g></g><g><g><g><g><g><path d="m59.382 83.827.0012.4241-3.4177 1.9732-.0012-.4241z" fill="#fff"/></g></g></g></g></g><g><g><g><g><g><path d="m61.5865 84.2704.0012.4241-8.4813 4.8967-.0012-.4241z" fill="#fff"/></g></g></g></g></g><g><g><g><g><g><path d="m61.5768 80.8436.0012.4242-7.3298 4.2318-.0012-.4241z" fill="#fff"/></g></g></g></g></g></g><g><g><g><g><g><path d="m61.5817 82.557.0012.4241-1.2918.7458-.0012-.4241z" fill="#fff"/></g></g></g></g></g><g><g><g><g><g><path d="m61.6157 94.5674.0012.4241-2.864 1.6535-.0012-.4241z" fill="#fff"/></g></g></g></g></g><g enable-background="new"><g><g><g><g><g><path d="m61.6254 98.0026.0012.4241-2.8492 1.645-.0012-.4241z" fill="#fff"/></g></g></g></g></g><g><g><g><g><g><path d="m61.6206 96.2807.0012.4241-5.8905 3.4009-.0012-.4241z" fill="#fff"/></g></g></g></g></g><g><g><g><g><g><path d="m58.0676 100.0567.0012.4241-5.1228 2.9576-.0012-.4241z" fill="#fff"/></g></g></g></g></g><g><g><g><g><g><path d="m58.3014 96.4809.0012.4241-4.8718 2.8127-.0012-.4241z" fill="#fff"/></g></g></g></g></g><g><g><g><g><g><path d="m59.5392 92.3255.0012.4326-6.8279 3.9421-.0013-.4326z" fill="#fff"/></g></g></g></g></g></g><g><g><g><g><g><path d="m61.606 91.1322.0012.4326-1.4985.8651-.0012-.4325z" fill="#fff"/></g></g></g></g></g><g><g><g><g><g><path d="m61.6011 89.4189.0012.4241-4.7094 2.7189-.0012-.4241z" fill="#fff"/></g></g></g></g></g><g><g><g><g><g><path d="m61.6108 92.854.0012.4241-4.5765 2.6423-.0012-.4241z" fill="#fff"/></g></g></g></g></g><g><g><g><g><g><path d="m57.9572 89.8065.0012.4241-5.5214 3.1878-.0012-.4241z" fill="#fff"/></g></g></g></g></g><g><g><g><g><g><path d="m61.5962 87.7055.0013.4241-2.805 1.6195-.0012-.4241z" fill="#fff"/></g></g></g></g></g></g></g></g></g></g></svg>