<svg id="Layer_1" enable-background="new 0 0 131 131" height="512" viewBox="0 0 131 131" width="512" xmlns="http://www.w3.org/2000/svg"><g><g><path d="m129.5012 24.2364-.06 22.98-.01 2.18c0 .6-.21 1.03-.57 1.25l-.97.55-.57.33c.01 0 .01-.01.02-.02-.35.21-.84.19-1.39-.13l-11.92-6.8799v.85l6.45 3.73-.02.97-6.46 3.75-7.97-4.59-9 5.2c.27.23.3.52.0699.77l5.92 3.44c.31.02.62.09.86.22.53.31.53.8 0 1.1-.28.17-.67.2401-1.04.22l-7.2401 4c.07.24-.03.49-.35.68-.52.3-1.37.3-1.9 0-.33-.2-.43-.46-.35-.71l-3.36-1.95c-.53 2.17-2.22 4.27-5.1 5.96l-32.5099 18.77 16.24 9.37c.89-.42 2.12-.43 3.05-.02l17.46-10.15c-.17-.4.0099-.83.54-1.14.82-.47 2.13-.47 2.97.01.63.37.77.9.43 1.35l17.17 9.91c.7-.08 1.46.02 2.02.34.88.51.88 1.33.01 1.83-.65.38-1.6.48-2.41.29l-4.89 2.84 8.73 5.04c.36.21.53.48.53.75v2.13c0 .26-.17.52-.53.72l-31.12 18.08c-.69.4-1.83.4-2.52 0l-16.5-9.53c-.36-.21-.54-.47-.54-.75l.01-2.1c-.02-.27.15-.55.52-.7599l31.12-18.07c.69-.4 1.83-.4 2.53 0l6.97 4.03c.02-.01.02-.03.04-.03l4.73-2.76c-.71-.51-.67-1.25.14-1.72.02-.0099.05-.0099.07-.02l-16.85-9.73c-.8.31-1.85.28-2.57-.12l-17.3 10.06c.47.54.33 1.21-.45 1.66-.98.57-2.55.57-3.53 0-.77-.44-.95-1.08-.55-1.61l-16.33-9.4301-13.5699 7.83c-7 4.04-18.4 4.04-25.4-.04-3.48-2.03-5.22-4.66-5.22-7.33l-.03-4.24c-.2-.1-.4-.21-.6-.32-3.25-1.89-4.88-4.37-4.88-6.86l-.02-6.6c0 .16.02.31.04.46-.23-2.68 1.42-5.41 4.97-7.47 1.36-.78 2.9-1.38 4.54-1.85l-.02-5.99c0 .09.0099.18.02.26-.13-2.81 1.67-5.66 5.41-7.82 5.74-3.31 14.31-3.95 21.15-1.95.7-.64 1.5-1.22 2.45-1.78 2.05-1.18 4.49-1.9901 7.07-2.42l-.04-15.14 15.14-8.7401 15.04 8.7401.05 18.13c2.66.49 5.16 1.34 7.26 2.5699 3.58 2.08 5.31 4.81 5.22 7.54l.04 6.38c0 .2-.03.39-.05.59l3.9 2.27c.39-.12.84-.11 1.23.01l6.9-3.81c-.31-.28-.29-.63.07-.89l-5.73-3.33c-.41.04-.85-.02-1.18-.21-.53-.31-.54-.8-.01-1.1.29-.17.67-.24 1.05-.22l9.2-5.31-7.68-4.44.02-.97 6.46-3.76 1.86 1.07v-.84l-11.43-6.6c-1.06-.62-1.93-2.11-1.92-3.33v-2.19l.03-22.97c0-.6.21-1.03.56-1.23l1.55-.9c.35-.21.83-.17 1.37.13l31.54 18.2c1.05.62 1.92 2.11 1.92 3.33z" fill="#d4dae8"/><g><g><g><path d="m104.0646 101.7992c-.1401 0-.2762-.0727-.3515-.2022-.1123-.193-.0463-.4414.148-.5551l6.3423-3.6859-19.644-11.3418-20.5757 11.9577c-.1242.0714-.2802.0714-.4071 0l-21.1215-12.1942c-.1943-.1123-.2604-.3608-.148-.5551.1137-.1916.3595-.2577.5551-.148l20.9167 12.0766 20.577-11.9577c.1242-.0714.2802-.0714.407 0l20.4541 11.8097c.1255.0727.2022.2062.2022.3515 0 .1441-.0767.2789-.2022.3515l-6.9489 4.0388c-.0634.037-.1334.0542-.2035.0542z" fill="#4c7891"/></g></g><g><path d="m70.3405 68.9923c-.1388 0-.2736-.0714-.3489-.1982-.115-.1929-.0515-.4427.1414-.5564l15.4242-9.1361c.1269-.0753.2815-.0767.4084-.004.0211.0119.041.0264.0595.041l8.2731 4.8079 8.3458-4.6097-7.2608-4.2185c-.1255-.0727-.2022-.2075-.2022-.3515 0-.1454.0767-.2789.2022-.3515l14.1872-8.1912c.193-.1137.4414-.0449.5551.148.1123.1943.0462.4427-.148.5551l-13.5806 7.841 7.274 4.2264c.1269.074.2035.2101.2022.3555-.0013.1467-.0819.2802-.2088.3515l-9.1744 5.0669c-.1255.0687-.2775.0674-.4004-.004l-8.3286-4.8396-15.2129 9.0105c-.0661.0384-.1361.0569-.2075.0569z" fill="#4c7891"/></g><g><g><g><path d="m11.0325 54.9686.0188 6.595c.0052 1.8665.8621 3.7301 2.5769 5.3825l-.0186-6.595c-1.7149-1.6524-2.5718-3.516-2.5771-5.3825z" fill="#d4dae8"/></g></g><g><g><path d="m1.4988 69.8213.0187 6.595c.007 2.4871 1.6342 4.9669 4.8879 6.8578.5388.3131 1.1035.6114 1.7713.8797l-.0187-6.5949c-.6678-.2684-1.2325-.5667-1.7713-.8798-3.2537-1.8908-4.8808-4.3707-4.8879-6.8578z" fill="#d4dae8"/></g></g><g><g><path d="m89.8364 60.7369c0 2.6697-1.7799 5.3397-5.2992 7.4025l-46.884 27.0624c-6.9981 4.0452-18.4056 4.0452-25.4037-.0402-3.4791-2.0226-5.2185-4.6521-5.2185-7.3218l-.0405-6.5937c0 2.6697 1.7799 5.2992 5.259 7.3218 6.9981 4.0857 18.3651 4.0857 25.4037.0405l46.8435-27.0624c3.5193-2.0226 5.2992-4.6926 5.2992-7.3218z" fill="#d4dae8"/></g></g><g><g><path d="m16.4626 47.4079c-6.0952 3.5191-7.0779 8.8723-2.8531 12.9432-2.6027.4622-5.053 1.2823-7.0934 2.4603-6.6376 3.8322-6.6983 10.0503-.1295 13.8677.5388.3131 1.1035.6114 1.7713.8797-2.4149 3.6831-1.0493 8.0373 4.0826 11.0196 7.005 4.0709 18.3836 4.0709 25.4086.015l46.8505-27.0492c7.0508-4.0708 7.0879-10.6617.0829-14.7326-5.3114-3.0867-13.1589-3.8472-19.7067-2.2368-.4102-.2983-.8462-.6114-1.3337-.8947-6.4662-3.7577-16.9694-3.7578-23.4778-.0002-.9556.5517-1.757 1.1332-2.4556 1.7745-6.8363-1.998-15.4125-1.3568-21.1461 1.9535z" fill="#e4e8f4"/></g></g></g><g><g><path d="m47.0911 26.1128.0976 34.429 15.0394 8.7399-.0976-34.429z" fill="#474b59"/></g><g><g><path d="m49.5363 59.1633 11.6031 6.7433v1.4937l-12.8696-7.4793z" fill="#5b5e71"/></g><g><path d="m48.1833 28.0015 1.2664.736.0866 30.4258-1.2665.7577z" fill="#525566"/></g></g><g><path d="m49.4497 28.7375 11.6032 6.7433.0865 30.4258-11.6031-6.7433z" fill="#3f434f"/></g><g><g><path d="m62.1305 34.8527.0976 34.429 15.1378-8.7398-.0976-34.429z" fill="#525566"/></g></g><g><g><path d="m47.0911 26.1128 15.0394 8.7399 15.1378-8.7398-15.0394-8.7399z" fill="#5b5e71"/></g></g><g><g><g><g><path d="m67.0674 34.366.0022.7727 9.3034-5.3714-.0022-.7727z" fill="#748bfd"/></g></g><g enable-background="new"><g><g><path d="m65.6052 35.3533.0014.4868.4001-.231-.0014-.4868z" fill="#f9bb4a"/></g></g><g><g><path d="m66.3568 35.5502-3.2312 1.8655-.0022-.7727 3.2312-1.8655zm-1.8161.9053.4001-.231-.0014-.4868-.4001.231zm1.0659-.6154.4001-.231-.0014-.4868-.4001.231zm-2.1317 1.2307.4001-.231-.0014-.4868-.4001.231z" fill="#d4dae8"/></g></g></g><g><g><path d="m64.5394 35.9687.0013.4868.4002-.231-.0014-.4868z" fill="#f9bb4a"/></g></g><g><g><path d="m63.4735 36.5841.0014.4867.4001-.231-.0014-.4867z" fill="#f9bb4a"/></g></g></g><g><g><g><path d="m67.0674 37.0009.0022.7727 9.3034-5.3713-.0022-.7727z" fill="#748bfd"/></g></g><g enable-background="new"><g><g><path d="m65.6052 37.9883.0014.4868.4001-.231-.0014-.4868z" fill="#f9bb4a"/></g></g><g><g><path d="m66.3568 38.1851-3.2312 1.8655-.0022-.7727 3.2312-1.8655zm-1.8161.9053.4001-.231-.0014-.4868-.4001.231zm1.0659-.6154.4001-.231-.0014-.4868-.4001.231zm-2.1317 1.2308.4001-.231-.0014-.4868-.4001.231z" fill="#d4dae8"/></g></g></g><g><g><path d="m64.5394 38.6036.0013.4868.4002-.231-.0014-.4868z" fill="#f9bb4a"/></g></g><g><g><path d="m63.4735 39.219.0014.4868.4001-.231-.0014-.4868z" fill="#f9bb4a"/></g></g></g><g><g><g><path d="m67.0674 39.6358.0022.7727 9.3034-5.3713-.0022-.7727z" fill="#748bfd"/></g></g><g enable-background="new"><g><g><path d="m65.6052 40.6232.0014.4868.4001-.231-.0014-.4868z" fill="#f9bb4a"/></g></g><g><g><path d="m66.3568 40.8201-3.2312 1.8655-.0022-.7727 3.2312-1.8655zm-1.8161.9053.4001-.231-.0014-.4868-.4001.231zm1.0659-.6154.4001-.231-.0014-.4868-.4001.231zm-2.1317 1.2307.4001-.231-.0014-.4868-.4001.231z" fill="#d4dae8"/></g></g></g><g><g><path d="m64.5394 41.2386.0013.4868.4002-.231-.0014-.4868z" fill="#f9bb4a"/></g></g><g><g><path d="m63.4735 41.8539.0014.4868.4001-.231-.0014-.4868z" fill="#f9bb4a"/></g></g></g><g><g><g><path d="m67.0674 42.2708.0022.7727 9.3034-5.3713-.0022-.7727z" fill="#748bfd"/></g></g><g enable-background="new"><g><g><path d="m65.6052 43.2582.0014.4867.4001-.231-.0014-.4867z" fill="#f9bb4a"/></g></g><g><g><path d="m66.3568 43.455-3.2312 1.8655-.0022-.7727 3.2312-1.8655zm-1.8161.9053.4001-.231-.0014-.4868-.4001.231zm1.0659-.6154.4001-.231-.0014-.4868-.4001.231zm-2.1317 1.2308.4001-.231-.0014-.4868-.4001.231z" fill="#d4dae8"/></g></g></g><g><g><path d="m64.5394 43.8735.0013.4868.4002-.231-.0014-.4868z" fill="#f9bb4a"/></g></g><g><g><path d="m63.4735 44.4889.0014.4868.4001-.231-.0014-.4868z" fill="#f9bb4a"/></g></g></g><g><g><g><path d="m67.0674 44.9057.0022.7727 9.3034-5.3713-.0022-.7727z" fill="#748bfd"/></g></g><g enable-background="new"><g><g><path d="m65.6052 45.8931.0014.4868.4001-.231-.0014-.4868z" fill="#f9bb4a"/></g></g><g><g><path d="m66.3568 46.0899-3.2312 1.8655-.0022-.7727 3.2312-1.8655zm-1.8161.9053.4001-.231-.0014-.4868-.4001.231zm1.0659-.6153.4001-.231-.0014-.4868-.4001.231zm-2.1317 1.2307.4001-.231-.0014-.4868-.4001.231z" fill="#d4dae8"/></g></g></g><g><g><path d="m64.5394 46.5085.0013.4868.4002-.2311-.0014-.4868z" fill="#f9bb4a"/></g></g><g><g><path d="m63.4735 47.1238.0014.4868.4001-.231-.0014-.4868z" fill="#f9bb4a"/></g></g></g><g><g><g><path d="m67.0674 47.5407.0022.7727 9.3034-5.3714-.0022-.7727z" fill="#748bfd"/></g></g><g enable-background="new"><g><g><path d="m65.6052 48.528.0014.4868.4001-.231-.0014-.4868z" fill="#f9bb4a"/></g></g><g><g><path d="m66.3568 48.7249-3.2312 1.8655-.0022-.7727 3.2312-1.8655zm-1.8161.9053.4001-.231-.0014-.4868-.4001.231zm1.0659-.6154.4001-.231-.0014-.4868-.4001.231zm-2.1317 1.2307.4001-.231-.0014-.4868-.4001.231z" fill="#d4dae8"/></g></g></g><g><g><path d="m64.5394 49.1434.0013.4868.4002-.231-.0014-.4868z" fill="#f9bb4a"/></g></g><g><g><path d="m63.4735 49.7588.0014.4867.4001-.231-.0014-.4867z" fill="#f9bb4a"/></g></g></g><g><g><g><path d="m67.0674 50.1756.0022.7727 9.3034-5.3713-.0022-.7727z" fill="#748bfd"/></g></g><g enable-background="new"><g><g><path d="m65.6052 51.163.0014.4868.4001-.231-.0014-.4868z" fill="#f9bb4a"/></g></g><g><g><path d="m66.3568 51.3598-3.2312 1.8655-.0022-.7727 3.2312-1.8655zm-1.8161.9053.4001-.231-.0014-.4868-.4001.231zm1.0659-.6154.4001-.231-.0014-.4868-.4001.231zm-2.1317 1.2308.4001-.231-.0014-.4868-.4001.231z" fill="#d4dae8"/></g></g></g><g><g><path d="m64.5394 51.7783.0013.4868.4002-.231-.0014-.4868z" fill="#f9bb4a"/></g></g><g><g><path d="m63.4735 52.3937.0014.4868.4001-.231-.0014-.4868z" fill="#f9bb4a"/></g></g></g><g><g><g><path d="m67.0674 52.8105.0022.7727 9.3034-5.3713-.0022-.7727z" fill="#748bfd"/></g></g><g enable-background="new"><g><g><path d="m65.6052 53.7979.0014.4868.4001-.231-.0014-.4868z" fill="#f9bb4a"/></g></g><g><g><path d="m66.3568 53.9948-3.2312 1.8655-.0022-.7727 3.2312-1.8655zm-1.8161.9053.4001-.231-.0014-.4868-.4001.231zm1.0659-.6154.4001-.231-.0014-.4868-.4001.231zm-2.1317 1.2307.4001-.231-.0014-.4868-.4001.231z" fill="#d4dae8"/></g></g></g><g><g><path d="m64.5394 54.4133.0013.4868.4002-.231-.0014-.4868z" fill="#f9bb4a"/></g></g><g><g><path d="m63.4735 55.0286.0014.4868.4001-.231-.0014-.4868z" fill="#f9bb4a"/></g></g></g><g><g><g><path d="m67.0674 55.4455.0022.7727 9.3034-5.3713-.0022-.7727z" fill="#748bfd"/></g></g><g enable-background="new"><g><g><path d="m65.6052 56.4329.0014.4867.4001-.231-.0014-.4867z" fill="#f9bb4a"/></g></g><g><g><path d="m66.3568 56.6297-3.2312 1.8655-.0022-.7727 3.2312-1.8655zm-1.8161.9053.4001-.231-.0014-.4868-.4001.231zm1.0659-.6154.4001-.231-.0014-.4868-.4001.231zm-2.1317 1.2308.4001-.231-.0014-.4868-.4001.231z" fill="#d4dae8"/></g></g></g><g><g><path d="m64.5394 57.0482.0013.4868.4002-.231-.0014-.4868z" fill="#f9bb4a"/></g></g><g><g><path d="m63.4735 57.6636.0014.4868.4001-.231-.0014-.4868z" fill="#f9bb4a"/></g></g></g><g><g><g><path d="m67.0674 58.0804.0022.7727 9.3034-5.3713-.0022-.7727z" fill="#748bfd"/></g></g><g enable-background="new"><g><g><path d="m65.6052 59.0678.0014.4868.4001-.231-.0014-.4868z" fill="#f9bb4a"/></g></g><g><g><path d="m66.3568 59.2646-3.2312 1.8655-.0022-.7727 3.2312-1.8655zm-1.8161.9053.4001-.231-.0014-.4868-.4001.231zm1.0659-.6153.4001-.231-.0014-.4868-.4001.231zm-2.1317 1.2307.4001-.231-.0014-.4868-.4001.231z" fill="#d4dae8"/></g></g></g><g><g><path d="m64.5394 59.6832.0013.4868.4002-.2311-.0014-.4867z" fill="#f9bb4a"/></g></g><g><g><path d="m63.4735 60.2985.0014.4868.4001-.231-.0014-.4868z" fill="#f9bb4a"/></g></g></g><g><g><g><path d="m67.0674 60.7154.0022.7727 9.3034-5.3714-.0022-.7726z" fill="#748bfd"/></g></g><g enable-background="new"><g><g><path d="m65.6052 61.7027.0014.4868.4001-.231-.0014-.4868z" fill="#f9bb4a"/></g></g><g><g><path d="m66.3568 61.8996-3.2312 1.8655-.0022-.7727 3.2312-1.8655zm-1.8161.9053.4001-.231-.0014-.4868-.4001.231zm1.0659-.6154.4001-.231-.0014-.4868-.4001.231zm-2.1317 1.2307.4001-.231-.0014-.4868-.4001.231z" fill="#d4dae8"/></g></g></g><g><g><path d="m64.5394 62.3181.0013.4868.4002-.231-.0014-.4868z" fill="#f9bb4a"/></g></g><g><g><path d="m63.4735 62.9335.0014.4867.4001-.231-.0014-.4867z" fill="#f9bb4a"/></g></g></g><g><g><g><path d="m67.0674 63.3503.0022.7727 9.3034-5.3713-.0022-.7727z" fill="#748bfd"/></g></g><g enable-background="new"><g><g><path d="m65.6052 64.3377.0014.4868.4001-.231-.0014-.4868z" fill="#f9bb4a"/></g></g><g><g><path d="m66.3568 64.5345-3.2312 1.8655-.0022-.7727 3.2312-1.8655zm-1.8161.9053.4001-.231-.0014-.4868-.4001.231zm1.0659-.6153.4001-.231-.0014-.4868-.4001.231zm-2.1317 1.2307.4001-.231-.0014-.4868-.4001.231z" fill="#d4dae8"/></g></g></g><g><g><path d="m64.5394 64.953.0013.4868.4002-.231-.0014-.4868z" fill="#f9bb4a"/></g></g><g><g><path d="m63.4735 65.5684.0014.4868.4001-.231-.0014-.4868z" fill="#f9bb4a"/></g></g></g></g><g><g enable-background="new"><g><g><path d="m50.0775 58.3949v.4546l2.0673 1.2014 8.4534 4.8816v-.4654z" fill="#9ad898"/></g></g><g><g><path d="m50.0666 56.663.0109.4439 10.5207 6.0721-.0108-.4437z" fill="#9ad898"/></g></g><g><g><path d="m50.0666 54.9204v.4546l10.5208 6.0722v-.4546z" fill="#9ad898"/></g></g><g><g><path d="m50.0558 53.1778.0108.4437 10.5208 6.0723-.0108-.4438z" fill="#9ad898"/></g></g><g><g><path d="m50.0558 51.4243v.4546l10.5208 6.083v-.4546z" fill="#9ad898"/></g></g><g><g><path d="m50.045 49.6817.0108.4546 10.5208 6.0722-.0108-.4546z" fill="#9ad898"/></g></g><g><g><path d="m50.045 47.939v.4547l10.5208 6.0721v-.4438z" fill="#9ad898"/></g></g><g><g><path d="m50.045 46.1964v.4438l10.5208 6.083v-.4546z" fill="#9ad898"/></g></g><g><g><path d="m50.0341 44.4538v.4437l10.5208 6.0723v-.4439z" fill="#9ad898"/></g></g><g><g><path d="m50.0341 42.7003v.4654l10.5208 6.0722v-.4546z" fill="#9ad898"/></g></g><g><g><path d="m50.0234 40.9685v.4546l10.5207 6.0722v-.4546z" fill="#9ad898"/></g></g><g><g><path d="m50.0234 39.2259v.4545l10.5207 6.0723v-.4547z" fill="#9ad898"/></g></g><g><g><path d="m50.0125 37.4832v.4438l10.5208 6.0722v-.4438z" fill="#9ad898"/></g></g><g><g><path d="m50.0125 35.7406v.4546l10.5208 6.0721v-.4545z" fill="#9ad898"/></g></g><g><g><path d="m50.0017 33.9979v.4438l10.5207 6.0722v-.4438z" fill="#9ad898"/></g></g><g><g><path d="m50.0017 32.2445v.4654l10.5207 6.0722v-.4546z" fill="#9ad898"/></g></g><g><g><path d="m49.9909 30.5127v.4437l10.5208 6.0722v-.4438z" fill="#9ad898"/></g></g></g></g></g><g><g><path d="m113.9962 53.8003 6.4642-3.7566.0236-.9699-6.4642 3.7566z" fill="#525566"/><path d="m114.0198 52.8304 6.4642-3.7566-16.4597-9.503-6.4642 3.7566z" fill="#5b5e71"/><path d="m97.5601 43.3274-.0236.9699 16.4597 9.503.0236-.9699z" fill="#474b59"/></g><path d="m112.2451 41.041 2.6185-1.5217-6.5597-3.7873-2.6186 1.5217z" fill="#4e5161"/><path d="m112.1319 48.6523 1.8879-1.0972.0251-7.5206-1.888 1.0972z" fill="#bac1ce"/><path d="m105.8887 37.5127-.0251 7.5206 6.2683 3.619.025-7.5206z" fill="#cad0dd"/><path d="m118.1746 44.3655-11.2733-6.5513-2.0155 1.3256 11.2733 6.5513z" fill="#eaf0f6"/><path d="m93.1118 3.4801c.3314-.1795.8982-.1634 1.4229.1541l31.4915 18.1803c1.0631.6075 1.933 2.1126 1.933 3.3277l-.069 22.962v2.1954c-.0138.6075-.2209 1.0356-.5661 1.2289l.5661-.3314.9735-.547c.359-.2209.5661-.6489.5661-1.2565l.0138-2.1816.0552-22.9759c0-1.2151-.8699-2.7062-1.9192-3.3276l-31.5367-18.1983c-.5385-.3038-1.0218-.3452-1.3669-.1381z" fill="#5b5e71"/><path d="m92.5357 27.674 35.3544 20.4302.069-22.962c0-1.2151-.8699-2.7063-1.933-3.3277l-31.5366-18.1985c-1.0632-.6214-1.933-.1243-1.933 1.0908z" fill="#3f434f"/><path d="m93.8008 26.6184 32.8345 18.9702.0632-20.449c0-.7583-.6319-1.8452-1.3144-2.2369l-31.5581-18.2119z" fill="#fed57a"/><path d="m92.5357 27.674-.0062 2.1904c-.0035 1.225.857 2.7154 1.9231 3.3309l31.4952 18.1838c1.0719.6188 1.938.1253 1.9415-1.0997l.0062-2.1904z" fill="#e4e8f4"/><path d="m109.4467 39.5258c0 .5335.3735 1.1603.8269 1.4271.4535.2668.8269.0534.8269-.4668 0-.5335-.36-1.1737-.8269-1.4404-.4534-.2534-.8269-.04-.8269.4801z" fill="#bac1ce"/></g><g><g><path d="m103.8799 58.8411c.5278.3047.5306.7947.0062 1.0994s-1.3702.3047-1.8981 0c-.5381-.3107-.5409-.8007-.0165-1.1054s1.3703-.3047 1.9084.006z" fill="#f9607f"/></g></g><g><g><path d="m96.8774 54.2708c.5278.3047.5306.7947.0062 1.0994s-1.3702.3047-1.8981 0c-.5381-.3107-.5409-.8007-.0165-1.1054s1.3703-.3047 1.9084.006z" fill="#576cfb"/></g></g><g><g><path d="m95.2471 63.7322c.5278.3047.5306.7947.0062 1.0994s-1.3702.3047-1.8981 0c-.5381-.3107-.5409-.8007-.0165-1.1054.5243-.3047 1.3702-.3047 1.9084.006z" fill="#bac1ce"/></g></g><g><g><path d="m92.2878 84.9773c.82.4734.8242 1.2345.0096 1.7079s-2.1286.4734-2.9486 0c-.836-.4827-.8403-1.2438-.0257-1.7172.8147-.4734 2.1287-.4733 2.9647.0093z" fill="#fa5168"/></g></g><g><g><path d="m111.9127 96.5788c.8789.5075.8835 1.3233.0103 1.8308-.8732.5074-2.2818.5075-3.1607 0-.8961-.5174-.9007-1.3333-.0275-1.8408.8732-.5074 2.2818-.5073 3.1779.01z" fill="#576cfb"/></g></g><g><g><path d="m71.6183 96.37c.9825.5672.9876 1.4792.0115 2.0464-.976.5672-2.5505.5672-3.533 0-1.0017-.5783-1.0068-1.4904-.0308-2.0575.9761-.5672 2.5506-.5672 3.5523.0111z" fill="#bac1ce"/></g></g><g><g><g><g><path d="m113.8787 107.3209v2.1362c0 .2621-.1704.5242-.5243.7208l-31.1187 18.0737c-.6945.4063-1.8347.4063-2.5294 0l-16.4998-9.5277c-.3539-.2097-.5374-.4718-.5374-.7469l.0131-2.1362c0 .2752.1704.5373.5243.747l16.4998 9.5276c.7077.4063 1.8348.4063 2.5294 0l31.1318-18.0737c.3408-.1965.5112-.4586.5112-.7208z" fill="#525566"/></g></g></g><g><g><g><path d="m113.3504 106.5764c.7028.4058.7065 1.0628.0165 1.4638l-31.1248 18.0698c-.6983.4058-1.8326.4058-2.5354 0l-16.5006-9.5266c-.7028-.4058-.7065-1.0628-.0083-1.4686l31.1249-18.0698c.69-.401 1.8243-.401 2.5271.0048z" fill="#5b5e71"/></g></g></g><g><g><g><g><path d="m73.881 119.8848c.4016.2319.4038.6183-.0035.8551-.399.2319-1.0579.2271-1.4595-.0048-.41-.2367-.4122-.6135-.0131-.8454.4072-.2368 1.0661-.2416 1.4761-.0049z" fill="#525566"/></g></g></g><g><g><g><path d="m104.216 102.2739c.2761.1594.2775.4106.0032.57s-.708.1594-.9841 0-.2776-.4106-.0032-.57c.2743-.1594.708-.1594.9841 0z" fill="#525566"/></g></g></g><g><g><g><path d="m80.3258 123.9428c.2426.1401.2439.372.0029.5121-.2494.1449-.6414.1401-.884 0l-1.5229-.8792c-.2427-.1401-.2523-.3671-.0029-.5121.2411-.1401.6414-.1401.8841 0z" fill="#525566"/></g></g></g><g><g><g><path d="m68.5612 117.1505c.2426.1401.2439.372.0029.5121-.2494.1449-.6414.1401-.884 0l-1.5229-.8792c-.2427-.1401-.2523-.3671-.0029-.5121.2411-.1401.6414-.1401.8841 0z" fill="#525566"/></g></g></g><g><g><g><path d="m110.5719 107.9401-27.6884 16.0772-16.1855-9.3378 27.7156-16.0772z" fill="#748bfd"/></g></g></g></g></g><path d="m100.4129 22.1314c-.0205 2.5628 1.8042 5.6996 4.039 6.9913l12.5065 7.2169c1.7427 1.0046 3.1573.205 3.1779-1.8042 0-1.4557-.7586-3.1573-1.8246-4.3465.0409-.2871.0614-.5741.082-.9021 0-2.5423-1.8042-5.6587-4.0185-6.9298-.5535-.328-1.0866-.492-1.5582-.5331-.656-2.3782-2.3168-4.7361-4.2644-5.8637-2.5219-1.4557-4.5925-.2871-4.5925 2.6244 0 .328.0204.656.0614 1.0046-2.0094-.9227-3.6086.1434-3.6086 2.5422z" fill="#fff"/><path d="m92.2708 108.679c1.0447.6031 1.2208 1.4954.5543 2.1812.3286.0909.643.2065.9149.3635 1.2593.7271 1.2802 1.9085.0149 2.6438l-.0712.0248c.7885.7188.637 1.6689-.4435 2.2968-1.2369.7188-3.2623.7188-4.5359-.0165l-9.2157-5.3207c-1.2593-.727-1.2659-1.9002-.029-2.619 1.0378-.6031 2.649-.7105 3.8637-.3057l.0568-.0496c1.2653-.7353 3.2764-.7436 4.5357-.0165.2719.157.4583.3305.602.5123 1.196-.3801 2.737-.281 3.753.3056z" fill="#e4e8f4"/><g><g><g><path d="m15.2419 73.928.0225 4.4801c0 .1585.0906.2943.2943.4301l14.8269 8.6018c.3848.2263 1.0638.249 1.4713.0227l14.9174-8.6244c.2036-.1133.3168-.2716.3168-.4301l-.0225-4.5027c0 .1585-.0906.3169-.3169.4528l-14.8948 8.6018c-.4074.2263-1.0865.2263-1.4939 0l-14.8268-8.6245c-.2038-.1133-.2943-.2717-.2943-.4076z" fill="#416e84"/></g></g><g><g><path d="m15.5446 74.3392 14.8108 8.6095c.4092.236 1.086.236 1.4953.0157l14.9053-8.6094c.4249-.2518.4091-.6453.0157-.8814l-14.8266-8.6096c-.4092-.236-1.0545-.236-1.4795.0158l-14.921 8.6095c-.3935.236-.4092.6139 0 .8499z" fill="#4c7891"/></g></g><g><g><path d="m24.4954 74.4083 6.6243 3.862 6.6992-3.8745-6.6368-3.8496z" fill="#363a44"/></g><g><g><path d="m23.633 73.9083.8624.5 6.6867-3.8621v-.9998z" fill="#416e84"/></g><g><path d="m31.1821 69.5464v.9998l6.6368 3.8496.8624-.5z" fill="#37617b"/></g></g></g><g><path d="m32.6702 73.327c.8499.4907.8543 1.2779.01 1.7686-.8344.4849-2.1936.485-3.0435-.0057-.8399-.4849-.8443-1.2723-.0099-1.7572.8443-.4906 2.2035-.4906 3.0434-.0057z" fill="#748bfd"/></g><g><g><path d="m41.1083 78.9928c.3964-.2288.7292-.0497.7305.4163.0013.4555-.3294 1.0283-.7258 1.2571s-.7292.0391-.7305-.4163c-.0013-.466.3295-1.0283.7258-1.2571z" fill="#f9bb4a"/></g></g><g><g><path d="m43.2744 77.7422c.3964-.2288.7292-.0497.7305.4163.0013.4555-.3294 1.0283-.7258 1.2571s-.7292.0391-.7305-.4163c-.0013-.466.3294-1.0283.7258-1.2571z" fill="#75ca75"/></g></g><g><g><path d="m45.4405 76.4916c.3964-.2288.7292-.0497.7305.4163.0013.4555-.3294 1.0283-.7258 1.2571-.4056.2342-.7293.0391-.7305-.4163-.0013-.466.3202-1.0229.7258-1.2571z" fill="#d4dae8"/></g></g><g><g><path d="m17.4345 77.1947c-.3549-.2049-.653-.0445-.6542.3728-.0012.4079.295.9208.6499 1.1257.3632.2097.653.0351.6542-.3728.0012-.4172-.2868-.916-.6499-1.1257z" fill="#f9607f"/></g></g><g><g><path d="m28.4047 83.6431-.0021 1.207-9.5004-5.4851.002-1.207z" fill="#f9607f"/></g></g></g><g><path d="m16.7592 71.7779.0203 2.3463c0 .1427.0816.265.265.3873l13.3505 7.7453c.3465.2038.9579.2242 1.3248.0204l13.432-7.7657c.1834-.102.2853-.2446.2853-.3873l-.0203-2.3667c0 .1427-.0816.2854-.2854.4077l-13.4116 7.7453c-.3669.2038-.9783.2038-1.3452 0l-13.3504-7.7657c-.1835-.102-.265-.2446-.265-.3669z" fill="#9ad898"/><path d="m17.0318 72.1481 13.336 7.7522c.3685.2125.9779.2125 1.3464.0141l13.4211-7.7521c.3826-.2267.3684-.581.0141-.7936l-13.3502-6.3705c-.3685-.2125-.9495-.2125-1.3322.0142l-13.4352 6.3705c-.3543.2124-.3685.5527 0 .7652z" fill="#748bfd"/></g><g><g><g><path d="m15.2419 67.2758.0225 4.4801c0 .1585.0906.2943.2943.4301l14.8269 8.6018c.3848.2263 1.0638.249 1.4713.0227l14.9174-8.6244c.2036-.1133.3168-.2716.3168-.4301l-.0225-4.5027c0 .1585-.0906.3169-.3169.4528l-14.8948 8.6018c-.4074.2263-1.0865.2263-1.4939 0l-14.8268-8.6244c-.2038-.1134-.2943-.2718-.2943-.4077z" fill="#416e84"/></g></g><g><g><path d="m15.5446 67.687 14.8108 8.6095c.4092.236 1.086.236 1.4953.0157l14.9053-8.6094c.4249-.2518.4091-.6453.0157-.8814l-14.8265-8.6095c-.4092-.236-1.0545-.236-1.4795.0158l-14.921 8.6095c-.3936.2359-.4093.6138-.0001.8498z" fill="#4c7891"/></g></g><g><g><path d="m24.4954 67.7561 6.6243 3.862 6.6992-3.8745-6.6368-3.8496z" fill="#363a44"/></g><g><g><path d="m23.633 67.2561.8624.5 6.6867-3.8621v-.9998z" fill="#416e84"/></g><g><path d="m31.1821 62.8942v.9998l6.6368 3.8496.8624-.5z" fill="#37617b"/></g></g></g><g><path d="m32.6702 66.6748c.8499.4907.8543 1.2779.01 1.7686-.8344.4849-2.1936.485-3.0435-.0057-.8399-.4849-.8443-1.2722-.0099-1.7572.8443-.4906 2.2035-.4906 3.0434-.0057z" fill="#748bfd"/></g><g><g><path d="m41.1083 72.3406c.3964-.2288.7292-.0497.7305.4163.0013.4555-.3294 1.0283-.7258 1.2571s-.7292.0391-.7305-.4163c-.0013-.466.3295-1.0283.7258-1.2571z" fill="#f9bb4a"/></g></g><g><g><path d="m43.2744 71.09c.3964-.2288.7292-.0497.7305.4163.0013.4555-.3294 1.0283-.7258 1.2571-.3964.2289-.7292.0391-.7305-.4163-.0013-.466.3294-1.0283.7258-1.2571z" fill="#75ca75"/></g></g><g><g><path d="m45.4405 69.8394c.3964-.2288.7292-.0497.7305.4163.0013.4555-.3294 1.0283-.7258 1.2571-.4056.2341-.7293.0391-.7305-.4163-.0013-.466.3202-1.0229.7258-1.2571z" fill="#748bfd"/></g></g><g><g><path d="m17.4345 70.5425c-.3549-.2049-.653-.0445-.6542.3728-.0012.4079.295.9208.6499 1.1257.3632.2097.653.035.6542-.3728.0012-.4172-.2868-.916-.6499-1.1257z" fill="#e4e8f4"/></g></g><g><g><path d="m28.4047 76.9909-.0021 1.207-9.5004-5.4851.002-1.207z" fill="#e4e8f4"/></g></g></g><g><path d="m16.7592 65.1257.0203 2.3463c0 .1427.0816.265.265.3873l13.3505 7.7453c.3465.2038.9579.2242 1.3248.0204l13.432-7.7657c.1834-.102.2853-.2446.2853-.3873l-.0203-2.3667c0 .1427-.0816.2854-.2854.4077l-13.4116 7.7453c-.3669.2038-.9783.2038-1.3452 0l-13.3504-7.7657c-.1835-.102-.265-.2446-.265-.3669z" fill="#9ad898"/><path d="m17.0318 65.4959 13.336 7.7522c.3685.2125.9779.2125 1.3464.0141l13.4211-7.7521c.3826-.2267.3684-.581.0141-.7936l-13.3502-6.3705c-.3685-.2125-.9495-.2125-1.3322.0142l-13.4352 6.3705c-.3543.2125-.3685.5527 0 .7652z" fill="#748bfd"/></g><g><g><g><path d="m15.2419 60.3864.0225 4.4801c0 .1585.0906.2943.2943.4301l14.8269 8.6018c.3848.2263 1.0638.249 1.4713.0227l14.9174-8.6245c.2036-.1133.3168-.2716.3168-.4301l-.0225-4.5028c0 .1585-.0906.3169-.3169.4528l-14.8948 8.6018c-.4074.2263-1.0865.2263-1.4939 0l-14.8268-8.6244c-.2038-.1133-.2943-.2717-.2943-.4075z" fill="#416e84"/></g></g><g><g><path d="m15.5446 60.7975 14.8108 8.6095c.4092.236 1.086.236 1.4953.0157l14.9053-8.6094c.4249-.2518.4091-.6453.0157-.8814l-14.8265-8.6095c-.4092-.236-1.0545-.236-1.4795.0158l-14.921 8.6095c-.3936.236-.4093.6138-.0001.8498z" fill="#4c7891"/></g></g><g><g><path d="m24.4954 60.8666 6.6243 3.862 6.6992-3.8745-6.6368-3.8495z" fill="#363a44"/></g><g><g><path d="m23.633 60.3667.8624.4999 6.6867-3.862v-.9999z" fill="#416e84"/></g><g><path d="m31.1821 56.0047v.9999l6.6368 3.8495.8624-.5z" fill="#37617b"/></g></g></g><g><path d="m32.6702 59.7854c.8499.4907.8543 1.2779.01 1.7686-.8344.4849-2.1936.485-3.0435-.0057-.8399-.4849-.8443-1.2723-.0099-1.7572.8443-.4907 2.2035-.4906 3.0434-.0057z" fill="#748bfd"/></g><g><g><path d="m41.1083 65.4511c.3964-.2288.7292-.0497.7305.4163.0013.4555-.3294 1.0283-.7258 1.2571-.3964.2289-.7292.0391-.7305-.4163-.0013-.466.3295-1.0283.7258-1.2571z" fill="#f9bb4a"/></g></g><g><g><path d="m43.2744 64.2005c.3964-.2288.7292-.0497.7305.4163.0013.4555-.3294 1.0283-.7258 1.2571s-.7292.0391-.7305-.4163c-.0013-.466.3294-1.0282.7258-1.2571z" fill="#75ca75"/></g></g><g><g><path d="m45.4405 62.9499c.3964-.2288.7292-.0497.7305.4163.0013.4555-.3294 1.0283-.7258 1.2571-.4056.2341-.7293.0391-.7305-.4163-.0013-.4659.3202-1.0229.7258-1.2571z" fill="#f9607f"/></g></g><g><g><path d="m17.4345 63.6531c-.3549-.2049-.653-.0445-.6542.3728-.0012.4079.295.9208.6499 1.1257.3632.2097.653.0351.6542-.3728.0012-.4173-.2868-.9161-.6499-1.1257z" fill="#f9bb4a"/></g></g><g><g><path d="m28.4047 70.1014-.0021 1.207-9.5004-5.485.002-1.2071z" fill="#f9bb4a"/></g></g></g></g></g></g></svg>