<svg id="Layer_1" enable-background="new 0 0 50 50" height="512" viewBox="0 0 50 50" width="512" xmlns="http://www.w3.org/2000/svg"><g><g><path d="m41.753 17.7048v.5737l-15.8342 9.1406 14.7562 8.5782v.5766l-15.2562-8.8647-16.0199 9.25-.25-.4302z" fill="#9da9c1"/><g><g><g><g><g><path d="m11.4761 28.1304 11.4393 6.6472c.3363.1924.8853.1924 1.2217 0l16.1973-9.3546c.3363-.192.3363-.508 0-.7068l-11.4393-6.6475c-.3294-.1924-.8785-.1924-1.2148 0l-16.1973 9.3546c-.3364.1923-.3364.508-.0069.7071z" fill="#b4bed7"/></g><g><g><path d="m16.3941 26.861-1.21.7032-.9403-.5428 1.21-.7032z" fill="#414a61"/></g><g><path d="m14.7671 27.8066-1.2134.7051-.9403-.5428 1.2134-.7052z" fill="#414a61"/></g><g><path d="m23.6415 25.3866-1.21.7032-.9403-.5428 1.21-.7032z" fill="#414a61"/></g><g><path d="m25.2719 24.4391-1.2133.7052-.9403-.5429 1.2134-.7051z" fill="#414a61"/></g><g><path d="m24.6955 23.4035-1.2134.7051-.9368-.5409 1.2134-.7051z" fill="#414a61"/></g><g><path d="m22.9091 23.075-1.2134.7051-.9403-.5429 1.2134-.7051z" fill="#414a61"/></g><g><path d="m20.3874 27.2777-1.2134.7052-.9403-.5429 1.2134-.7051z" fill="#414a61"/></g><g enable-background="new"><g><path d="m21.2787 24.0225-1.21.7031-.9403-.5428 1.21-.7032z" fill="#414a61"/></g><g><path d="m23.065 24.351-1.21.7032-.9368-.5409 1.21-.7032z" fill="#414a61"/></g><g><path d="m19.6516 24.968-1.2134.7051-.9403-.5428 1.2134-.7052z" fill="#414a61"/></g><g><path d="m21.438 25.2965-1.2134.7052-.9368-.5409 1.2134-.7051z" fill="#414a61"/></g><g><path d="m18.0245 25.9135-1.2133.7052-.9403-.5429 1.2134-.7051z" fill="#414a61"/></g><g><path d="m19.8076 26.244-1.2101.7032-.9368-.5409 1.21-.7031z" fill="#414a61"/></g></g><g><path d="m27.7937 20.2364-1.2134.7051-.9403-.5429 1.2134-.7051z" fill="#414a61"/></g><g><path d="m28.5261 22.5481-1.21.7031-.9403-.5428 1.21-.7032z" fill="#414a61"/></g><g><path d="m27.9496 21.5124-1.21.7032-.9368-.5409 1.21-.7032z" fill="#414a61"/></g><g><path d="m26.1632 21.1839-1.21.7031-.9403-.5428 1.21-.7032z" fill="#414a61"/></g><g><path d="m24.5362 22.1294-1.2134.7051-.9403-.5428 1.2134-.7052z" fill="#414a61"/></g><g><path d="m29.4207 19.2908-1.2098.7031-.9403-.5429 1.2098-.7031z" fill="#414a61"/></g><g><path d="m18.1805 27.1896-1.21.7032-.9368-.5409 1.21-.7032z" fill="#414a61"/></g><g><path d="m29.2653 24.8598-1.2133.7051-.9403-.5428 1.2134-.7052z" fill="#414a61"/></g><g><path d="m28.0822 24.1767-1.2134.7051-.9403-.5428 1.2134-.7052z" fill="#414a61"/></g><g><path d="m26.899 23.4936-1.2134.7051-.9402-.5428 1.2133-.7052z" fill="#414a61"/></g><g><path d="m26.3225 22.4579-1.2133.7052-.9368-.5409 1.2133-.7051z" fill="#414a61"/></g><g enable-background="new"><g><path d="m32.5228 22.9667-1.2134.7052-.9402-.5429 1.2133-.7051z" fill="#414a61"/></g><g><path d="m30.8924 23.9142-1.21.7032-.9403-.5428 1.21-.7032z" fill="#414a61"/></g></g><g enable-background="new"><g><path d="m31.7836 20.655-2.8405 1.6507-.9403-.5429 2.8405-1.6507z" fill="#414a61"/></g><g><path d="m31.3397 22.2836-1.2134.7052-.9403-.5429 1.2134-.7051z" fill="#414a61"/></g></g><g><path d="m30.6004 19.9719-2.2337 1.2981-.9369-.5408 2.2338-1.2982z" fill="#414a61"/></g><g enable-background="new"><g><path d="m26.4551 25.1222-1.2134.7052-.9402-.5429 1.2133-.7051z" fill="#414a61"/></g><g><path d="m24.8247 26.0697-1.21.7032-.9403-.5428 1.21-.7032z" fill="#414a61"/></g><g><path d="m23.1976 27.0153-1.2134.7051-.9402-.5428 1.2133-.7052z" fill="#414a61"/></g><g><path d="m21.5706 27.9608-1.2134.7052-.9403-.5429 1.2134-.7051z" fill="#414a61"/></g><g><path d="m27.7073 25.7652-6.167 3.5839-.9402-.5429 6.1669-3.5838z" fill="#414a61"/></g></g><g><path d="m22.0145 26.3322-1.2134.7051-.9403-.5428 1.2134-.7052z" fill="#414a61"/></g><g enable-background="new"><g><path d="m19.9401 28.9083-1.21.7032-.9403-.5429 1.21-.7031z" fill="#414a61"/></g><g><path d="m18.757 28.2252-2.8405 1.6507-.9403-.5429 2.8405-1.6506z" fill="#414a61"/></g><g><path d="m18.3131 29.8539-1.2134.7051-.9403-.5429 1.2134-.7051z" fill="#414a61"/></g><g><path d="m21.1233 29.5914-2.8405 1.6507-.9402-.5429 2.8404-1.6506z" fill="#414a61"/></g></g><g><path d="m34.1499 22.0212-1.2098.7031-.9403-.5429 1.2098-.7031z" fill="#414a61"/></g><g><path d="m16.5534 28.1351-1.82 1.0577-.9368-.5408 1.82-1.0578z" fill="#414a61"/></g></g><g><path d="m25.3905 28.5691c-.1353.0781-.136.2036-.0015.2817l3.1434 1.8268c.1345.0782.3511.0781.4864 0l6.4587-3.7289c.1328-.0767.136-.2036.0015-.2817l-3.1435-1.8268c-.1345-.0782-.3535-.0767-.4864 0z" fill="#9da9c1"/></g><g><path d="m11.2305 27.7795v.8402c0 .1274.0861.2549.2514.3512l11.4374 6.6458c.3374.1962.8815.1962 1.2189 0l16.1976-9.3487c.1687-.0999.2548-.2273.2548-.3548l-.0034-.8435c0 .1274-.0861.2583-.2548.3546l-16.1977 9.3523c-.3374.1962-.8815.1962-1.2155 0l-11.4409-6.6491c-.1652-.0967-.2478-.2206-.2478-.348z" fill="#4c5671"/></g></g><g><g><path d="m10.8378 16.0645.031 11.0119c0 .3857.2755.5441.6129.3479l16.1976-9.3523c.3374-.1929.6095-.668.6095-1.0537l-.031-11.0086c-.0034-.3891-.2755-.5474-.6164-.3511l-16.1942 9.3487c-.3373.1964-.6094.6681-.6094 1.0572z" fill="#373f51"/></g><path d="m27.6473 6.4702.0291 10.8418-16.1984 9.3522-.0292-10.8418z" fill="#5793fb"/><g><path d="m10.3593 15.7849.031 11.0119c0 .1929.0654.3272.1756.3926l.482.2761c-.1102-.0619-.1791-.1996-.1791-.3891l-.031-11.0119c0-.3891.272-.8608.6095-1.0571l16.1942-9.3487c.1722-.0999.3237-.1103.4373-.0449l-.482-.2796c-.1102-.0619-.2651-.0551-.4339.0447l-16.1977 9.3489c-.3373.1962-.6093.6714-.6059 1.0571z" fill="#4c5671"/></g></g></g></g></g><g><g><g><g><path d="m44.0253 12.9463.0047 8.6063 4.9821-2.8764-.0046-8.6064z" fill="#d3dbea"/></g><g><path d="m39.0731 10.0683.0046 8.6064 4.9523 2.8779-.0047-8.6063z" fill="#b4bed7"/></g><g><path d="m39.0734 10.0669 4.9534 2.878 4.9813-2.8739-4.9534-2.8778z" fill="#e3e7f0"/></g></g><g><g><path d="m44.0271 10.9657.0041 1.4602 4.472-2.5819-.0041-1.4602z" fill="#b4bed7"/></g><g><path d="m39.5819 8.3824.0042 1.4603 4.4451 2.5832-.0041-1.4602z" fill="#9da9c1"/></g></g><path d="m44.0253 9.5624.0047 2.1341 4.9821-2.8764-.0046-2.1341z" fill="#d3dbea"/><path d="m39.0731 6.6845.0046 2.134 4.9523 2.878-.0047-2.1341z" fill="#b4bed7"/><path d="m39.0734 6.6831 4.9534 2.878 4.9813-2.8739-4.9534-2.8778z" fill="#e3e7f0"/><g><path d="m44.0268 8.6548-3.3848-1.9676 3.4087-1.9718 3.3888 1.9677z" fill="#4c5671"/></g><g><g><path d="m39.742 11.9.0034.4123 3.6156 2.1012-.0033-.4123z" fill="#4c5671"/></g><g><path d="m39.742 13.2269.0034.4123 3.6156 2.1012-.0033-.4123z" fill="#4c5671"/></g><g><path d="m39.742 14.5537.0034.4123 3.6156 2.1012-.0033-.4123z" fill="#4c5671"/></g><g><path d="m39.742 15.8806.0034.4123 3.6156 2.1012-.0033-.4123z" fill="#4c5671"/></g><g><path d="m39.742 17.2074.0034.4123 3.6156 2.1012-.0033-.4123z" fill="#4c5671"/></g></g><g><g><path d="m40.3548 8.3112-.0011.3761-.3273-.189.001-.3761z" fill="#ed5d71"/></g><g><path d="m41.0376 8.7054-.0011.3761-.3273-.189.001-.3761z" fill="#ed5d71"/></g><g><path d="m41.7204 9.0996-.0011.3761-.3273-.189.001-.3761z" fill="#ed5d71"/></g><g><path d="m42.4032 9.4938-.0011.3761-.3367-.1944.0011-.3761z" fill="#ed5d71"/></g><g><path d="m43.0766 9.8827-.001.376-.3274-.189.0011-.3761z" fill="#ed5d71"/></g></g><g><g><path d="m47.7154 8.312.0011.3761.3273-.189-.001-.3761z" fill="#77cb77"/></g><g><path d="m47.0326 8.7062.0011.3761.3273-.189-.001-.3761z" fill="#77cb77"/></g><g><path d="m46.3498 9.1004.0011.3761.3273-.189-.001-.3761z" fill="#77cb77"/></g><g><path d="m45.667 9.4946.0011.3761.3367-.1944-.001-.3761z" fill="#77cb77"/></g><g><path d="m44.9936 9.8834.001.3761.3274-.189-.0011-.3761z" fill="#77cb77"/></g></g></g><g><g><g><path d="m5.9402 35.37.0046 8.6064 4.9821-2.8764-.0046-8.6064z" fill="#d3dbea"/></g><g><path d="m.9879 32.4921.0046 8.6063 4.9523 2.878-.0046-8.6064z" fill="#b4bed7"/></g><g><path d="m.9883 32.4907 4.9534 2.878 4.9813-2.8739-4.9534-2.8778z" fill="#e3e7f0"/></g></g><g><g><path d="m5.942 33.3894.0041 1.4603 4.472-2.5819-.0042-1.4602z" fill="#b4bed7"/></g><g><path d="m1.4968 30.8062.0041 1.4602 4.4452 2.5833-.0041-1.4603z" fill="#9da9c1"/></g></g><path d="m5.9402 31.9862.0046 2.1341 4.9821-2.8765-.0046-2.1341z" fill="#d3dbea"/><path d="m.9879 29.1082.0046 2.1341 4.9523 2.878-.0046-2.1341z" fill="#b4bed7"/><path d="m.9883 29.1069 4.9534 2.878 4.9813-2.8739-4.9534-2.8778z" fill="#e3e7f0"/><g><path d="m5.9416 31.0786-3.3847-1.9676 3.4087-1.9718 3.3888 1.9677z" fill="#4c5671"/></g><g><g><path d="m1.6568 34.3238.0034.4123 3.6157 2.1012-.0034-.4123z" fill="#4c5671"/></g><g><path d="m1.6568 35.6507.0034.4122 3.6157 2.1012-.0034-.4122z" fill="#4c5671"/></g><g><path d="m1.6568 36.9775.0034.4123 3.6157 2.1012-.0034-.4123z" fill="#4c5671"/></g><g><path d="m1.6568 38.3043.0034.4123 3.6157 2.1012-.0034-.4123z" fill="#4c5671"/></g><g><path d="m1.6568 39.6312.0034.4123 3.6157 2.1012-.0034-.4123z" fill="#4c5671"/></g></g><g><g><path d="m2.2697 30.735-.0011.3761-.3274-.189.0011-.3761z" fill="#ed5d71"/></g><g><path d="m2.9525 31.1292-.0011.3761-.3274-.189.0011-.3761z" fill="#ed5d71"/></g><g><path d="m3.6352 31.5234-.001.3761-.3274-.189.0011-.3761z" fill="#ed5d71"/></g><g><path d="m4.318 31.9176-.001.3761-.3367-.1944.001-.3761z" fill="#ed5d71"/></g><g><path d="m4.9915 32.3064-.0011.3761-.3273-.189.001-.3761z" fill="#ed5d71"/></g></g><g><g><path d="m9.6303 30.7357.001.3761.3274-.189-.0011-.3761z" fill="#77cb77"/></g><g><path d="m8.9475 31.1299.001.3761.3274-.189-.0011-.3761z" fill="#77cb77"/></g><g><path d="m8.2647 31.5241.0011.3761.3273-.1889-.0011-.3761z" fill="#77cb77"/></g><g><path d="m7.5819 31.9184.0011.3761.3367-.1944-.0011-.3761z" fill="#77cb77"/></g><g><path d="m6.9084 32.3072.0011.3761.3274-.189-.0011-.3761z" fill="#77cb77"/></g></g></g></g><g><g><g><path d="m44.0012 37.5843.0046 8.6063 4.9821-2.8764-.0046-8.6064z" fill="#d3dbea"/></g><g><path d="m39.0489 34.7063.0046 8.6064 4.9523 2.8779-.0046-8.6063z" fill="#b4bed7"/></g><g><path d="m39.0492 34.7049 4.9534 2.878 4.9813-2.8739-4.9534-2.8778z" fill="#e3e7f0"/></g></g><g><g><path d="m44.0029 35.6037.0042 1.4602 4.4719-2.5819-.0041-1.4602z" fill="#b4bed7"/></g><g><path d="m39.5578 33.0204.0041 1.4603 4.4452 2.5832-.0042-1.4602z" fill="#9da9c1"/></g></g><path d="m44.0012 34.2004.0046 2.1341 4.9821-2.8764-.0046-2.1341z" fill="#d3dbea"/><path d="m39.0489 31.3225.0046 2.134 4.9523 2.878-.0046-2.1341z" fill="#b4bed7"/><path d="m39.0492 31.3211 4.9534 2.878 4.9813-2.8739-4.9534-2.8778z" fill="#e3e7f0"/><g><path d="m44.0026 33.2928-3.3847-1.9677 3.4087-1.9718 3.3888 1.9677z" fill="#4c5671"/></g><g><g><path d="m39.7178 36.538.0034.4123 3.6157 2.1012-.0034-.4123z" fill="#4c5671"/></g><g><path d="m39.7178 37.8649.0034.4123 3.6157 2.1012-.0034-.4123z" fill="#4c5671"/></g><g><path d="m39.7178 39.1917.0034.4123 3.6157 2.1012-.0034-.4123z" fill="#4c5671"/></g><g><path d="m39.7178 40.5186.0034.4123 3.6157 2.1012-.0034-.4123z" fill="#4c5671"/></g><g><path d="m39.7178 41.8454.0034.4123 3.6157 2.1012-.0034-.4123z" fill="#4c5671"/></g></g><g><g><path d="m40.3306 32.9492-.001.3761-.3274-.189.0011-.3761z" fill="#ed5d71"/></g><g><path d="m41.0134 33.3434-.001.3761-.3274-.189.0011-.3761z" fill="#ed5d71"/></g><g><path d="m41.6962 33.7376-.0011.3761-.3273-.189.0011-.3761z" fill="#ed5d71"/></g><g><path d="m42.379 34.1318-.001.3761-.3368-.1944.0011-.3761z" fill="#ed5d71"/></g><g><path d="m43.0525 34.5207-.0011.376-.3274-.189.0011-.3761z" fill="#ed5d71"/></g></g><g><g><path d="m47.6912 32.95.0011.3761.3274-.189-.0011-.3761z" fill="#77cb77"/></g><g><path d="m47.0084 33.3442.0011.3761.3274-.189-.0011-.3761z" fill="#77cb77"/></g><g><path d="m46.3257 33.7384.001.3761.3274-.189-.0011-.3761z" fill="#77cb77"/></g><g><path d="m45.6429 34.1326.001.3761.3367-.1944-.001-.3761z" fill="#77cb77"/></g><g><path d="m44.9694 34.5214.0011.3761.3273-.189-.001-.3761z" fill="#77cb77"/></g></g></g></g></g></svg>