<svg id="icons" enable-background="new 0 0 64 64" height="512" viewBox="0 0 64 64" width="512" xmlns="http://www.w3.org/2000/svg"><path d="m58 38.012h-2.99-4c-.55 0-1-.451-1-1v-4.01-3.99c0-.551.45-1 1-1h10.99c.55 0 1 .449 1 1v8c0 .549-.45 1-1 1z" fill="#5d9cec"/><path d="m58.5 38.012 1 2.99h-5.991l1-2.99z" fill="#ccd1d9"/><path d="m14 36.75v1.25h-13v-12h5l1 2h7v4z" fill="#ffce54"/><path d="m13.998 39h-12.997c-.553 0-1-.447-1-1v-11.998c0-.553.447-1 1-1h5.001c.379 0 .726.213.895.553l.724 1.449h6.378c.553 0 1 .447 1 1v9.996c-.001.553-.448 1-1.001 1zm-11.997-2h10.997v-7.996h-5.996c-.379 0-.726-.215-.895-.553l-.724-1.449h-3.382z" fill="#ffce54"/><path d="m60.002 42h-6.999c-.553 0-1-.447-1-1s.447-1 1-1h6.999c.553 0 1 .447 1 1s-.447 1-1 1z" fill="#e6e9ed"/><path d="m50.006 34.004h-36.008c-.553 0-1-.447-1-1s.447-1 1-1h36.008c.553 0 1 .447 1 1s-.447 1-1 1z" fill="#434a54"/><path d="m13.998 37.752c-.553 0-1-.447-1-1v-8.748c0-.553.447-1 1-1s1 .447 1 1v8.748c0 .553-.447 1-1 1z" fill="#ffce54"/><path d="m32.009 26.004c-.553 0-1-.447-1-1v-10c0-.553.447-1 1-1s1 .447 1 1v10c0 .553-.447 1-1 1z" fill="#434a54"/><path d="m32.009 52.002c-.553 0-1-.447-1-1v-10.002c0-.553.447-1 1-1s1 .447 1 1v10.002c0 .553-.447 1-1 1z" fill="#434a54"/><path d="m23.007 33h17.99v8h-17.99z" fill="#545c66"/><path d="m40.998 42.002h-17.996c-.553 0-1-.447-1-1v-7.996c0-.553.447-1 1-1h17.996c.553 0 1 .447 1 1v7.996c0 .553-.447 1-1 1zm-16.996-2h15.996v-5.996h-15.996z" fill="#545c66"/><path d="m27.032 38.498c-.827 0-1.503-.67-1.503-1.496 0-.828.661-1.496 1.487-1.496h.016c.826 0 1.497.668 1.497 1.496 0 .826-.671 1.496-1.497 1.496z" fill="#5d9cec"/><path d="m34.001 39c-.15 0-.303-.033-.446-.105-.494-.246-.694-.848-.447-1.342l1-2c.248-.494.847-.691 1.342-.447.494.248.694.848.447 1.342l-1 2c-.176.351-.529.552-.896.552z" fill="#434a54"/><path d="m37.001 39c-.15 0-.303-.033-.446-.105-.494-.246-.694-.848-.447-1.342l1-2c.248-.494.849-.691 1.342-.447.494.248.694.848.447 1.342l-1 2c-.176.351-.529.552-.896.552z" fill="#434a54"/><path d="m23.007 22.996h17.99v8h-17.99z" fill="#656d78"/><path d="m40.998 31.996h-17.996c-.553 0-1-.447-1-1v-7.994c0-.553.447-1 1-1h17.996c.553 0 1 .447 1 1v7.994c0 .553-.447 1-1 1zm-16.996-2h15.996v-5.994h-15.996z" fill="#656d78"/><path d="m27.032 28.492c-.827 0-1.503-.668-1.503-1.496 0-.826.661-1.496 1.487-1.496h.016c.826 0 1.497.67 1.497 1.496 0 .828-.671 1.496-1.497 1.496z" fill="#5d9cec"/><path d="m34.001 28.996c-.15 0-.303-.035-.446-.105-.494-.248-.694-.848-.447-1.342l1-2c.248-.494.847-.693 1.342-.447.494.246.694.848.447 1.342l-1 2c-.176.349-.529.552-.896.552z" fill="#545c66"/><path d="m37.001 28.996c-.15 0-.303-.035-.446-.105-.494-.248-.694-.848-.447-1.342l1-2c.248-.494.849-.693 1.342-.447.494.246.694.848.447 1.342l-1 2c-.176.349-.529.552-.896.552z" fill="#545c66"/><path d="m61.999 39.008h-10.993c-1.103 0-2-.898-2-2v-7.996c0-1.104.897-2 2-2h10.993c1.103 0 2 .896 2 2v7.996c0 1.101-.897 2-2 2zm0-2v1zm-10.993-7.996v7.996h10.989l.004-7.996z" fill="#e6e9ed"/><path d="m38.979 52.021v1.98h-13.959-.02v-2h.01c0-.551.44-1 .99-1h.02 5.99 5.96c.55 0 1 .449 1.01 1v.02z" fill="#ccd1d9"/><path d="m39 54.002v9h-13.98v-9h13.959z" fill="#e6e9ed"/><g fill="#ccd1d9"><path d="m25.001 53.002c-.552 0-.997-.451-.997-1.004 0-1.1.895-1.994 1.995-1.994.553 0 1 .447 1 1s-.447 1-1 1c0 .553-.445.998-.998.998z"/><path d="m25.002 56.004c-.553 0-1-.447-1-1v-3.002c0-.553.447-1 1-1s1 .447 1 1v3.002c0 .553-.447 1-1 1z"/><path d="m38.982 53.02c-.553 0-1-.447-1-1 0-.008-.007-.016-.018-.016-.553 0-1-.447-1-1s.447-1 1-1c1.112 0 2.018.904 2.018 2.016 0 .552-.447 1-1 1z"/><path d="m38.98 56.004c-.553 0-1-.447-1-1v-3.002c0-.553.447-1 1-1s1 .447 1 1v3.002c0 .553-.447 1-1 1z"/><path d="m37.965 52.004h-11.947c-.553 0-1-.447-1-1s.447-1 1-1h11.947c.553 0 1 .447 1 1s-.447 1-1 1z"/><path d="m35.997 58.004h-7.998c-.553 0-1-.447-1-1s.447-1 1-1h7.998c.553 0 1 .447 1 1s-.447 1-1 1z"/><path d="m32.994 61.004h-1.992c-.553 0-1-.447-1-1s.447-1 1-1h1.992c.553 0 1 .447 1 1s-.447 1-1 1z"/></g><path d="m38.998 64h-13.978c-.553 0-1-.447-1-1v-8.998c0-.553.447-1 1-1h13.979c.553 0 1 .447 1 1v8.998c-.001.553-.448 1-1.001 1zm-12.978-2h11.979v-6.998h-11.979z" fill="#e6e9ed"/><path d="m24.02 53.002h15.979v1h-15.979z" fill="#e6e9ed"/><path d="m38 4h-4v-4z" fill="#f5f7fa"/><path d="m38 4v12.002h-5.99-6.01v-16.002h8v4z" fill="#e6e9ed"/></svg>