<svg id="icons" enable-background="new 0 0 64 64" height="512" viewBox="0 0 64 64" width="512" xmlns="http://www.w3.org/2000/svg"><path d="m46.471 40.5 4 4.01h-14.991l-.009-.09v-3.92z" fill="#f6bb42"/><path d="m62.471 44.51v17.99h-26.991v-5.73-12.26h14.991 2.478z" fill="#ffce54"/><path d="m36.48 24.5h-7c-1.66 0-3-1.34-3-3s1.34-3 3-3h-6.01c-1.66 0-3-1.34-3-3s1.34-3 3-3h12c-1.66 0-3-1.34-3-3s1.34-3 3-3h11l.02-.021c6.719 5.21 11.039 13.361 11.039 22.521 0 .5-.01 1-.039 1.5h-.08-20.93c-1.66 0-3-1.34-3-3s1.34-3 3-3z" fill="#a0d468"/><path d="m35.471 12.5h-12c-1.66 0-3 1.34-3 3s1.34 3 3 3h6.01c-1.66 0-3 1.34-3 3s1.34 3 3 3h7c-1.66 0-3 1.34-3 3s1.34 3 3 3h20.93.08c-.26 5.149-1.891 9.93-4.541 14v.01h-2.479l-4-4.01h-11v3.92l.01.09v12.26c-2.07.48-4.23.73-6.451.73-7.68 0-14.66-3.04-19.779-8h13.221c1.658 0 3-1.34 3-3s-1.342-3-3-3h-5c1.658 0 3-1.34 3-3s-1.342-3-3-3h-6c1.658 0 3-1.34 3-3s-1.342-3-3-3h-10.822c-.08-.82-.121-1.66-.121-2.5 0-15.74 12.76-28.5 28.5-28.5 6.58 0 12.641 2.229 17.461 5.979l-.019.021h-11c-1.66 0-3 1.34-3 3s1.34 3 3 3z" fill="#4a89dc"/><path d="m17.471 43.5h5c1.658 0 3 1.34 3 3s-1.342 3-3 3h-13.221c-4.811-4.62-8-10.94-8.6-18h10.82c1.658 0 3 1.34 3 3s-1.342 3-3 3h6c1.658 0 3 1.34 3 3s-1.341 3-2.999 3z" fill="#a0d468"/><g fill="#f6bb42"><path d="m35.471 45.418c-.553 0-1-.447-1-1v-3.916c0-.553.447-1 1-1s1 .447 1 1v3.916c0 .553-.448 1-1 1z"/><path d="m46.471 41.502h-11c-.553 0-1-.447-1-1s.447-1 1-1h11c.553 0 1 .447 1 1s-.448 1-1 1z"/><path d="m50.471 45.504c-.256 0-.512-.098-.707-.293l-4-4.002c-.391-.391-.391-1.023 0-1.414s1.023-.391 1.414 0l4 4.002c.391.391.391 1.023 0 1.414-.196.195-.451.293-.707.293z"/></g><path d="m62.471 63.5h-26.994c-.553 0-1-.447-1-1v-17.996c0-.553.447-1 1-1h26.994c.553 0 1 .447 1 1v17.996c0 .553-.448 1-1 1zm-25.994-2h24.994v-15.996h-24.994z" fill="#ffce54"/></svg>