<svg id="Layer_1" enable-background="new 0 0 50 50" height="512" viewBox="0 0 50 50" width="512" xmlns="http://www.w3.org/2000/svg"><g><g><g><g><g><g><g><g><g><g><path d="m43.5177 34.6652-.0115 3.6151c0 .3435-.2177.6759-.6646.9394l-16.1687 9.3849c-.8938.5271-2.3376.5271-3.2315 0l-16.2834-9.396c-.4469-.2635-.6761-.5959-.6761-.94l.0115-3.6263c0 .3435.2292.6871.676.9512l16.2834 9.3961c.8938.5159 2.3376.5159 3.2315 0l16.1687-9.3961c.4469-.2642.6647-.596.6647-.9283z" fill="#3a53d0"/></g><g><path d="m42.8401 33.7173c.8999.5196.9045 1.356.0105 1.8755l-16.1656 9.3944c-.894.5195-2.338.5196-3.2379 0l-16.2786-9.3984c-.8926-.5153-.9045-1.356-.0105-1.8755l16.1656-9.3944c.894-.5195 2.3453-.5154 3.2379 0z" fill="#5793fb"/></g></g><path d="m42.8925 37.3873-16.26 9.4377c-.8683.512-2.2814.5124-3.1512-.0004l-16.3729-9.4478c-.3786-.2238-.5913-.5041-.6208-.7953l-.0001.0194c-.0015.3812.1886.7446.5164.9391.0023.0013.0045.0027.0068.004l16.3729 9.4478c.4614.2724 1.0676.4084 1.6737.4084.6062 0 1.2123-.136 1.673-.408l16.26-9.4373c.0023-.0013.0045-.0026.0067-.004.3245-.1928.5134-.5519.5148-.9293l.0004-.0937c-.0007.3237-.2149.6209-.6197.8594z" fill="#7bb1ff"/></g><g fill="#7bb1ff"><g><path d="m42.2421 37.6376c-.0716-.0407-.1597-.0339-.2532.0192-.171.0991-.3044.33-.3037.5259.0008.1059.0399.1861.11.2268.0309.0173.0648.026.101.026.0482 0 .1002-.0151.1522-.0456.171-.0987.3044-.3297.3037-.5256-.0008-.1058-.0399-.1864-.11-.2267z"/><path d="m40.7795 38.3553c-.171.0983-.3044.3297-.3037.5256 0 .1055.0392.1861.11.2268.0301.0177.064.0264.101.0264.0475 0 .0995-.0151.1515-.0456.171-.098.3044-.3289.3044-.5256-.0008-.1059-.0399-.1865-.1108-.2272-.0693-.0407-.1612-.0335-.2524.0196z"/><path d="m39.5694 39.0538c-.171.0987-.3044.3297-.3037.5259.0008.1055.0399.1861.11.2268.0309.0173.0648.026.101.026.0482 0 .1002-.0151.1522-.0456.171-.0987.3044-.3297.3037-.5256-.0008-.1059-.0399-.1865-.11-.2268-.0716-.041-.1605-.0339-.2532.0193z"/><path d="m38.36 39.7523c-.171.0983-.3044.3289-.3044.5259.0008.1055.0399.1861.1108.2268.0301.0173.064.026.1002.026.0482 0 .1002-.0151.1522-.0456.1695-.0976.3022-.3278.3014-.5244-.0008-.1066-.0399-.1876-.1108-.2283-.07-.0403-.1589-.0332-.2494.0196z"/><path d="m37.1477 40.4523c-.1703.0976-.3022.3282-.3014.5241 0 .1066.0392.1876.11.2283.0301.0173.064.0264.0995.026.0475 0 .0987-.0151.1507-.0452.171-.0983.3044-.3293.3037-.5256 0-.1055-.0392-.1861-.11-.2268-.0702-.0411-.1614-.0339-.2525.0192z"/><path d="m35.9375 41.1508c-.171.0987-.3044.3297-.3037.5259.0008.1055.0399.1861.11.2264.0309.0177.0648.0264.101.0264.0482 0 .1002-.0151.1522-.0456.171-.0991.3044-.3297.3037-.5259-.0008-.1055-.0399-.1861-.11-.2268-.0723-.0407-.1605-.0336-.2532.0196z"/><path d="m34.7282 41.8493c-.171.098-.3044.3289-.3044.5259.0008.1055.0399.1861.11.2264.0309.0177.0648.0264.101.0264.0482 0 .0995-.0151.1522-.0456.171-.0983.3044-.3293.3037-.5256 0-.1055-.0392-.1861-.11-.2268-.0702-.041-.1614-.0339-.2525.0193z"/><path d="m33.518 42.5474c-.171.0991-.3044.33-.3037.5259 0 .1055.0392.1861.11.2268.0301.0177.064.0264.1002.0264.0482 0 .1002-.0151.1522-.0456.171-.0983.3044-.3289.3044-.5259-.0008-.1059-.0399-.1861-.11-.2268-.0715-.0407-.1596-.0336-.2531.0192z"/><path d="m32.3079 43.2459c-.171.0991-.3044.33-.3037.5263.0008.1055.0399.1861.11.2264.0309.0177.0648.0264.101.0264.0482 0 .1002-.0154.1522-.0456.171-.0991.3044-.33.3037-.5256 0-.1055-.0392-.1861-.1093-.2268-.0708-.0406-.1612-.0346-.2539.0189z"/><path d="m31.0985 43.9444c-.171.0987-.3044.3297-.3037.5259 0 .1055.0392.1861.11.2268.0301.0177.064.0264.1002.0264.0482 0 .1002-.0151.1522-.0456.171-.0983.3044-.3293.3044-.5259-.0008-.1059-.0399-.1861-.1108-.2268-.0699-.0407-.1603-.0336-.2523.0192z"/><path d="m29.8884 44.6429c-.171.0991-.3044.33-.3037.5259.0008.1059.0399.1861.11.2268.0309.0177.0648.0264.101.0264.0482 0 .1002-.0154.1522-.0456.1688-.0976.3014-.3282.3014-.5244-.0008-.1066-.0399-.1876-.11-.2283-.0701-.04-.159-.0339-.2509.0192z"/><path d="m28.679 45.3414c-.171.0983-.3044.3293-.3044.5259.0008.1059.0399.1861.1108.2268.0301.0177.0648.0264.101.0264.0475 0 .0995-.0151.1515-.0456.1695-.0976.3022-.3282.3014-.5244-.0008-.1066-.0399-.188-.1108-.2283-.0694-.0403-.1583-.0332-.2495.0192z"/><path d="m27.4666 46.0414c-.171.0983-.3044.3293-.3044.5259.0008.1059.0399.1861.1108.2268.0301.0177.064.0264.1002.0264.0482 0 .1002-.0154.1522-.046.171-.098.3044-.3289.3044-.5256-.0008-.1059-.0399-.1865-.1108-.2268-.0693-.0402-.1597-.0346-.2524.0193z"/></g><g><path d="m7.8147 37.6376c.0716-.0407.1597-.0339.2532.0192.171.0991.3044.33.3037.5259-.0008.1059-.0399.1861-.11.2268-.0309.0173-.0648.026-.101.026-.0482 0-.1002-.0151-.1522-.0456-.171-.0987-.3044-.3297-.3037-.5256.0008-.1058.04-.1864.11-.2267z"/><path d="m9.2773 38.3553c.171.0983.3044.3297.3037.5256 0 .1055-.0392.1861-.11.2268-.0301.0177-.064.0264-.101.0264-.0475 0-.0995-.0151-.1515-.0456-.171-.098-.3044-.3289-.3044-.5256.0008-.1059.0399-.1865.1108-.2272.0693-.0407.1612-.0335.2524.0196z"/><path d="m10.4874 39.0538c.171.0987.3044.3297.3037.5259-.0008.1055-.0399.1861-.11.2268-.0309.0173-.0648.026-.101.026-.0482 0-.1002-.0151-.1522-.0456-.171-.0987-.3044-.3297-.3037-.5256.0008-.1059.0399-.1865.11-.2268.0716-.041.1605-.0339.2532.0193z"/><path d="m11.6968 39.7523c.171.0983.3044.3289.3044.5259-.0008.1055-.0399.1861-.1108.2268-.0301.0173-.064.026-.1002.026-.0482 0-.1002-.0151-.1522-.0456-.1695-.0976-.3022-.3278-.3014-.5244.0008-.1066.0399-.1876.1108-.2283.0701-.0403.159-.0332.2494.0196z"/><path d="m12.9092 40.4523c.1703.0976.3022.3282.3014.5241 0 .1066-.0392.1876-.11.2283-.0301.0173-.064.0264-.0995.026-.0475 0-.0987-.0151-.1507-.0452-.171-.0983-.3044-.3293-.3037-.5256 0-.1055.0392-.1861.11-.2268.0701-.0411.1613-.0339.2525.0192z"/><path d="m14.1193 41.1508c.171.0987.3044.3297.3037.5259-.0008.1055-.0399.1861-.11.2264-.0309.0177-.0648.0264-.101.0264-.0482 0-.1002-.0151-.1522-.0456-.171-.0991-.3044-.3297-.3037-.5259.0008-.1055.0399-.1861.11-.2268.0724-.0407.1605-.0336.2532.0196z"/><path d="m15.3287 41.8493c.171.098.3044.3289.3044.5259-.0008.1055-.0399.1861-.11.2264-.0309.0177-.0648.0264-.101.0264-.0482 0-.0995-.0151-.1522-.0456-.171-.0983-.3044-.3293-.3037-.5256 0-.1055.0392-.1861.11-.2268.0701-.041.1613-.0339.2525.0193z"/><path d="m16.5388 42.5474c.171.0991.3044.33.3037.5259 0 .1055-.0392.1861-.11.2268-.0301.0177-.064.0264-.1002.0264-.0482 0-.1002-.0151-.1522-.0456-.171-.0983-.3044-.3289-.3044-.5259.0008-.1059.0399-.1861.11-.2268.0715-.0407.1597-.0336.2531.0192z"/><path d="m17.7489 43.2459c.171.0991.3044.33.3037.5263-.0008.1055-.0399.1861-.11.2264-.0309.0177-.0648.0264-.101.0264-.0482 0-.1002-.0154-.1522-.0456-.171-.0991-.3044-.33-.3037-.5256 0-.1055.0392-.1861.1093-.2268.0708-.0406.1613-.0346.2539.0189z"/><path d="m18.9583 43.9444c.171.0987.3044.3297.3037.5259 0 .1055-.0392.1861-.11.2268-.0301.0177-.064.0264-.1002.0264-.0482 0-.1002-.0151-.1522-.0456-.171-.0983-.3044-.3293-.3044-.5259.0008-.1059.0399-.1861.1108-.2268.07-.0407.1604-.0336.2523.0192z"/><path d="m20.1684 44.6429c.171.0991.3044.33.3037.5259-.0008.1059-.0399.1861-.11.2268-.0309.0177-.0648.0264-.101.0264-.0482 0-.1002-.0154-.1522-.0456-.1688-.0976-.3014-.3282-.3014-.5244.0008-.1066.0399-.1876.11-.2283.0701-.04.159-.0339.2509.0192z"/><path d="m21.3778 45.3414c.171.0983.3044.3293.3044.5259-.0008.1059-.0399.1861-.1108.2268-.0301.0177-.0648.0264-.101.0264-.0475 0-.0995-.0151-.1515-.0456-.1695-.0976-.3022-.3282-.3014-.5244.0008-.1066.0399-.188.1108-.2283.0694-.0403.1583-.0332.2495.0192z"/><path d="m22.5902 46.0414c.171.0983.3044.3293.3044.5259-.0008.1059-.0399.1861-.1108.2268-.0301.0177-.064.0264-.1002.0264-.0482 0-.1002-.0154-.1522-.046-.171-.098-.3044-.3289-.3044-.5256.0008-.1059.0399-.1865.1108-.2268.0693-.0402.1597-.0346.2524.0193z"/></g></g></g><g><g><path d="m40.1798 33.7198c.7657.4421.7697 1.1538.0089 1.5959l-13.7556 7.9939c-.7607.4421-1.9894.4421-2.7552 0l-13.8516-7.9973c-.7595-.4385-.7697-1.1538-.009-1.5959l13.7556-7.9939c.7607-.4421 1.9957-.4385 2.7552 0z" fill="#fff"/></g></g><g><g><path d="m38.2955 29.938c.6707.3872.6741 1.0105.0078 1.3977l-12.0475 7.0013c-.6663.3872-1.7424.3872-2.4131 0l-12.1318-7.0043c-.6652-.3841-.6741-1.0106-.0078-1.3977l12.0476-7.0013c.6663-.3872 1.7479-.3841 2.4131 0z" fill="#7bb1ff"/></g></g><g><path d="m38.8005 30.6444-.0085 3.8687c0 .256-.1623.5037-.4953.7001l-12.0499 6.9942c-.6661.3928-1.7421.3928-2.4083 0l-12.1353-7.0025c-.3331-.1964-.5039-.4441-.5039-.7005l.0085-3.8771c0 .256.1708.5121.5038.7089l12.1354 7.0025c.6661.3845 1.7421.3845 2.4083 0l12.0499-7.0025c.333-.1968.4953-.4441.4953-.6918z" fill="#3a53d0"/></g></g><g><g><path d="m30.128 27.3291c2.8475 1.644 2.8627 4.3105.0335 5.9546-2.8288 1.6439-7.4326 1.6441-10.2801 0-2.8475-1.644-2.8623-4.3107-.0335-5.9546 2.8291-1.6441 7.4326-1.644 10.2801 0z" fill="#fff"/></g></g></g><g><g><circle cx="24.996" cy="11.725" fill="#7bb1ff" r="9.759"/><g fill="#5793fb"><path d="m31.2605 6.4894c-.0377.1431-.0398.2665-.0372.3901.0075.3585-.3434.0505-.5715.2814-.3682.3734-.5247.5129-.7311.5352-.149.016-.2303.107-.1308.1971.1049.0951.1074.1859.1021.3001-.0104.2248-.0102.3817-.5777.3606-.3017-.011-.1129-.0031-.2346.7062.1233.0537.2219.0968.3403.1484.1417-.0799.3004-.0745.4389.0664.1399-.1691-.134-.1306.6853-.9402.1269-.1254.6824.0068.9013.0939.4246.1692.3328.1154.5315.5862.1674-.0128.2728-.4126.0219-.5249-.1785-.0799-.3217-.1893-.3231-.3885.3217.0686.0271.3178.5452.344.2752.014.2522.1224.4975.7187.3439-.1535.18-.2036.3259-.4945.4511.1881.1393.5496.5844.5525.6905.0043.9102-.2001.6169.5275-.0533.1326-.1706.188-.3365.2031-1.2176.1109-1.3969-.5193-1.5004.0398-.0435.2355-.2654-.0202-.3654-.0646-.9304-.4118-.8642-.1333-.6329-.7796-.3604.0266-1.9747.0681-2.0679.5844-.4747-.0778-.3507.2042-.4482.3043-.1088.1114-.2555.2058-.219.3788.0043.0204-.0426.0655-.0729.0707-.1609.0282-.1894.1416-.2529.2406-.0287.0447-.3724.3712-.3526.4128.2115.4429-.341.9196.2104 1.3638.196.158.4827 1.076 1.9808.6555.5894-.1657.2449.0883.7297.1359.0665.0065.1774.0532.1808.088.0124.1257.0351.2767-.0334.3761-.2486.3601.4006.6989.3687 1.1559-.1297 1.8552.4516 2.2353.7305 3.2297 1.5059-1.6298 2.4636-3.7733 2.5784-6.1389-.3012-.4313-.2772-.5505-.4461-.9846-.2612-.6718-.2198-.4501-.1811-.6643.5371.1023.1524.3017.4802.6975.0484.0585.1052.1128.1517.1716-.057-1.8895-.649-3.6441-1.6327-5.1161-.1003.0421-.8904 1.231-1.8544.1794z"/><path d="m26.0015 15.1721c-.0295.0536-.0589.1365-.1125.15-.4968.1334-.1847.7676-.5892 1.047-.0402.0296-.083.0804-.1259.0804-.2625 0-.3428.2169-.5303.3053-.1586.0738.1342.5128-.4579.8167-.2345.1174-.0957.5058-.7498.2892-.0214.0133-.0455.0241-.0669.0348.0589.091.1018.1927.1821.2678.2177.192-.1897.4235-.5008.4017-.0916.1004-.2876.2149-.6052.9721-.0241.0562.0884.1527.1446.2437-.0107.1164-.5114-.0083-.0241 1.1087-.1824-.0135-.1504.0554-.8838-.383-.1639-.0957-.1478-.0876-.0803-2.2362 0-.1106.1454-.343.1526-.4633.146-1.833.2484-2.064-.1794-2.2201-.7508-.2719-.4308-.8171-.6588-1.0766-.7241-.8205.5589-1.1671.2062-1.7139-.008-.0133-.008-.0322 0-.0536-.1687.0081-.3053.0161-.3401.0322-.3214-.1285-.6213-.2732-.8088-.541-.1309-.1854-.2261-.036-.6615-.3936-.084-.0721-1.3236.0344-1.5934-.8463-.0777-.2543-.2249-.4659-.407-.6695-.1939-.2216-.1631-.4041-.4526-.4607.1741.3134.3508.6267.5249.9428-.0268.016-.0536.0348-.0803.0535-.4163-.2778-.5606-.9865-.9159-1.2641-.3401-.2597-.557-.6453-.6213-1.039.64-1.8639 1.8237-3.4733 3.3663-4.6329 0 .0026-.0027.0054-.0054.008-.0536.059-.0589.1527-.083.233.2529.016.4223.059.4526-.0322.1098-.2811.4499-.3401.6882-.4981.2598.2277.2598.2277.2062.4553.091-.0188.1741-.0296.2544-.051.3908-.1097.3731.6063-.4552.8731-.692.2275-.6423.8919-.5356.9132.2329.0569-.0212.343.4044.3266.4169-.0164.1146.1985.541.225.2357.008.2598.0241.2437.2249-.0161.2035.1901.2464.3856.3481.0565-.4394.0562-.5839.166-.6936.0991-.1017.1687-.2009.1152-.3374-.0295-.0755.0162-.4442-.008-.5624-.0241-.1126.0214-.1474.1339-.1581.3745-.0405.3182.0209.9775.3803-.0134.1126-.0268.233-.0429.3562.0375.0188.075.0375.1098.0562.0937-.1204.1848-.241.2785-.3642.0268.008.0536.0135.083.0187.1446.4714.4553.8302 1.0257 1.1274-2.0068.8035-1.0244 1.1667-1.4809 1.2025-.2259.0197-.5003.0032-.4419.2785.0689.3361-.562-.0076-.6588.5731-.0536.3026-.2249.5436-.5169.7391-.3569.2444-.0628.808-.15 1.0043-.1526-.1526-.3937-.2384-.4124-.474-.0066-.1323-.2665-.1628-.3642-.1981-.1098-.0429-.1901-.0483-.2276.0723-.0402.1285-.1285.0991-.2276.0428-1.0192-.5725-1.0081 1.8836-.1794 1.3551.1232-.083.2223-.1874.3481-.2945.4731.0453.1016.1145.1366.6399 0 .0322.1312.0938.1768.0803.2608-.0797.2896.1492.3267.4607.0295.3053.0268.3107.383.3508.0402.0054.2062.0161.4071.0268.0027-.0027.0054-.0054.008-.0081.351-.3028.5985-.509.9346-.3187.406.2353 1.0449-.0208 1.2667.6294.0509.1446.1259.1981.3053.1474.2491-.0724.5704.1071.6026.3266.0764.5299.5197.2997.8007.383.3883.1204.6802.3588.9801.5865.2618.1957.0762.5083-.0831.7932z"/><path d="m24.0656 2.2345c-.0392.0902.1399.3041.1393.3159-.0111.2282.1591.2154.3486.1948.2735-.0299.2105.06.3232.8513.0247.173.1689.0977.0969 1.0396-.0293.3822.0601.6845.4371.9518.0312-.0907.0571-.1591.078-.2284.0918-.3047.1691-.6162.454-.8463.1718-.1389.2041-.4196.554-.3843.0342.0035.0762-.0416.1134-.0655.2855-.184.0952-.5469.3992-1.0669.0508-.087.114-.1488.0836-.2507-.0545-.1828.0486-.3718-.0173-.5553-.9089-.1973-1.7747-.2548-2.6225-.2086-.0293.0294-.0609.0523-.0772.0496-.211-.0357-.267.1035-.3103.203z"/><path d="m20.9548 3.0801c.0875.0162.1799.0144.2701.0205.0076.0143.0152.0284.0228.0426-.0707.0411-.135.0995-.2135.1198-.1504.0388-.2926.1179-.2684.2348.0405.1953.2287.4126.6004.3716.4674-.0514 1.1069.2297.8552.6695-.1005.1755-.3076.104-.4661.1743-.0259.2142.2804.1404.4607.2229.2483.114.4913.2362.7298.352.1213-.4223.3436-.0129-.009-.7066.2732.031.4502.1132.4594-.0935.0033-.0751-.0399-.1612-.0915-.2265-.0879-.1113-.1937-.2138-.3009-.3133-.2731-.2538-.4949-.5742-1.0067-.5143-.0825.0098-.1884-.056-.2627-.1076-.0183-.0128.0476-.1068.0701-.1649.0122-.0314.0074-.0679.0221-.0979.033-.0677.0566-.1462.1138-.1967.2971-.2615.3942-.2509.6907-.6107-.6312.1572-1.2381.3754-1.814.6487-.0005.0024.0011.0056.0001.0076-.0664.1311.0399.1494.1376.1677z"/></g></g><g><path d="m15.4803 7.4127c.1258.2657.267.5362.4125.8078.0679-.1743.1479-.3423.2253-.5116-.0822-.1608-.1711-.3233-.246-.4816-1.1205-2.3655-1.2797-4.2067-.435-5.0509.8429-.8446 2.6854-.6851 5.0501.4359 2.4679 1.1688 5.2464 3.2322 7.8235 5.8097 2.5771 2.5771 4.6405 5.3552 5.8092 7.8231 1.1205 2.3655 1.2797 4.2063.435 5.0509-.358.358-.8963.5357-1.5776.5357-.9234 0-2.1116-.3267-3.4725-.9716-.1559-.0736-.3162-.1612-.4744-.2421-.1727.0787-.35.1481-.5278.2167.2746.1473.5479.2899.8161.4172 2.5788 1.2213 4.5474 1.3461 5.5426.3504.9961-.9961.8717-2.9647-.3495-5.5427-1.1899-2.5115-3.2829-5.3328-5.8947-7.9441-2.6109-2.6114-5.4326-4.7052-7.9437-5.8951-1.4278-.6762-2.6677-1.0164-3.6596-1.0164-.7998 0-1.4388.2217-1.8831.6661-.9961.9961-.8717 2.9643.3496 5.5426z" fill="#373f51"/></g><g><path d="m20.4872 20.8601c-2.3647 1.121-4.2063 1.2801-5.0501.4359-.8446-.8442-.6855-2.6854.435-5.0509 1.1688-2.4675 3.2322-5.2456 5.8092-7.8231 2.5771-2.5771 5.3556-4.6405 7.8235-5.8097 1.3609-.6449 2.5483-.9716 3.4725-.9716.6813 0 1.2196.1777 1.5776.5357.8446.8446.6855 2.6854-.435 5.0509-.0732.1549-.1602.314-.2403.4706.0797.1743.1435.3563.2131.5357.1481-.2763.2913-.551.4191-.8209 1.2213-2.5779 1.3457-4.5465.3495-5.5426-.9953-.9953-2.9622-.8717-5.5426.3504-2.5111 1.1904-5.3328 3.2838-7.9437 5.8951-2.6118 2.6114-4.7048 5.4326-5.8947 7.9441-1.2213 2.5784-1.3457 4.5465-.3495 5.5426.4443.4443 1.0833.6661 1.8831.6661.9919 0 2.2318-.3402 3.6596-1.0164.2678-.1269.5407-.2691.815-.4164-.1776-.0686-.3539-.1392-.5263-.2179-.1585.0812-.319.1688-.475.2424z" fill="#373f51"/></g><g fill="#febb61"><circle cx="34.755" cy="2.123" r="1.123"/><circle cx="14.9" cy="19.305" r="1.123"/><circle cx="20.956" cy="2.654" r="1.123"/></g></g></g><g><g opacity=".5"><path d="m15.5867 14.7684 2.1494 15.5957c.0259 1.0571.748 2.1147 2.1434 2.9204 2.8513 1.647 7.4532 1.647 10.2784 0 1.3953-.814 2.0973-1.8716 2.1146-2.9204l2.151-15.5957c-6.2916 1.2417-12.5705 1.2417-18.8368 0z" fill="#96d696"/></g></g></g><g><path d="m34.2256 8.5832c.055.1608.1029.3246.1495.4892 2.6163.7223 4.1398 1.7096 4.1398 2.6638 0 1.809-5.4326 3.7459-13.5194 3.7459s-13.5185-1.9368-13.5185-3.7459c0-.9542 1.5235-1.9415 4.1398-2.6638.0467-.1646.0946-.3284.1495-.4892-2.9054.7604-4.7227 1.8806-4.7227 3.153 0 2.3435 6.1283 4.1792 13.9518 4.1792s13.9527-1.8357 13.9527-4.1792c.0002-1.2724-1.8171-2.3926-4.7225-3.153z" fill="#373f51"/></g><circle cx="28.848" cy="15.45" fill="#febb61" r="1.123"/></g></g></svg>