<svg id="icons" enable-background="new 0 0 64 64" height="512" viewBox="0 0 64 64" width="512" xmlns="http://www.w3.org/2000/svg"><path d="m32 60.486c-13.233 0-24-10.767-24-24s10.767-24 24-24 24 10.767 24 24-10.767 24-24 24zm0-46c-12.131 0-22 9.869-22 22s9.869 22 22 22 22-9.869 22-22-9.869-22-22-22z" fill="#e6e9ed"/><path d="m63 45.525v9.991l-9 7v-9.991z" fill="#4a89dc"/><path d="m54 52.525-9-7 9-7.009.84.648v.012l8.16 6.349z" fill="#5d9cec"/><path d="m54 52.525v9.991l-9.01-7v-.032-9.959h.01z" fill="#87bcf4"/><path d="m41 15.314v3.17l-9 7v-10l9-7z" fill="#4a89dc"/><path d="m41 8.484-9 7-9-7 9-7z" fill="#5d9cec"/><path d="m32 15.484v10l-9-7.009v-3.161-6.83z" fill="#87bcf4"/><path d="m19.01 55.475v.041l-9.01 7v-9.991l9.01-7z" fill="#4a89dc"/><path d="m10 52.525-8.99-7 8.15-6.349v-.012l.84-.648 9.01 7.009z" fill="#5d9cec"/><path d="m10 52.525v9.991l-9-7v-9.991h.01z" fill="#87bcf4"/></svg>