<svg id="icons" enable-background="new 0 0 64 64" height="512" viewBox="0 0 64 64" width="512" xmlns="http://www.w3.org/2000/svg"><path d="m32 23c-6.32 0-11.77 3.681-14.37 9 2.601 5.33 8.05 9.011 14.37 9.011s11.77-3.681 14.37-9.011c-2.6-5.319-8.05-9-14.37-9z" fill="#e6e9ed"/><path d="m22 14.681v.01c-5.98 3.45-10 9.91-10 17.31 0 3.641.98 7.061 2.69 10h-.01l-9.53 5.499c-2.64-4.56-4.15-9.85-4.15-15.5 0-11.47 6.23-21.489 15.5-26.85v.01z" fill="#967adc"/><path d="m42 49.33 5.5 9.521c-4.56 2.639-9.85 4.149-15.5 4.149-11.47 0-21.49-6.229-26.85-15.5l9.53-5.5h.011c3.449 5.98 9.909 10 17.309 10 3.64 0 7.05-.97 9.99-2.68z" fill="#5d9cec"/><path d="m32 27c2.76 0 5 2.24 5 5 0 2.771-2.24 5.011-5 5.011s-5-2.24-5-5.011c0-2.76 2.24-5 5-5z" fill="#5d9cec"/><path d="m52 32h11c0 5.65-1.51 10.94-4.15 15.5l-9.53-5.5h-.01c1.71-2.939 2.69-6.359 2.69-10z" fill="#a0d468"/><path d="m49.32 42 9.529 5.5c-2.72 4.71-6.64 8.63-11.35 11.351l-5.499-9.521-.01-.01c3.04-1.75 5.569-4.28 7.319-7.32z" fill="#48cfad"/><path d="m63 32h-11c0-11.04-8.96-20-20-20-3.64 0-7.06.98-10 2.69v-.01l-5.5-9.52v-.01c4.56-2.639 9.85-4.15 15.5-4.15 17.12 0 31 13.88 31 31z" fill="#ffce54"/><path d="m32 42.004c-6.54 0-12.392-3.665-15.27-9.565-.136-.276-.136-.601 0-.877 2.878-5.9 8.729-9.565 15.27-9.565s12.392 3.665 15.27 9.565c.136.276.136.601 0 .877-2.878 5.9-8.73 9.565-15.27 9.565zm-13.25-10.004c2.612 4.95 7.645 8.004 13.25 8.004s10.638-3.054 13.25-8.004c-2.612-4.95-7.645-8.004-13.25-8.004s-10.638 3.054-13.25 8.004z" fill="#e6e9ed"/><path d="m32 38.002c-3.309 0-6-2.692-6-6.002s2.691-6.002 6-6.002 6 2.692 6 6.002-2.691 6.002-6 6.002zm0-10.004c-2.206 0-4 1.795-4 4.002s1.794 4.002 4 4.002 4-1.795 4-4.002-1.794-4.002-4-4.002z" fill="#5d9cec"/></svg>