<svg id="icons" enable-background="new 0 0 64 64" height="512" viewBox="0 0 64 64" width="512" xmlns="http://www.w3.org/2000/svg"><path d="m32 0c-17.673 0-32 14.327-32 32s14.327 32 32 32 32-14.327 32-32-14.327-32-32-32zm0 62c-16.567 0-30-13.433-30-30s13.433-30 30-30 30 13.433 30 30-13.433 30-30 30z" fill="#656d78"/><g fill="#e6e9ed"><path d="m32 20c-8.42 0-15.68 4.899-19.15 12 3.47 7.1 10.73 12 19.15 12 8.43 0 15.69-4.9 19.15-12-3.46-7.101-10.72-12-19.15-12z"/><path d="m4 57h9c1.66 0 3-1.341 3-3v4.56 1.44c0 1.659-1.34 3-3 3h-9c-1.65 0-3-1.341-3-3v-6c0 1.659 1.35 3 3 3z"/><path d="m51 51h9c1.66 0 3-1.341 3-3v6c0 1.659-1.34 3-3 3h-9c-1.65 0-3-1.341-3-3v-6c0 1.659 1.35 3 3 3z"/><path d="m16 5.439v4.561c0 1.649-1.34 3-3 3h-9c-1.65 0-3-1.351-3-3v-6c0 1.649 1.35 3 3 3h9c1.66 0 3-1.351 3-3z"/></g><path d="m13 1c1.66 0 3 1.34 3 3 0 1.649-1.34 3-3 3h-9c-1.65 0-3-1.351-3-3 0-1.66 1.35-3 3-3z" fill="#ccd1d9"/><path d="m48 54c0 1.659 1.35 3 3 3h9c1.66 0 3-1.341 3-3v6c0 1.659-1.34 3-3 3h-9c-1.65 0-3-1.341-3-3v-1.45z" fill="#e6e9ed"/><path d="m4 51h9c1.66 0 3-1.341 3-3v6c0 1.659-1.34 3-3 3h-9c-1.65 0-3-1.341-3-3v-6c0 1.659 1.35 3 3 3z" fill="#e6e9ed"/><path d="m60.15 45.01c1.59.069 2.85 1.38 2.85 2.99 0 1.659-1.34 3-3 3h-9c-1.65 0-3-1.341-3-3 0-1.66 1.35-3 3-3h9c.05 0 .1 0 .15.01z" fill="#ccd1d9"/><path d="m32 24c4.41 0 8 3.579 8 8 0 4.42-3.59 8-8 8s-8-3.58-8-8c0-4.421 3.59-8 8-8z" fill="#5d9cec"/><path d="m32 24c-.514 0-1.015.053-1.502.146 3.695.704 6.499 3.948 6.499 7.854 0 3.905-2.804 7.15-6.499 7.854.487.093.988.146 1.502.146 4.41 0 8-3.58 8-8 0-4.421-3.59-8-8-8z" fill="#4a89dc"/><path d="m4 13h9c1.66 0 3-1.351 3-3v6c0 1.649-1.34 3-3 3h-9c-.05 0-.1 0-.15-.011-1.58-.069-2.85-1.389-2.85-2.989v-6c0 1.649 1.35 3 3 3z" fill="#e6e9ed"/><path d="m13 45c1.66 0 3 1.34 3 3 0 1.659-1.34 3-3 3h-9c-1.65 0-3-1.341-3-3 0-1.61 1.27-2.921 2.85-2.99.05-.01.1-.01.15-.01z" fill="#ccd1d9"/><path d="m48 4c0 1.649 1.35 3 3 3h9c1.66 0 3-1.351 3-3v6c0 1.649-1.34 3-3 3h-9c-1.65 0-3-1.351-3-3v-4.57z" fill="#e6e9ed"/><path d="m51 13h9c1.66 0 3-1.351 3-3v6c0 1.6-1.26 2.92-2.85 2.989-.05.011-.1.011-.15.011h-9c-1.65 0-3-1.351-3-3v-6c0 1.649 1.35 3 3 3z" fill="#e6e9ed"/><path d="m60 1c1.66 0 3 1.34 3 3 0 1.649-1.34 3-3 3h-9c-1.65 0-3-1.351-3-3 0-1.66 1.35-3 3-3z" fill="#ccd1d9"/><path d="m32 45c-8.587 0-16.27-4.813-20.05-12.562-.136-.276-.136-.601 0-.877 3.781-7.748 11.464-12.561 20.05-12.561s16.269 4.813 20.05 12.562c.136.276.136.601 0 .877-3.78 7.748-11.463 12.561-20.05 12.561zm-18.032-13c3.514 6.798 10.379 11 18.032 11s14.518-4.202 18.032-11c-3.515-6.798-10.38-11-18.032-11s-14.517 4.202-18.032 11z" fill="#e6e9ed"/><path d="m4 13h8.999c1.66 0 3-1.34 3-3v5.999c0 1.66-1.34 3-3 3h-8.999c-1.65 0-3-1.34-3-3v-5.999c0 1.66 1.35 3 3 3z" fill="#e6e9ed"/><path d="m12.999 1.001c1.66 0 3 1.34 3 3s-1.34 3-3 3h-8.999c-1.65 0-3-1.34-3-3s1.35-3 3-3z" fill="#ccd1d9"/><path d="m4 7.001h8.999c1.66 0 3-1.34 3-3v5.999c0 1.66-1.34 3-3 3h-8.999c-1.65 0-3-1.34-3-3v-5.999c0 1.66 1.35 3 3 3z" fill="#e6e9ed"/><path d="m12.999 12.5h-8.999c-1.65 0-3-1.34-3-3v1.001c0 1.66 1.35 3 3 3h8.999c1.66 0 3-1.34 3-3v-1.001c0 1.66-1.34 3-3 3z" fill="#ccd1d9"/><path d="m51 13h8.999c1.66 0 3-1.34 3-3v5.999c0 1.66-1.34 3-3 3h-8.999c-1.65 0-3-1.34-3-3v-5.999c0 1.66 1.35 3 3 3z" fill="#e6e9ed"/><path d="m59.999 1.001c1.66 0 3 1.34 3 3s-1.34 3-3 3h-8.999c-1.65 0-3-1.34-3-3s1.35-3 3-3z" fill="#ccd1d9"/><path d="m51 7.001h8.999c1.66 0 3-1.34 3-3v5.999c0 1.66-1.34 3-3 3h-8.999c-1.65 0-3-1.34-3-3v-5.999c0 1.66 1.35 3 3 3z" fill="#e6e9ed"/><path d="m59.999 12.5h-8.999c-1.65 0-3-1.34-3-3v1.001c0 1.66 1.35 3 3 3h8.999c1.66 0 3-1.34 3-3v-1.001c0 1.66-1.34 3-3 3z" fill="#ccd1d9"/><path d="m4 57h8.999c1.66 0 3-1.34 3-3v5.999c0 1.66-1.34 3-3 3h-8.999c-1.65 0-3-1.34-3-3v-5.999c0 1.66 1.35 3 3 3z" fill="#e6e9ed"/><path d="m12.999 45.001c1.66 0 3 1.34 3 3s-1.34 3-3 3h-8.999c-1.65 0-3-1.34-3-3s1.35-3 3-3z" fill="#ccd1d9"/><path d="m4 51.001h8.999c1.66 0 3-1.34 3-3v5.999c0 1.66-1.34 3-3 3h-8.999c-1.65 0-3-1.34-3-3v-5.999c0 1.66 1.35 3 3 3z" fill="#e6e9ed"/><path d="m12.999 56.5h-8.999c-1.65 0-3-1.34-3-3v1.001c0 1.66 1.35 3 3 3h8.999c1.66 0 3-1.34 3-3v-1.001c0 1.66-1.34 3-3 3z" fill="#ccd1d9"/><path d="m51 57h8.999c1.66 0 3-1.34 3-3v5.999c0 1.66-1.34 3-3 3h-8.999c-1.65 0-3-1.34-3-3v-5.999c0 1.66 1.35 3 3 3z" fill="#e6e9ed"/><path d="m59.999 45.001c1.66 0 3 1.34 3 3s-1.34 3-3 3h-8.999c-1.65 0-3-1.34-3-3s1.35-3 3-3z" fill="#ccd1d9"/><path d="m51 51.001h8.999c1.66 0 3-1.34 3-3v5.999c0 1.66-1.34 3-3 3h-8.999c-1.65 0-3-1.34-3-3v-5.999c0 1.66 1.35 3 3 3z" fill="#e6e9ed"/><path d="m59.999 56.5h-8.999c-1.65 0-3-1.34-3-3v1.001c0 1.66 1.35 3 3 3h8.999c1.66 0 3-1.34 3-3v-1.001c0 1.66-1.34 3-3 3z" fill="#ccd1d9"/></svg>