<svg id="icons" enable-background="new 0 0 64 64" height="512" viewBox="0 0 64 64" width="512" xmlns="http://www.w3.org/2000/svg"><g fill="#e6e9ed"><path d="m9 27.994c-.553 0-1-.447-1-1v-4c0-.553.447-1 1-1s1 .447 1 1v4c0 .553-.447 1-1 1z"/><path d="m55 23.994h-46c-.553 0-1-.447-1-1s.447-1 1-1h46c.553 0 1 .447 1 1s-.447 1-1 1z"/><path d="m55 27.994c-.553 0-1-.447-1-1v-4c0-.553.447-1 1-1s1 .447 1 1v4c0 .553-.447 1-1 1z"/><path d="m55 64c-.553 0-1-.447-1-1v-4c0-.553.447-1 1-1s1 .447 1 1v4c0 .553-.447 1-1 1z"/><path d="m55 64h-46c-.553 0-1-.447-1-1s.447-1 1-1h46c.553 0 1 .447 1 1s-.447 1-1 1z"/><path d="m9 64c-.553 0-1-.447-1-1v-4c0-.553.447-1 1-1s1 .447 1 1v4c0 .553-.447 1-1 1z"/><path d="m32 1c-6.32 0-11.77 3.68-14.37 9 2.601 5.32 8.05 9 14.37 9s11.77-3.68 14.37-9c-2.6-5.32-8.05-9-14.37-9z"/><path d="m59 31.99h-54-4v22.01h4 54 4v-22.01z"/></g><circle cx="32" cy="10" fill="#5d9cec" r="5"/><path d="m9 22.99h46v4h-46z" fill="#e6e9ed"/><path d="m59 26.99v5h-54v-5h4 46z" fill="#ccd1d9"/><path d="m59 54v5h-4-46-4v-5z" fill="#ccd1d9"/><path d="m9 59h46v4h-46z" fill="#e6e9ed"/><path d="m12 37c3.31 0 6 2.69 6 6 0 1.79-.78 3.4-2.03 4.49-.26-1.97-1.93-3.49-3.97-3.49 1.1 0 2-.9 2-2 0-1.11-.9-2-2-2s-2 .89-2 2c0 1.1.9 2 2 2-2.04 0-3.71 1.52-3.97 3.49-1.25-1.09-2.03-2.7-2.03-4.49 0-3.31 2.69-6 6-6z" fill="#656d78"/><path d="m15.97 47.49v.01c-1.05.93-2.44 1.5-3.97 1.5s-2.92-.57-3.97-1.5v-.01c.26-1.97 1.93-3.49 3.97-3.49s3.71 1.52 3.97 3.49z" fill="#5d9cec"/><path d="m5 32.994c-.553 0-1-.447-1-1v-5c0-.553.447-1 1-1s1 .447 1 1v5c0 .553-.447 1-1 1z" fill="#ccd1d9"/><path d="m59 27.994h-54c-.553 0-1-.447-1-1s.447-1 1-1h54c.553 0 1 .447 1 1s-.447 1-1 1z" fill="#ccd1d9"/><path d="m59 32.994c-.553 0-1-.447-1-1v-5c0-.553.447-1 1-1s1 .447 1 1v5c0 .553-.447 1-1 1z" fill="#ccd1d9"/><path d="m59 60c-.553 0-1-.447-1-1v-5c0-.553.447-1 1-1s1 .447 1 1v5c0 .553-.447 1-1 1z" fill="#ccd1d9"/><path d="m59 60h-54c-.553 0-1-.447-1-1s.447-1 1-1h54c.553 0 1 .447 1 1s-.447 1-1 1z" fill="#ccd1d9"/><path d="m5 60c-.553 0-1-.447-1-1v-5c0-.553.447-1 1-1s1 .447 1 1v5c0 .553-.447 1-1 1z" fill="#ccd1d9"/><path d="m63 55h-62c-.553 0-1-.447-1-1v-22.006c0-.553.447-1 1-1h62c.553 0 1 .447 1 1v22.006c0 .553-.447 1-1 1zm-61-2h60v-20.006h-60z" fill="#e6e9ed"/><path d="m30 37.996h-7c-.553 0-1-.447-1-1s.447-1 1-1h7c.553 0 1 .447 1 1s-.447 1-1 1z" fill="#656d78"/><path d="m58 41.998h-35c-.553 0-1-.447-1-1s.447-1 1-1h35c.553 0 1 .447 1 1s-.447 1-1 1z" fill="#ccd1d9"/><path d="m58 46h-35c-.553 0-1-.447-1-1s.447-1 1-1h35c.553 0 1 .447 1 1s-.447 1-1 1z" fill="#ccd1d9"/><path d="m39 50h-16c-.553 0-1-.447-1-1s.447-1 1-1h16c.553 0 1 .447 1 1s-.447 1-1 1z" fill="#ccd1d9"/><path d="m32 20c-6.54 0-12.391-3.664-15.27-9.562-.136-.277-.136-.6 0-.877 2.879-5.897 8.73-9.561 15.27-9.561s12.391 3.664 15.27 9.562c.136.277.136.6 0 .877-2.879 5.897-8.73 9.561-15.27 9.561zm-13.25-10c2.612 4.947 7.645 8 13.25 8s10.638-3.053 13.25-8c-2.612-4.948-7.645-8-13.25-8s-10.638 3.052-13.25 8z" fill="#e6e9ed"/><path d="m32 16c-3.309 0-6-2.691-6-6s2.691-6 6-6 6 2.691 6 6-2.691 6-6 6zm0-10c-2.206 0-4 1.794-4 4s1.794 4 4 4 4-1.794 4-4-1.794-4-4-4z" fill="#5d9cec"/><path d="m14.5 42.498c0 1.375-1.125 2.5-2.5 2.5s-2.5-1.125-2.5-2.5c0-1.388 1.125-2.5 2.5-2.5s2.5 1.112 2.5 2.5z" fill="#eac6bb"/></svg>