<svg id="Layer_1" enable-background="new 0 0 50 50" height="512" viewBox="0 0 50 50" width="512" xmlns="http://www.w3.org/2000/svg"><g><g><g><g><path d="m46.72972 29.12118.0118-2.8459c.0019-.6676.1976-1.2674.4737-1.7819.6621-1.2378 1.7286-1.9437 1.7848-1.9808l-.0118 2.8459c-.0562.0371-1.1227.743-1.7848 1.9808-.2761.5145-.4718 1.1143-.4737 1.7819z" fill="#9da9c1"/></g><g><path d="m1.00002 30.09358.0118-2.8459c-.0074 2.6102 1.0219 5.3643 3.6575 8.1448l-.0118 2.8459c-2.6356-2.7806-3.6649-5.5346-3.6575-8.1448z" fill="#b4bed7"/></g><g><path d="m48.20452 29.45178-.0118 2.8459c-1.0897.6401-21.7935 12.8009-43.5352 5.9407l.0118-2.8459c21.7417 6.86019 42.4455-5.3006 43.5352-5.9407z" fill="#9da9c1"/></g><g><path d="m48.20452 29.45178c-1.0897.6401-21.7935 12.8009-43.5352 5.9407-11.9177-12.5731 9.0089-24.6052 10.1103-25.2385 6.8675 2.1312 11.7218-.3527 11.9773-.4835 4.9596 1.2621 9.4252 3.0379 13.1981 5.2162 3.7696 2.1764 6.8498 4.7572 9.045 7.6259-.0562.0371-1.1227.743-1.7848 1.9808-.6652 1.2396-.8633 2.9739.9893 4.9584z" fill="#e3e7f0"/></g><g><path d="m37.84782 16.11127c3.1668 1.8283 5.7604 3.9257 7.7252 6.2413-.4198.4252-.8681.9726-1.2185 1.6254-.6458 1.2056-1.0419 2.9834.2396 5.0393-2.0725 1.0534-6.2056 2.9646-11.4842 4.4658-9.5388 2.7125-18.3611 2.9213-26.233.6264-4.0138-4.5784-3.6562-9.7157 1.0636-15.2818 2.5744-3.0361 5.8022-5.3912 7.5945-6.5838 5.1307 1.0759 9.2986.1485 11.5026-.5888 4.0106 1.13041 7.64 2.62591 10.8102 4.4562z" fill="#4c5671"/></g></g><g><g><path d="m28.43942 15.22318c.0224.2503-.1841.5033-.6114.7543-.7019.4107-1.4082.4709-1.9414.1658-.1266-.0731-.2064-.1529-.2559-.2287-.0483-.0751-.0674-.1481-.0724-.2063-.0213-.2537.1898-.5189.6112-.7666.6752-.3951 1.413-.4587 1.9204-.1657.2714.1566.3395.33.3495.4472zm-2.2298.6306c.259.1495.6931.0669 1.1925-.2247.3598-.2104.4802-.3768.4728-.4621-.0012-.0115-.0048-.0243-.0143-.0365-.0153-.0237-.0434-.0467-.0833-.0697-.198-.1143-.6417-.0859-1.1889.2348-.3527.2063-.4721.3735-.4634.4607.0001.0122.0038.0508.0846.0975" fill="#e3e7f0"/></g><g><path d="m25.96212 13.79838c.0213.2496-.184.5033-.6112.753-.7113.4174-1.4013.4763-1.9403.1664-.1278-.0738-.2065-.1529-.2572-.228-.0483-.0765-.0674-.1482-.0712-.207-.0224-.2544.1887-.5196.6112-.7666.6752-.3951 1.4108-.4587 1.9205-.1657.2695.1556.3382.3288.3482.4479zm-2.2297.6292c.259.1495.6942.0676 1.1913-.224.3609-.2111.4815-.3762.474-.4614-.0012-.0129-.006-.0251-.0131-.0372-.0153-.0237-.0435-.0467-.0833-.0697-.198-.1143-.6441-.0859-1.1912.2348-.3528.2063-.4698.3734-.4623.46.0012.0129.0049.0515.0846.0975" fill="#e3e7f0"/></g><g><path d="m33.39382 18.07417c.0213.2496-.1852.504-.6113.7543-.702.4107-1.4095.4716-1.9404.1651-.0024-.0014-.0048-.0028-.0073-.0042-.1234-.0713-.2012-.1495-.2497-.2238-.0495-.0757-.0674-.1468-.0736-.2056-.0236-.2537.1851-.5203.6019-.772.6764-.3958 1.4165-.458 1.9309-.161.2714.15661.3395.33001.3495.4472zm-2.2297.6306c.2531.1447.6836.0615 1.1819-.2308.3621-.2117.4826-.3782.4763-.4627-.0001-.0068-.0013-.0183-.0131-.0346-.0118-.0175-.0329-.0405-.0762-.0656-.2426-.1387-.7105-.046-1.1924.2355-.3505.2063-.4687.3728-.4612.4607.0001.01221.0038.05081.0847.0975" fill="#e3e7f0"/></g><g><path d="m30.91662 16.64798c.0212.251-.1841.5047-.6113.7544-.7032.4113-1.4095.4715-1.9403.1664-.1278-.0737-.2076-.1536-.2571-.2294-.0495-.0744-.0686-.1461-.0736-.2043-.0236-.2537.1839-.5209.6007-.7726.6775-.3965 1.4177-.4574 1.9333-.161.2695.15559.3382.3288.3483.4465zm-2.2297.6306c.2566.1481.6755.0663 1.1819-.2294.4599-.27.4835-.4208.4809-.4614-.0025-.0325-.0354-.0677-.0951-.1022-.1981-.113-.6429-.0852-1.1901.2355-.3528.2063-.4698.3734-.4635.4607.0025.0122.0062.0508.0859.0968" fill="#e3e7f0"/></g><g><path d="m38.48422 20.78918-2.2155 1.2956-.5051-.29021 1.6799-.98309-.5168-.1042.3264-.32.8115.1597z" fill="#e3e7f0"/></g><g><path d="m36.00692 19.36298-2.2143 1.2963-.505-.2902 1.6787-.98241-.5169-.10549.3265-.31871.8115.15961z" fill="#e3e7f0"/></g><g><path d="m40.96022 22.21468-2.2131 1.29559-.5051-.29019 1.6776-.98311-.5157-.10479.3276-.3194.8092.1597z" fill="#e3e7f0"/></g><g enable-background="new"><g><path d="m21.95822 16.49988c.0201.2503-.1852.504-.6136.7543-.7172.4209-1.4071.4838-1.938.1773-.1312-.0758-.2134-.157-.2641-.2334-.0494-.0772-.0686-.1489-.0736-.2084-.0224-.2584.1852-.5175.6182-.7706.6764-.3958 1.4119-.4594 1.9217-.1664.2695.15559.3382.3288.3494.4472zm-2.2414.636c.2602.1488.6942.0676 1.1913-.224.3656-.2138.4885-.3789.481-.4628-.0037-.0331-.0343-.0669-.0929-.1008-.1875-.1082-.6161-.113-1.2017.23-.3528.2064-.4687.3729-.4623.4601.0024.0122.005.0514.0846.0975" fill="#e3e7f0"/></g></g><g><path d="m35.88412 24.51428c.0224.2504-.1841.5047-.6113.7544-.7184.4202-1.4071.4837-1.9403.1773-.1289-.0744-.2111-.1556-.2594-.2321-.0495-.0744-.0686-.1448-.0724-.2023-.0248-.2557.1828-.5176.6134-.7773.6776-.3965 1.412-.4594 1.9217-.1665.2713.1567.3383.32939.3483.4465zm-2.2391.636c.2602.1489.6942.0677 1.1913-.2239.3644-.2131.4861-.3789.4798-.4621-.0001-.0122-.006-.0237-.013-.0345-.0142-.023-.04-.0447-.0787-.067-.1875-.1082-.6162-.113-1.2017.23-.3493.2044-.4651.3735-.4577.4628.0013.0129.0039.0507.08.0947" fill="#e3e7f0"/></g><g><path d="m17.46102 18.72778-2.2049 1.29089-.5133-.29629 1.6682-.9777-.4992-.09401.3181-.33689.8128.17249z" fill="#e3e7f0"/></g><g><path d="m32.18022 27.39848c.0224.2504-.1841.5048-.6137.7558-.7125.4167-1.3966.4776-1.9297.1711-.1313-.0758-.2147-.1576-.2642-.2347-.0494-.0745-.0685-.1448-.0735-.2017-.0225-.253.1816-.5114.6089-.7692.6764-.3958 1.4165-.4581 1.931-.161.2655.15319.3312.3226.3412.4397zm-2.2297.6428c.2555.1474.679.0642 1.1901-.2355.3574-.209.4767-.3721.4693-.456-.0013-.0115-.0048-.023-.013-.0345-.0142-.023-.0412-.0453-.0787-.0669-.1887-.1076-.6127-.1151-1.1913.2239-.3551.2077-.4721.3775-.4646.4668.0001.0135.005.0541.0882.1022" fill="#e3e7f0"/></g><g><path d="m13.00482 21.38527c.0224.2477-.1841.5007-.6136.7517-.7125.4168-1.4025.477-1.9404.1665-.0024-.0014-.0049-.0029-.0073-.0043-.1235-.0712-.2012-.1494-.2497-.2237-.0495-.0758-.0687-.1475-.0724-.2064-.0225-.2544.1886-.5196.6112-.7665.6764-.3958 1.4118-.4594 1.9216-.1665.218.12591.3368.27681.3506.4492zm-2.2414.63331c.2555.1475.7047.0616 1.2006-.2293.3598-.2105.4814-.3762.474-.4614-.0013-.0129-.006-.0251-.0131-.0373-.0153-.0237-.0434-.0467-.0845-.0703-.1968-.1137-.6429-.0853-1.1912.2361-.3574.2091-.4756.3782-.468.4675 0 .0122.0049.0501.0822.0947" fill="#e3e7f0"/></g><g><path d="m27.46592 29.45928c.2496.1442.3849.3059.3987.4824.015.1665-.0834.3214-.279.4351-.3924.2293-1.0114.2307-1.8409.1996l.8074.4648-.4168.2449-1.6452-.9472.3353-.1976.4685.0183c1.069.044 1.5583.0365 1.8272-.1211.1083-.0629.1442-.1191.1405-.1495-.0013-.0156-.0167-.0704-.1691-.1583-.2004-.1157-.461-.1462-.5988-.1543l-.1893-.0108.2245-.3667.0573.0033c.3154.0217.6278.1131.8797.2571z" fill="#e3e7f0"/></g><g><path d="m10.67182 25.05028c.0213.2497-.184.5034-.6112.7544-.7079.414-1.4177.4763-1.9485.1698-.0025-.0014-.0049-.0028-.0073-.0042-.1235-.0713-.2013-.1495-.2498-.2238-.0495-.0744-.0662-.1461-.0736-.2043-.0224-.2544.1887-.5237.61-.7781.6671-.3904 1.4248-.4533 1.9322-.1617.2695.1556.3383.3288.3482.4479zm-2.2378.6353c.2519.1455.6825.0623 1.1807-.23.4622-.27.4871-.4202.4833-.4587-.0036-.0346-.0354-.0691-.0963-.1042-.2414-.1394-.7092-.0467-1.1912.2347-.3516.2071-.4698.3735-.4623.4601.0013.0128.005.0514.0858.0981" fill="#e3e7f0"/></g><g><path d="m17.48952 28.76928-2.2049 1.29089-.5145-.29559 1.6694-.97841-.4969-.094.3042-.3302.8244.1658z" fill="#e3e7f0"/></g><g><path d="m15.12362 27.61108c.0201.2503-.1852.504-.6125.7536-.7171.4209-1.407.4838-1.9379.1773-.0025-.0014-.0049-.0028-.0073-.0042-.1269-.0732-.2048-.1528-.2544-.2279-.0496-.0744-.0687-.1447-.0725-.2022-.0236-.2551.1817-.5169.6124-.7767.6775-.3965 1.4131-.4601 1.9228-.1671.2695.1556.3382.3288.3494.4472zm-2.2402.63519c.2601.1489.6941.0677 1.1925-.2232.3632-.2138.4861-.3789.4785-.4628-.0012-.0115-.0047-.023-.013-.0345-.0141-.0216-.0399-.0446-.0774-.0663-.1898-.1083-.6174-.1136-1.203.2294-.3492.2043-.4651.3734-.4576.4627.0013.01291.005.05141.08.0947" fill="#e3e7f0"/></g><g><path d="m12.89832 26.33168c.0225.253-.1816.5074-.6078.7564-.7078.414-1.4176.4763-1.9485.1698-.0024-.0014-.0049-.0028-.0073-.0042-.1234-.0713-.2-.1488-.2485-.2231-.0495-.0745-.0686-.1462-.0736-.2043-.0236-.2551.1874-.5244.61-.7794.6659-.3897 1.4236-.4526 1.9322-.1604.2648.1529.3335.3261.3435.4452zm-2.2343.6373c.2531.1448.6836.0616 1.1807-.23.3644-.2131.4873-.3782.4798-.4621-.0012-.0115-.0048-.023-.013-.0345-.0153-.0223-.0412-.044-.0799-.0663-.2413-.1394-.7092-.0467-1.19.2354-.3528.2064-.4709.3728-.4623.4601.0013.0128.0038.0507.0847.0974" fill="#e3e7f0"/></g><g><path d="m19.58352 30.17788c.0224.2503-.1829.504-.6113.7544-.7183.4201-1.4094.481-1.9485.1712-.1277-.0738-.2075-.1523-.257-.2281-.0483-.0751-.0674-.1468-.0725-.2063-.0224-.2544.1922-.5216.6206-.7719.6752-.3952 1.4119-.4595 1.9205-.1658.2713.1566.3382.3294.3482.4465zm-2.2378.6353c.259.1495.693.0683 1.1901-.2233.4563-.2665.4812-.4208.4763-.4614-.0012-.0115-.0048-.0243-.0131-.0358-.0165-.0244-.0434-.0481-.0856-.0724-.1981-.113-.6429-.0853-1.1901.2354-.3527.2064-.4709.3728-.4634.4607.0012.01289.0049.0501.0858.0968" fill="#e3e7f0"/></g><g><path d="m21.94012 31.33068-2.205 1.29089-.5051-.29019 1.673-.979-.4993-.0913.3042-.33291.8138.16101z" fill="#e3e7f0"/></g><g><path d="m24.04112 32.74337c.0213.2523-.184.5074-.6078.7564-.7078.4141-1.4176.4763-1.9496.1705-.1266-.0731-.2064-.1529-.2571-.228-.0483-.0751-.0662-.1461-.0724-.205-.0225-.2544.1886-.5237.61-.7781.6671-.3903 1.4248-.4532 1.9322-.1617.266.15361.3347.32681.3447.4459zm-2.2355.63671c.2531.1461.6825.0622 1.1819-.2294.3644-.2131.4849-.3782.4786-.4628-.0012-.0115-.0048-.023-.0118-.0338-.0154-.0223-.0424-.0447-.0799-.0663-.2414-.1394-.7092-.0467-1.1912.2348-.3527.2063-.4698.3734-.4623.46.0013.0129.005.0515.0847.0975" fill="#e3e7f0"/></g></g><g><g><g><g enable-background="new"><g><path d="m27.66652 22.33588 1.3638 1.1619 1.113 2.2629-1.1778-1.8168-1.3009-.9418z" fill="#272e3a"/></g></g></g><g><g enable-background="new"><g><path d="m26.20392 23.45267 1.3638 1.16191 1.113 2.2629-1.1778-1.8168-1.3009-.9418z" fill="#272e3a"/></g></g></g><g><g enable-background="new"><g><path d="m24.56912 24.54888 1.3639 1.162 1.113 2.2629-1.1778-1.81681-1.301-.94179z" fill="#272e3a"/></g></g></g></g><g><g enable-background="new"><g><path d="m18.92812 21.28528-.1792.4059-1.3021-.561-1.2442.6414 1.1221-.97261z" fill="#272e3a"/></g></g><g enable-background="new"><g><path d="m19.81982 19.78658.0578.4778-1.302-.5611-1.2443.6414 1.1222-.9725z" fill="#272e3a"/></g></g><g enable-background="new"><g><path d="m22.22372 18.51128-.236.38869-1.302-.56099-1.2443.6413 1.1222-.9725z" fill="#272e3a"/></g></g><path d="m28.43512 22.22367c-.1209-2.2788-2.3245-4.1272-5.0211-4.2126-2.9786-.0944-5.4285 1.9187-5.4285 4.4156 0 .0101.0001.0203.0002.0305.0074.9266.5782 1.7375 1.4336 2.3214.7705.5259 1.6943.7804 2.627.7804h2.3329c.936 0 1.8634-.2558 2.635-.7857.8549-.5872 1.4228-1.4027 1.4263-2.3323.0003-.07199-.0015-.14449-.0054-.2173z" fill="#e34454"/><g><path d="m18.90792 23.73318c0-2.4968 2.4498-4.5099 5.4284-4.4156 1.4946.0474 2.8359.6377 3.757 1.5416-.7313-1.6111-2.5491-2.7807-4.6793-2.8482-2.9786-.0943-5.4284 1.9188-5.4284 4.4157v.0303c.0063.7767.4115 1.47 1.0451 2.0186-.0764-.228-.1207-.4653-.1227-.7117-.0001-.0103-.0001-.0203-.0001-.0307z" fill="#ed5d71"/></g></g><g><circle cx="16.828" cy="24.374" fill="#4c5671" r=".312"/><path d="m19.09262 22.39927c-1.3233 0-2.396 1.0727-2.396 2.396 0 1.7169 4.792 1.7169 4.792 0 0-1.32329-1.0727-2.396-2.396-2.396z" fill="#febb61"/><g><g><circle cx="19.049" cy="25.286" fill="#4c5671" r=".312"/></g></g></g><g><g><path d="m16.94942 27.24408c-.0096-.0055-.0175-.0122-.023-.02-.0221-.0304.003-.0659.0568-.0786.2539-.0609.4743-.148.6567-.254.5571-.3237.7545-.8221.4326-1.2715-.0221-.0312.003-.0666.0561-.079.0405-.0095.0852-.0036.114.013.0095.0055.0173.0121.0226.0198.3554.4964.1383 1.0464-.4765 1.4037-.2009.1167-.4452.2131-.725.2798-.0405.0095-.0852.0036-.1143-.0132z" fill="#272e3a"/></g><g><path d="m14.74182 25.69368c-.0233-.0163-.0315-.0419-.018-.0654.0917-.1639.2245-.3082.3858-.4281.4934-.3666 1.2549-.5088 1.9432-.3184.0107.003.02.0074.0277.0127.0233.0164.0316.042.018.0654-.0169.0311-.066.0467-.1088.0352-.624-.1732-1.314-.0439-1.7611.2883-.1464.1088-.2665.239-.3497.3881-.0175.0308-.0666.0472-.1093.0349-.0108-.0029-.0201-.0073-.0278-.0127z" fill="#272e3a"/></g></g></g></g></g></svg>