<svg id="icons" enable-background="new 0 0 64 64" height="512" viewBox="0 0 64 64" width="512" xmlns="http://www.w3.org/2000/svg"><path d="m54.5 46.499c-.553 0-1-.447-1-1v-4.998c0-.553.447-1 1-1s1 .447 1 1v4.998c0 .553-.447 1-1 1z" fill="#ccd1d9"/><path d="m36.5 6.5v-5h-33v3 55h35 3v-53z" fill="#e6e9ed"/><path d="m54.5 9.48c-3.52 0-6.55 2.05-8 5.02 1.45 2.96 4.48 5.01 8 5.01s6.55-2.05 8-5.01c-1.45-2.97-4.48-5.02-8-5.02z" fill="#e6e9ed"/><path d="m56.5 45.5v12c0 1.1-.9 2-2 2s-2-.9-2-2v-12h2z" fill="#656d78"/><path d="m54.5 11.5c1.65 0 3 1.34 3 3 0 1.65-1.35 3-3 3s-3-1.35-3-3c0-1.66 1.35-3 3-3z" fill="#5d9cec"/><path d="m54.5 24.5c4.42 0 8 3.58 8 8s-3.58 8-8 8-8-3.58-8-8 3.58-8 8-8zm0 13c2.76 0 5-2.24 5-5s-2.24-5-5-5-5 2.24-5 5 2.24 5 5 5z" fill="#e6e9ed"/><path d="m35.5 44.498h-8c-.55 0-1 .45-1 1v-1h-9-9v8.002l1 1h8 18c.55 0 1-.45 1-1v-7.002c0-.55-.45-1-1-1z" fill="#fff"/><path d="m27.5 43.5c-.55 0-1.45 0-2 0h-7c-.55 0-1.45 0-2 0h-7c-.55 0-1 .45-1 1v1c0 .55.45 1 1 1h7 2 7 2 8c.55 0 1-.45 1-1v-1c0-.55-.45-1-1-1z" fill="#5d9cec"/><path d="m3.5 4.5v55h35v3h-38v-58z" fill="#ccd1d9"/><path d="m54.5 20.51c-3.812 0-7.221-2.136-8.898-5.574-.136-.276-.136-.601 0-.877 1.678-3.438 5.088-5.574 8.898-5.574 3.809 0 7.218 2.136 8.898 5.573.136.277.136.602 0 .879-1.679 3.437-5.089 5.573-8.898 5.573zm-6.871-6.013c1.406 2.487 3.996 4.013 6.871 4.013 2.873 0 5.463-1.525 6.87-4.013-1.408-2.487-3.997-4.013-6.87-4.013-2.875 0-5.464 1.526-6.871 4.013z" fill="#e6e9ed"/><path d="m54.5 18.499c-2.206 0-4-1.795-4-4.002 0-2.206 1.794-4.001 4-4.001s4 1.795 4 4.001c0 2.207-1.794 4.002-4 4.002zm0-6.003c-1.103 0-2 .897-2 2.001s.897 2.002 2 2.002 2-.898 2-2.002-.897-2.001-2-2.001z" fill="#5d9cec"/><path d="m8.5 45.5h28v1h-28z" fill="#5d9cec"/><circle cx="9.5" cy="52.5" fill="#fff" r="1"/><path d="m15.499 43.5h2v3h-2z" fill="#4a89dc"/><path d="m15.499 46.5h2v7h-2z" fill="#e6e9ed"/><path d="m26.501 43.5h2v3h-2z" fill="#4a89dc"/><path d="m26.501 46.5h2v7h-2z" fill="#e6e9ed"/><path d="m14.5 8.98c-3.589 0-6.499 2.91-6.499 6.5 0 3.589 2.91 6.5 6.499 6.5 3.59 0 6.5-2.911 6.5-6.5s-2.91-6.5-6.5-6.5zm0 8.5c-1.102 0-2-.898-2-2s.898-2 2-2 2 .898 2 2-.898 2-2 2z" fill="#5d9cec"/><path d="m41.5 6.5h-5v-5z" fill="#f5f7fa"/><g fill="#ccd1d9"><path d="m35.499 13.501h-9.999c-.553 0-1-.447-1-1s.447-1 1-1h9.999c.553 0 1 .447 1 1s-.447 1-1 1z"/><path d="m35.499 16.5h-9.999c-.553 0-1-.447-1-1s.447-1 1-1h9.999c.553 0 1 .447 1 1s-.447 1-1 1z"/><path d="m30.499 19.499h-4.999c-.553 0-1-.447-1-1s.447-1 1-1h4.999c.553 0 1 .447 1 1s-.447 1-1 1z"/><path d="m19.5 30.501h-9.999c-.553 0-1-.447-1-1s.447-1 1-1h9.999c.553 0 1 .447 1 1s-.447 1-1 1z"/><path d="m19.5 33.5h-9.999c-.553 0-1-.447-1-1s.447-1 1-1h9.999c.553 0 1 .447 1 1s-.447 1-1 1z"/><path d="m14.5 36.499h-4.999c-.553 0-1-.447-1-1s.447-1 1-1h4.999c.553 0 1 .447 1 1s-.447 1-1 1z"/></g><path d="m27.5 38.502c-.553 0-1-.447-1-1v-4.002c0-.553.447-1 1-1s1 .447 1 1v4.002c0 .553-.447 1-1 1z" fill="#a0d468"/><path d="m30.502 38.502c-.553 0-1-.447-1-1v-9.002c0-.553.447-1 1-1s1 .447 1 1v9.002c0 .553-.447 1-1 1z" fill="#5d9cec"/><path d="m33.5 38.502c-.553 0-1-.447-1-1v-6.002c0-.553.447-1 1-1s1 .447 1 1v6.002c0 .553-.447 1-1 1z" fill="#ac92ec"/><path d="m24.502 38.502c-.553 0-1-.447-1-1v-10.999c0-.553.447-1 1-1s1 .447 1 1v10.999c0 .553-.447 1-1 1z" fill="#656d78"/><path d="m35.501 38.502h-10.999c-.553 0-1-.447-1-1s.447-1 1-1h10.999c.553 0 1 .447 1 1s-.447 1-1 1z" fill="#656d78"/><path d="m16.5 15.48c0 .588-.261 1.112-.667 1.479l3.225 3.151c1.198-1.177 1.942-2.816 1.942-4.63 0-3.59-2.91-6.5-6.5-6.5v4.5c1.102 0 2 .899 2 2z" fill="#48cfad"/><path d="m55.499 46.5h-1.998c-.553 0-1-.447-1-1s.447-1 1-1h1.998c.553 0 1 .447 1 1s-.447 1-1 1z" fill="#656d78"/><circle cx="54.5" cy="32.5" fill="#5d9cec" r="6"/></svg>