<svg id="icons" enable-background="new 0 0 64 64" height="512" viewBox="0 0 64 64" width="512" xmlns="http://www.w3.org/2000/svg"><path d="m41 57.5h2c1.11 0 2 .89 2 2v1h-26v-1c0-1.11.89-2 2-2h2z" fill="#656d78"/><path d="m1.05 45.5h61.95v2c0 1.1-.9 2-2 2h-22-14-22c-1.1 0-2-.9-2-2v-2z" fill="#656d78"/><path d="m39 49.5 2 8h-18l2-8z" fill="#545c66"/><path d="m61 4.5h-58c-1.1 0-2 .9-2 2v39h.05 61.95v-39c0-1.1-.9-2-2-2z" fill="#e6e9ed"/><path d="m28.69 17.81c5.33 1.21 9.31 5.99 9.31 11.69 0 6.63-5.37 12-12 12-5.7 0-10.48-3.98-11.69-9.31.86.21 1.76.31 2.69.31 1.46 0 2.86-.26 4.15-.74 1.64-.6 3.119-1.55 4.33-2.77 1.21-1.2 2.159-2.66 2.76-4.29.49-1.31.76-2.72.76-4.2 0-.93-.1-1.83-.31-2.69z" fill="#a0d468"/><path d="m28.69 17.81c.21.86.31 1.76.31 2.69 0 1.48-.27 2.89-.76 4.2l-6.44-6.44c1.311-.49 2.72-.76 4.2-.76.93 0 1.83.1 2.69.31z" fill="#4a89dc"/><path d="m14.74 25.34 6.41 6.42c-1.29.48-2.69.74-4.15.74-.93 0-1.83-.1-2.69-.31-.21-.86-.31-1.76-.31-2.69 0-1.46.26-2.87.74-4.16z" fill="#5d9cec"/><path d="m17.52 21.01 7.961 7.98c-1.211 1.22-2.69 2.17-4.33 2.77l-6.41-6.42c.609-1.64 1.559-3.12 2.779-4.33z" fill="#4a89dc"/><path d="m21.8 18.26 6.44 6.44c-.601 1.63-1.55 3.09-2.76 4.29l-7.961-7.98c1.201-1.21 2.661-2.15 4.281-2.75z" fill="#5d9cec"/><path d="m28.69 17.81c-.86-.21-1.76-.31-2.69-.31-1.48 0-2.89.27-4.2.76-1.62.601-3.08 1.54-4.28 2.75-1.22 1.21-2.17 2.69-2.779 4.33-.481 1.29-.741 2.7-.741 4.16 0 .93.1 1.83.31 2.69-5.33-1.21-9.31-5.99-9.31-11.69 0-6.63 5.37-12 12-12 5.7 0 10.48 3.98 11.69 9.31z" fill="#ffce54"/><path d="m61 50.5h-58c-1.654 0-3-1.346-3-3v-41c0-1.654 1.346-3 3-3h58c1.654 0 3 1.346 3 3v41c0 1.654-1.346 3-3 3zm-58-45c-.552 0-1 .448-1 1v41c0 .552.448 1 1 1h58c.552 0 1-.448 1-1v-41c0-.552-.448-1-1-1z" fill="#656d78"/><g fill="#ccd1d9"><path d="m57.999 13.498h-14.999c-.553 0-1-.447-1-1s.447-1 1-1h14.999c.553 0 1 .447 1 1s-.447 1-1 1z"/><path d="m57.999 16.498h-14.999c-.553 0-1-.447-1-1s.447-1 1-1h14.999c.553 0 1 .447 1 1s-.447 1-1 1z"/><path d="m57.999 19.498h-14.999c-.553 0-1-.447-1-1s.447-1 1-1h14.999c.553 0 1 .447 1 1s-.447 1-1 1z"/><path d="m50.992 22.498h-7.992c-.553 0-1-.447-1-1s.447-1 1-1h7.992c.553 0 1 .447 1 1s-.447 1-1 1z"/><path d="m57.999 28.498h-14.999c-.553 0-1-.447-1-1s.447-1 1-1h14.999c.553 0 1 .447 1 1s-.447 1-1 1z"/><path d="m57.999 31.498h-14.999c-.553 0-1-.447-1-1s.447-1 1-1h14.999c.553 0 1 .447 1 1s-.447 1-1 1z"/><path d="m57.999 34.498h-14.999c-.553 0-1-.447-1-1s.447-1 1-1h14.999c.553 0 1 .447 1 1s-.447 1-1 1z"/><path d="m51.993 37.498h-8.993c-.553 0-1-.447-1-1s.447-1 1-1h8.993c.553 0 1 .447 1 1s-.447 1-1 1z"/></g><path d="m32.03 49c-.553 0-1.005-.447-1.005-1s.442-1 .994-1h.011c.552 0 1 .447 1 1s-.448 1-1 1z" fill="#545c66"/></svg>