<svg id="icons" enable-background="new 0 0 64 64" height="512" viewBox="0 0 64 64" width="512" xmlns="http://www.w3.org/2000/svg"><path d="m16.475 6.984v13h-6.961-6.03v-13z" fill="#e6e9ed"/><path d="m22.475 17.984-6 6v7.022h-6.961v-11.022h6.961.009l2-2z" fill="#aab2bd"/><path d="m16.475 31.006v5.969h-12.94l5.979-5.969z" fill="#ccd1d9"/><path d="m22.484 11.965v2.019l-4 4-2 2h-.009v-13l6-6h.009v4.961z" fill="#aab2bd"/><path d="m22.475.984-6 6h-12.991l6-6z" fill="#ccd1d9"/><path d="m47.494 5.945h-.969-.031-11.99-1-11.02v6.02 2.019l-4 4h3.991l-6 6h12.99l.019-.009.01.009h12.99l6-6 .02-.019 6-6 .012-.02 6-6z" fill="#ccd1d9"/><path d="m54.516 11.945-.012.02-6 6-.02.019-6 6v12.991.05 12.991.009 12.991l6-6v-.01h.02l6-6v-.022h.012l6-6v-11.99-.01-1-12-.039-1-13z" fill="#aab2bd"/><path d="m29.494 23.984-.01-.009-.019.009h-12.99v7.022 5.969h-12.94l-.051.05v12.991.009 12.991h12.991 12.99.029 12.99v-12.991-.009-12.991-.05-12.991z" fill="#e6e9ed"/></svg>