<?xml version="1.0" standalone="no"?><!DOCTYPE svg PUBLIC "-//W3C//DTD SVG 1.1//EN" "http://www.w3.org/Graphics/SVG/1.1/DTD/svg11.dtd"><svg t="1750233222596" class="icon" viewBox="0 0 1024 1024" version="1.1" xmlns="http://www.w3.org/2000/svg" p-id="2325" xmlns:xlink="http://www.w3.org/1999/xlink" width="200" height="200"><path d="M732.14976 93.20448c65.1776 14.26944 99.03104 44.52352 97.16736 88.76032-3.23584 79.27808-157.47584 173.04064-331.13088 208.896 17.09568-117.22752 57.01632-201.93792 95.68768-209.78176 14.09024-2.83136 32.03072-2.45248 47.20128 17.1008 0.19968 0.256 0.32768 0.57344 0.57344 0.81408l40.05376-11.5456c-40.17664-86.81984-96.08192-140.81024-157.7216-140.81024-103.40864 0-190.64832 152.02816-214.5536 356.08576-87.168-9.28256-145.93024-42.38336-144.78848-93.14304 1.28-58.92608 78.9504-125.06624 184.1664-169.3696l-11.1104-39.0144C156.3648 170.84416 21.376 287.7696 21.32992 394.57792 21.31456 492.928 138.24 556.14976 304.128 564.5824c11.63264 235.35104 105.9072 419.81952 219.84768 419.81952 103.61856 0 190.88896-152.40704 214.67648-356.85888l-68.62336 18.02752c-15.02208 109.57824-47.90784 185.90208-85.85728 185.90208-47.95392 0-87.78752-121.75872-93.81888-278.44096 8.79104-1.46944 17.6384-3.05152 26.55744-4.74112 269.52192-51.90144 490.5216-208.7424 485.71392-344.54528-3.4304-95.69792-124.40576-154.7776-285.4144-164.12672l14.94016 53.58592z" fill="#0059A5" p-id="2326"></path></svg>